<svg width="390" height="180" viewBox="0 0 390 180" fill="none" xmlns="http://www.w3.org/2000/svg">
<path d="M0 174.152C0.351921 174.709 20.8817 164.146 32.8235 155.275C41.3614 148.932 45.8239 144.224 54.098 140.303C62.3722 136.382 70.2745 135.567 80.2353 138.35C84.8183 139.631 86.9032 139.618 91.1765 141.605C95.4498 143.592 95.6319 145.162 95.4314 144.86C95.6033 144.841 96.6774 147.534 95.4314 148.765C92.7902 150.582 85.7854 149.7 79.6275 152.02C73.4696 154.341 73.0433 157.269 77.1961 161.133C81.3488 164.997 83.8824 166.992 89.3529 168.945C94.8235 170.898 99.6863 172.199 105.157 168.945C110.627 165.69 111.235 164.388 116.706 163.086C122.176 161.784 128.255 159.832 132.51 157.879C136.765 155.926 143.451 152.02 143.451 152.02C143.451 152.02 149.529 148.766 150.745 144.209C151.961 139.652 151.703 139.037 152.569 136.397C153.434 133.758 154.034 132.404 155.608 130.539C155.608 130.539 157.263 128.547 158.647 128.586C159.397 128.607 160.323 128.449 160.471 129.237C160.575 129.794 159.863 130.539 159.863 130.539C159.113 130.707 158.711 130.719 158.039 130.539C157.645 130.352 155.855 129.067 153.784 127.284C151.713 125.502 148.314 124.68 145.882 126.633C143.451 128.586 143.451 128.586 143.451 128.586C143.451 128.586 140.412 131.19 136.157 128.586C131.902 125.982 129.976 122.966 127.647 118.171C126.365 115.531 125.824 114.916 125.216 111.01C124.608 107.105 124.687 105.262 123.392 101.897C121.583 97.1965 119.189 95.341 116.098 91.482C111.398 85.6135 107.566 83.5481 102.725 77.812C98.077 72.3037 94.728 69.5622 91.7843 62.8402C90.6046 60.1462 89.3529 55.6797 89.3529 55.6797C88.6687 54.4095 88.4052 54.4153 88.1373 55.6797C87.8693 56.9442 90.2411 65.5903 93 71.3025C94.9661 75.3731 98.4706 79.7649 98.4706 79.7649C98.4706 79.7649 100.902 83.0196 101.51 84.3215C102.118 85.6234 102.014 86.1463 100.294 84.9725C96.0398 81.3997 93.8379 79.1961 89.9608 75.2082L88.1373 72.6044C87.1715 71.3392 86.8216 71.7794 86.3137 73.2554C86.9668 81.4682 87.5481 83.983 88.7451 86.9253C90.7174 92.1849 92.1908 94.6335 96.0392 97.3405C97.7989 98.2187 98.8708 98.5024 100.902 98.6424C102.884 98.6824 103.342 98.4991 101.51 97.3405C98.9012 95.8089 96.2021 93.903 92.3922 93.4348C90.7414 93.2319 88.1373 93.4348 88.1373 93.4348C85.9272 94.1756 87.5294 99.2934 87.5294 99.2934C87.6801 100.502 90.5686 107.756 92.3922 110.359C94.5906 113.049 95.9168 114.2 98.4706 115.567C100.394 116.331 103.333 116.218 103.941 116.218C104.549 116.218 105.961 115.242 103.941 114.265C101.29 113.425 99.9683 113.302 97.8627 113.614C95.3705 114.128 94.8354 114.916 94.8235 116.869C94.9384 121.065 95.7347 122.984 97.8627 125.982C100.007 128.801 101.36 129.868 103.941 131.19C105.733 131.683 106.784 131.746 108.804 131.19C110.034 130.711 110.343 130.334 109.412 129.237C107.45 128.008 106.274 127.637 103.941 127.935C101.416 128.221 100.294 128.586 99.6863 130.539C99.0784 132.492 100.888 137.156 103.333 140.954C104.725 143.086 105.814 143.608 108.196 143.558C109.844 143.138 110.664 142.628 111.843 140.954C112.638 139.684 112.783 139.068 111.843 138.35C110.24 137.688 108.971 138.005 107.588 139.652C106.784 140.699 107.17 143.637 107.588 148.115C107.736 149.666 108.196 150.718 107.588 151.369C106.98 152.02 105.765 151.369 105.765 150.067C105.765 148.766 109.412 146.813 109.412 146.813C117.262 142.686 130.352 137.975 131.294 137.699C134.487 136.906 138.973 137.085 139.804 137.699C140.635 138.314 160.564 149.924 161.078 150.067C161.761 150.529 164.055 151.028 168.98 152.02C173.273 153.057 175.666 153.976 179.922 155.926C185.668 158.895 189.036 160.822 195.118 164.388C197.73 165.848 199.323 166.43 202.412 166.992C205.735 167.286 207.598 167.253 210.922 166.992L217.608 166.341C219.549 166.247 219.431 166.992 218.824 167.643C218.216 168.294 212.137 170.247 211.529 170.247C210.922 170.247 202.722 170.91 198.765 170.247C194.138 169.361 188.233 166.928 186 166.992H184.176C183.037 167.11 182.94 167.668 183.569 168.294C184.198 168.92 192.078 176.105 192.078 176.105C192.078 176.105 192.686 176.756 192.078 178.058C191.471 179.36 178.706 178.709 176.275 177.407C173.843 176.105 170.804 172.851 170.804 171.549C170.804 170.247 171.917 169.591 173.235 169.596C174.554 169.601 176.717 172.305 176.882 173.502C177.047 174.698 177.089 174.454 176.882 175.454C176.676 176.455 174.375 177.222 172.627 178.058C168.942 179.821 164.772 178.684 162.902 178.058C161.032 177.433 156.025 172.954 155.608 170.898C155.104 169.483 155 166.992 155.608 166.341C156.216 165.69 158.039 166.341 158.039 166.341C159.963 167.956 160.046 169.206 159.863 171.549C159.365 173.586 158.21 174.244 156.216 175.454C151.913 176.262 150.129 175.387 147.098 173.502C144.747 172.115 141.972 168.69 141.627 167.643C141.283 166.596 141.622 165.218 142.235 165.039C142.901 164.833 144.059 165.039 144.667 165.69C145.275 166.341 145.882 166.992 146.49 168.945C147.098 170.898 146.49 170.898 142.843 171.549C139.196 172.2 131.294 168.945 130.686 167.643C130.078 166.341 130.686 165.039 131.902 163.737C133.118 162.435 137.98 161.134 141.627 159.181C145.275 157.228 156.824 148.766 156.824 148.766C161.561 144.914 163.992 142.541 168.373 138.35C175.251 131.46 178.614 127.09 184.784 119.473C188.843 114.082 191.619 110.325 195.118 104.501C198.986 99.9152 201.371 97.6206 206.059 94.0858C212.764 89.7035 216.679 88.4076 223.686 86.2744C231.799 84.6843 236.732 84.0763 245.569 83.0196C253.684 81.7858 258.087 80.6649 265.627 77.812C275.482 73.0353 279.986 69.5228 287.51 62.8402C296.516 53.9332 301.104 48.4082 309.392 38.7551C314.202 33.9464 316.702 31.7816 320.941 28.9908C329.791 22.5753 344.526 17.9967 346.471 17.2737C348.416 16.5508 369.241 13.606 377.471 12.7171C380.881 12.2014 382.754 11.8029 385.98 10.7642C394.342 7.00931 396.875 4.83683 403 1" stroke="black" stroke-width="0.5"/>
</svg>
