<svg width="390" height="34" viewBox="0 0 390 34" fill="none" xmlns="http://www.w3.org/2000/svg">
<path d="M71.6667 3C71.6667 1.52724 70.4728 0.333332 69 0.333332C67.5273 0.333332 66.3333 1.52724 66.3333 3C66.3333 4.47276 67.5273 5.66667 69 5.66667C70.4728 5.66667 71.6667 4.47276 71.6667 3ZM391 33C391 32.5 390.999 32.5 390.997 32.5C390.995 32.5 390.992 32.5 390.987 32.5C390.979 32.5 390.967 32.5 390.95 32.5C390.917 32.5 390.867 32.5 390.801 32.5C390.668 32.5 390.471 32.5 390.21 32.5C389.689 32.5 388.916 32.5 387.907 32.5C385.888 32.5 382.925 32.5 379.148 32.5C371.593 32.5 360.782 32.5 347.756 32.5C321.703 32.5 286.79 32.5 251.347 32.5C180.462 32.5 107.457 32.5 98.9838 32.5L98.9838 33.5C107.457 33.5 180.462 33.5 251.347 33.5C286.79 33.5 321.703 33.5 347.756 33.5C360.782 33.5 371.593 33.5 379.148 33.5C382.925 33.5 385.888 33.5 387.907 33.5C388.916 33.5 389.689 33.5 390.21 33.5C390.471 33.5 390.668 33.5 390.801 33.5C390.867 33.5 390.917 33.5 390.95 33.5C390.967 33.5 390.979 33.5 390.987 33.5C390.992 33.5 390.995 33.5 390.997 33.5C390.999 33.5 391 33.5 391 33ZM98.9838 32.5C82.3546 32.5 70.786 18.8592 69.4984 2.95964L68.5016 3.04036C69.8213 19.3359 81.7183 33.5 98.9838 33.5L98.9838 32.5Z" fill="#AEB88D"/>
</svg>
