<svg width="248" height="236" viewBox="0 0 248 236" fill="none" xmlns="http://www.w3.org/2000/svg">
<path d="M11.1842 63.5777C7.84132 61.0604 3.32339 58.5844 -0.124098 60.8528C-2.99265 62.7414 -3.35046 66.8967 -2.96201 70.404C-1.38119 84.6811 7.37229 97.124 17.0491 107.591C25.2758 116.489 34.4007 124.504 44.2131 131.487C49.1435 134.997 64.7728 148.723 70.3428 142.744C76.5576 136.073 65.217 123.091 61.6354 117.621C55.2471 107.867 48.0882 98.6393 40.2571 90.0616C31.3825 80.341 21.6425 71.4525 11.1842 63.5777Z" fill="#DEE6CE"/>
<path d="M79.7954 91.6515C82.397 81.2706 85.1416 70.8185 85.5222 60.0756C85.9022 49.3324 83.6989 38.093 77.2975 29.5027C65.9284 48.9261 60.6007 72.0854 62.2653 94.8519C62.627 99.7991 63.3629 104.771 64.8357 109.521C65.6837 112.26 68.3327 121.181 71.6751 121.613C75.8312 122.15 78.7096 95.9837 79.7954 91.6515Z" fill="#DEE6CE"/>
<path d="M59.9502 153.673C50.391 150.726 40.3461 149.952 30.4036 149.931C31.8398 149.934 37.4717 157.267 38.8314 158.514C41.8813 161.311 45.0777 163.94 48.3973 166.389C55.1455 171.369 62.4063 175.605 70.0119 179.007C75.0122 181.244 84.5174 186.827 89.8746 183.358C95.703 179.584 86.3233 170.939 83.2717 167.676C76.9379 160.905 68.6166 156.345 59.9502 153.673Z" fill="#DEE6CE"/>
<path d="M97.2402 139.485C96.6259 130.093 94.9797 120.61 96.4646 111.351C97.9936 101.813 102.756 93.1509 104.645 83.6865C105.272 80.55 105.125 76.4552 102.273 75.1161C99.1981 73.6724 96.0491 76.7739 94.2343 79.6616C86.2296 92.4014 82.3986 107.543 82.0814 122.72C81.9322 129.882 81.4069 159.413 92.5324 159.347C99.3297 159.306 97.5386 144.044 97.2402 139.485Z" fill="#AEB88D"/>
<path d="M53.7186 68.0474C49.6674 52.3775 43.0851 37.1004 32.6224 24.9049C30.7753 22.7524 28.7623 20.6626 26.2701 19.3791C23.7774 18.0952 20.708 17.7247 18.2624 19.0364C14.7978 20.8958 13.6043 25.3907 13.4239 29.4279C12.9803 39.333 16.4956 49.0144 20.5829 58.0556C26.8206 71.8532 34.5386 84.9547 43.534 97.0571C45.8598 100.187 48.2713 103.251 50.765 106.242C52.1439 107.895 56.1101 114.192 58.2741 114.393C62.8906 114.821 59.1195 98.0041 58.6991 94.8155C57.5117 85.8155 55.9926 76.8439 53.7186 68.0474Z" fill="#AEB88D"/>
<path d="M77.3787 47.596C77.4344 47.9407 77.4815 48.2866 77.5326 48.6325C78.047 53.8524 77.7411 59.1451 76.9672 64.3067C75.7931 72.1304 73.6075 79.7224 71.9367 87.4322C71.0802 91.3865 70.353 95.3816 69.9813 99.4247C69.6425 103.11 69.6189 106.824 69.8817 110.523C70.067 113.13 70.4026 115.724 70.8435 118.3C70.275 116.383 69.789 114.445 69.4597 112.468C69.0596 110.065 68.8331 107.636 68.7474 105.205C68.5721 100.269 68.9984 95.3563 69.6875 90.4869C70.3983 85.4659 71.4369 80.5109 72.5209 75.5682C73.6591 70.3776 74.8478 65.1985 75.7193 59.9475C76.4819 55.349 76.9789 50.7085 77.0965 46.0379C77.1966 46.5555 77.2945 47.074 77.3787 47.596ZM71.4403 117.736C71.1803 116.124 70.961 114.505 70.8005 112.878C70.4412 109.238 70.3298 105.577 70.5443 101.931C70.7846 97.8477 71.4151 93.8033 72.2213 89.8087C73.7919 82.0313 76.0343 74.4172 77.3918 66.5897C77.7958 64.263 78.1246 61.8957 78.3401 59.5144C78.3731 63.0619 78.2099 66.6084 77.911 70.1373C77.4723 75.3132 76.742 80.4444 75.9107 85.562C75.0294 90.9848 74.0659 96.3912 73.2299 101.822C72.4182 107.095 71.7453 112.398 71.4403 117.736ZM79.4491 56.2627C80.2089 61.4048 80.4651 66.6184 80.1906 71.7978C79.9026 77.2267 79.0569 82.5979 78.0002 87.9085C76.9383 93.2414 75.6657 98.5241 74.517 103.836C73.3741 109.118 72.2498 114.48 71.8181 119.892L71.8163 119.926C71.7883 119.775 71.764 119.623 71.7364 119.471C71.9403 116.952 72.0723 114.427 72.3346 111.911C72.6197 109.171 72.9801 106.44 73.3838 103.716C74.1961 98.237 75.1987 92.7917 76.1171 87.3322C76.9873 82.1547 77.803 76.9577 78.3363 71.7256C78.8457 66.7245 79.1028 61.6839 78.9218 56.647C78.859 54.8859 78.7375 53.1249 78.5588 51.3689C78.9052 52.9904 79.2068 54.6215 79.4491 56.2627ZM67.0132 106.538C65.9821 101.637 65.4968 96.6148 65.593 91.6161C65.6921 86.447 66.4316 81.3416 67.7001 76.3582C69.0867 70.9067 70.9993 65.6241 72.7591 60.2979C74.2028 55.9279 75.5862 51.4554 76.4241 46.892C76.4045 48.0122 76.3649 49.1318 76.2877 50.2511C76.1054 52.9015 75.7921 55.5396 75.3974 58.1627C74.599 63.462 73.4727 68.6969 72.3671 73.9311C71.3125 78.9203 70.2269 83.9035 69.4623 88.9549C68.727 93.8106 68.2919 98.7381 68.3675 103.667C68.4349 108.095 68.9582 112.54 70.0872 116.833C68.785 113.495 67.7515 110.049 67.0132 106.538ZM77.0076 148.566C76.6874 148.358 76.3645 148.154 76.0359 147.959C71.9622 145.544 67.4128 144.154 62.8014 143.433C57.7895 142.65 52.7192 142.568 47.6705 142.396C42.6101 142.224 37.5278 141.959 32.5596 140.816C30.1107 140.252 27.6975 139.479 25.3962 138.432C25.0019 138.253 24.6151 138.062 24.2317 137.865C25.8551 138.373 27.5422 138.678 29.2048 138.825C31.294 139.01 33.3894 139.001 35.4821 139.03C37.7241 139.061 39.9661 139.128 42.207 139.234C46.5776 139.44 50.9598 139.723 55.309 140.256C59.5523 140.775 63.7987 141.597 67.8223 143.15C71.1352 144.429 74.3016 146.202 77.0076 148.566ZM76.7729 149.326C73.9874 148.334 71.052 147.779 68.1405 147.483C64.2888 147.092 60.4109 147.155 56.5542 147.282C52.6466 147.41 48.7398 147.593 44.8264 147.432C40.9378 147.272 37.0198 146.775 33.2997 145.508C31.0237 144.734 28.8792 143.652 26.898 142.303C25.851 141.404 24.8369 140.466 23.8423 139.504C24.2996 139.853 24.7668 140.185 25.2377 140.498C26.9099 141.607 28.7038 142.513 30.5591 143.239C34.3473 144.722 38.348 145.475 42.3626 145.82C46.4748 146.173 50.5977 146.153 54.7159 146.139C58.8192 146.124 62.9342 146.167 67.0172 146.712C70.289 147.15 73.4977 147.927 76.5577 149.186C76.6301 149.231 76.7008 149.28 76.7729 149.326ZM82.9369 148.809C82.4403 145.611 82.45 142.391 82.8888 139.199C83.3729 135.681 84.2494 132.235 84.6512 128.702C84.8468 126.975 84.9245 125.227 84.7924 123.488C84.6664 121.832 84.3488 120.193 83.9587 118.58C83.163 115.29 82.0473 112.071 81.4827 108.727C80.2047 101.154 83.1526 93.9986 87.1318 87.8528C89.321 84.4715 91.7807 81.2804 94.1713 78.0516C96.2896 75.1906 98.4086 72.3284 100.5 69.4468C100.515 69.5416 100.582 69.6189 100.669 69.6636C100.41 70.0045 100.15 70.3446 99.8922 70.6862C98.7637 72.1846 97.6602 73.7035 96.5801 75.2386C94.4632 78.2479 92.4542 81.3399 90.6704 84.5745C87.4531 90.4059 84.9675 96.7626 84.0515 103.459C83.5946 106.8 83.5896 110.166 83.9518 113.528C84.3241 116.982 84.9846 120.4 85.3547 123.855C86.1053 130.867 85.3141 137.877 85.3068 144.892C85.3016 149.776 85.7072 154.8 87.2579 159.461C87.1557 159.311 87.0551 159.159 86.9523 159.01C86.3406 158.122 85.7118 157.248 85.0689 156.386C84.0663 153.959 83.3413 151.414 82.9369 148.809ZM99.0049 74.6572C97.4774 77.7831 95.744 80.7937 94.0455 83.8214C90.7201 89.7454 87.4443 95.9102 86.3694 102.773C85.3159 109.5 86.5765 116.3 87.1568 123.027C87.4697 126.653 87.4704 130.267 87.2889 133.893C87.1059 137.553 86.7933 141.204 86.6727 144.868C86.4922 150.352 86.738 156.158 88.5655 161.414C86.6287 156.864 85.9441 151.801 85.8003 146.881C85.6002 140.046 86.3995 133.227 85.9858 126.39C85.7775 122.943 85.1722 119.542 84.696 116.124C84.2259 112.75 83.9524 109.373 84.2129 105.977C84.7215 99.3539 86.874 92.9794 89.8231 87.137C92.967 80.908 97.0183 75.251 101.148 69.6932C100.502 71.3752 99.7993 73.0322 99.0049 74.6572ZM102.709 67.5342C102.865 67.3052 103.021 67.0761 103.179 66.8486C103.48 72.7526 100.428 78.287 98.0209 83.4176C95.1449 89.5476 92.3207 95.7235 90.3992 102.264C89.4616 105.456 88.7455 108.724 88.3511 112.042C87.9537 115.388 87.9178 118.76 88.1647 122.127C88.6687 128.985 90.2483 135.698 91.1976 142.498C92.1119 149.044 92.4882 155.81 90.8752 162.242C90.7089 162.905 90.5188 163.561 90.3196 164.214L90.2942 164.17C87.9419 158.769 87.2582 152.843 87.3221 146.97C87.4015 139.745 88.4388 132.562 88.0339 125.323C87.6571 118.585 86.2196 111.845 86.8226 105.088C87.4384 98.1849 90.4516 91.9606 93.716 86.0457C97.0003 80.0952 100.739 74.224 102.688 67.6116L102.709 67.5342ZM103.212 72.9312C102.836 76.2822 101.958 79.5433 100.857 82.7031C98.5579 89.3003 95.2216 95.4409 92.9256 102.04C91.78 105.333 90.8781 108.749 90.5533 112.25C90.2292 115.741 90.571 119.197 91.4288 122.601C93.1117 129.284 96.3838 135.621 96.6705 142.609C96.9705 149.922 94.2047 156.893 91.3517 163.397C91.1171 163.931 90.8904 164.469 90.6687 165.008L90.6593 164.988C90.6665 164.942 90.6655 164.893 90.6433 164.838C90.5879 164.705 90.5238 164.576 90.4549 164.448C92.6135 158.432 92.5212 151.688 91.8311 145.367C91.0852 138.542 89.5461 131.828 88.8026 125.003C88.4284 121.568 88.2628 118.108 88.505 114.666C88.7454 111.249 89.3572 107.878 90.2128 104.578C91.9357 97.926 94.6376 91.5805 97.5347 85.4061C98.9228 82.4469 100.425 79.5403 101.695 76.5228C102.351 74.9669 102.929 73.3659 103.324 71.7208C103.294 72.1249 103.257 72.5287 103.212 72.9312ZM56.3856 149.336C51.949 150.16 47.4276 151.066 42.8914 150.404C38.3016 149.734 33.9962 147.622 30.1995 144.908C29.7747 144.604 29.3591 144.291 28.9462 143.972C29.797 144.438 30.6688 144.859 31.5556 145.228C35.1638 146.731 39.0245 147.448 42.876 147.77C46.7973 148.097 50.7281 148.006 54.6504 147.896C58.562 147.787 62.4833 147.676 66.3948 147.965C66.9534 148.007 67.5107 148.058 68.0682 148.117C64.142 148.035 60.2331 148.622 56.3856 149.336ZM21.9279 137.482C21.858 137.414 21.7901 137.343 21.7212 137.274C24.2793 138.943 27.13 140.149 30.0352 140.999C34.8881 142.417 39.8973 142.912 44.9052 143.134C49.939 143.355 54.9851 143.353 60.004 143.906C64.5509 144.406 69.0511 145.411 73.2399 147.377C71.8006 146.964 70.3372 146.645 68.8756 146.398C64.8853 145.723 60.8422 145.587 56.8139 145.582C52.665 145.577 48.5085 145.745 44.3596 145.557C40.291 145.372 36.2217 144.849 32.3164 143.569C28.5015 142.319 24.852 140.345 21.9279 137.482ZM103.11 65.9112C103.115 65.9571 103.116 66.0031 103.12 66.0492C103.105 66.054 103.089 66.0554 103.074 66.0636C103.086 66.0122 103.099 65.9621 103.11 65.9112ZM107.619 187.713C106.339 184.078 105.841 180.222 105.877 176.351C105.925 171.136 106.834 166.004 107.488 160.855C107.828 158.181 108.101 155.491 108.147 152.789C108.193 150.104 107.987 147.428 107.57 144.772C106.737 139.467 105.167 134.309 104.278 129.014C104.234 128.751 104.199 128.486 104.158 128.222C104.375 129.188 104.616 130.148 104.874 131.096C106.211 136.008 107.974 140.816 108.935 145.825C109.794 150.305 109.974 154.879 109.807 159.42C109.64 163.97 109.155 168.493 108.701 173.015C108.412 175.894 108.141 178.783 107.982 181.678C107.831 183.506 107.763 185.34 107.836 187.18C107.839 187.245 107.845 187.31 107.848 187.374C107.851 187.652 107.852 187.93 107.858 188.207C107.777 188.043 107.699 187.878 107.619 187.713ZM104.052 175.053C103.372 169.942 103.327 164.784 103.122 159.645C103.018 157.041 102.855 154.443 102.594 151.848C102.336 149.291 102.011 146.741 101.706 144.189C101.105 139.161 100.579 134.094 100.839 129.033C100.997 125.959 101.452 122.916 102.292 119.991C102.343 119.997 102.393 119.992 102.431 119.953C102.506 119.881 102.566 119.792 102.619 119.696C102.362 121.005 102.171 122.328 102.052 123.652C101.629 128.385 101.991 133.144 102.603 137.856C103.234 142.7 104.094 147.517 104.535 152.384C104.75 154.756 104.848 157.131 104.814 159.509C104.782 161.788 104.662 164.063 104.56 166.339C104.361 170.78 104.185 175.314 104.967 179.724C105.065 180.278 105.178 180.829 105.304 181.377C105.328 181.485 105.444 181.511 105.513 181.47C105.566 181.892 105.612 182.316 105.68 182.736C104.917 180.232 104.397 177.648 104.052 175.053ZM103.198 126.986C103.883 132.317 105.437 137.48 106.465 142.746C106.988 145.424 107.382 148.128 107.455 150.856C107.527 153.586 107.322 156.312 107.017 159.017C106.425 164.289 105.43 169.515 105.248 174.835C105.185 176.682 105.223 178.553 105.394 180.411C104.669 176.306 104.677 172.13 104.859 167.983C105.059 163.449 105.396 158.921 105.144 154.374C104.876 149.536 104.115 144.736 103.48 139.934C102.858 135.238 102.367 130.497 102.611 125.764C102.661 124.803 102.744 123.841 102.859 122.884C102.904 124.255 103.023 125.626 103.198 126.986ZM104.487 125.802C105.764 130.849 107.474 135.769 108.894 140.774C110.308 145.759 111.388 150.872 111.346 156.07C111.305 161.329 110.342 166.502 109.426 171.646C109.208 172.874 108.991 174.108 108.79 175.346C108.816 175.084 108.841 174.822 108.868 174.56C109.325 170.05 109.866 165.547 110.124 161.016C110.379 156.554 110.367 152.042 109.712 147.602C108.978 142.621 107.336 137.859 105.94 133.042C105.034 129.915 104.242 126.692 103.921 123.436C104.1 124.231 104.289 125.021 104.487 125.802ZM88.6644 181.814C88.8328 181.844 89.0005 181.878 89.1696 181.907C89.5201 182.006 89.8679 182.111 90.2132 182.228C89.6986 182.083 89.1818 181.947 88.6644 181.814ZM92.4949 184.18C92.4822 184.177 92.4692 184.174 92.4565 184.172C92.461 184.168 92.467 184.167 92.4715 184.163C92.4792 184.169 92.4872 184.174 92.4949 184.18ZM73.345 179.197C71.4794 178.846 69.6127 178.5 67.7434 178.169C62.1693 177.184 56.577 176.295 50.9593 175.654C45.3787 175.018 39.773 174.612 34.1651 174.558C28.3983 174.503 22.627 174.857 16.8603 174.53C11.8367 174.245 6.74909 173.404 2.03565 171.48C2.18151 171.506 2.32815 171.525 2.47469 171.549C2.86787 171.626 3.26261 171.693 3.6597 171.739C3.72487 171.747 3.79129 171.75 3.85622 171.757C7.44125 172.243 11.0741 172.368 14.6721 172.314C20.1903 172.23 25.6848 171.729 31.1856 171.373C36.8214 171.008 42.4628 170.844 48.1104 171.28C53.8786 171.726 59.6161 172.7 65.2314 174.182C70.8824 175.674 76.4151 177.689 81.7308 180.189C81.8659 180.252 81.9988 180.32 82.1342 180.384C79.2213 179.863 76.2876 179.479 73.345 179.197ZM77.0585 180.798C74.2553 180.938 71.4519 181.086 68.6489 181.227C63.346 181.494 58.0413 181.737 52.7304 181.825C47.4063 181.913 42.0737 181.896 36.7523 181.541C31.4261 181.186 26.093 180.561 20.8461 179.487C16.4426 178.586 12.1074 177.256 7.98928 175.386C6.84769 174.754 5.72181 174.091 4.61508 173.395C5.92841 173.891 7.25671 174.341 8.58386 174.757C12.0561 175.846 15.6045 176.657 19.1779 177.273C26.5419 178.544 34.0077 178.978 41.4504 179.125C49.077 179.277 56.7057 179.172 64.3317 179.481C68.9327 179.667 73.5376 180.01 78.1069 180.642C78.2393 180.668 78.3725 180.694 78.5048 180.72C78.0227 180.746 77.5402 180.774 77.0585 180.798ZM55.4151 182.917C49.0657 183.713 42.6776 184.343 36.2633 183.874C30.0867 183.422 23.9602 182.109 18.1001 179.988C15.6864 179.115 13.319 178.103 11.0089 176.965C13.5035 177.923 16.0686 178.688 18.6571 179.309C23.906 180.57 29.2516 181.332 34.6104 181.782C39.917 182.227 45.2422 182.398 50.559 182.375C54.3633 182.359 58.1652 182.24 61.9649 182.083C59.7804 182.353 57.5981 182.643 55.4151 182.917ZM14.4972 174.672C20.1988 175.194 25.9102 174.999 31.6191 175.003C37.3242 175.007 43.0241 175.341 48.7066 175.937C54.3266 176.525 59.9274 177.341 65.5036 178.301C66.4738 178.468 67.4419 178.643 68.4111 178.818C68.2464 178.808 68.0824 178.796 67.9177 178.787C60.2939 178.354 52.6611 178.446 45.0336 178.382C37.5099 178.319 29.9685 178.121 22.4858 177.131C15.8766 176.257 9.30246 174.757 3.06009 172.279C6.73003 173.643 10.6556 174.321 14.4972 174.672ZM73.9585 170.186C69.7716 168.472 65.4407 167.344 61.0741 166.267C56.7977 165.212 52.4897 164.112 48.4986 162.139C45.3782 160.597 42.4458 158.515 40.2146 155.772C40.115 155.602 40.0078 155.438 39.904 155.289C39.7229 155.029 39.5322 154.777 39.3354 154.531C39.4709 154.609 39.6074 154.686 39.7436 154.763C40.7253 155.85 41.9152 156.757 43.1301 157.531C44.6164 158.477 46.205 159.24 47.8376 159.868C51.19 161.157 54.6802 161.916 58.1372 162.818C61.56 163.712 64.9319 164.832 68.2305 166.142C71.5023 167.441 74.6986 168.958 77.7392 170.769C79.4607 171.794 81.1306 172.915 82.734 174.127C83.5308 174.729 84.3108 175.355 85.0698 176.007L85.1051 176.037C81.573 173.739 77.8357 171.772 73.9585 170.186ZM43.0562 156.363C44.9935 157.172 46.99 157.82 49.0005 158.397C53.1091 159.574 57.2927 160.423 61.4152 161.538C65.5713 162.664 69.6519 164.112 73.3941 166.34C77.143 168.571 80.5048 171.42 83.7797 174.326C83.7266 174.284 83.6729 174.242 83.6197 174.2C82.2158 173.098 80.7562 172.077 79.2519 171.129C76.2728 169.251 73.1315 167.644 69.9006 166.293C66.6466 164.933 63.3153 163.864 59.9331 162.92C56.4608 161.949 52.9316 161.222 49.4947 160.114C47.5973 159.504 45.7435 158.722 44.0072 157.712C42.7986 157.01 41.7019 156.181 40.666 155.261C41.4518 155.662 42.2548 156.029 43.0562 156.363ZM49.157 156.343C51.3999 156.531 53.6457 156.691 55.8722 157.051C58.1286 157.415 60.3615 157.951 62.5482 158.643C66.899 160.018 71.0755 162.023 74.902 164.581C78.747 167.151 82.256 170.269 85.2505 173.849C85.9293 174.662 86.5852 175.509 87.2395 176.363C87.2416 176.371 87.2419 176.38 87.2443 176.388C87.331 176.651 87.5369 176.854 87.7065 177.065C87.7782 177.155 87.8486 177.245 87.9202 177.335C87.2858 176.768 86.6529 176.2 86.0207 175.63C82.5572 172.51 79.0792 169.365 75.2037 166.792C73.3435 165.557 71.4018 164.463 69.3704 163.563C67.4138 162.696 65.3925 161.996 63.3504 161.386C59.2782 160.169 55.1239 159.306 51.0207 158.222C48.2713 157.496 45.5808 156.624 42.9666 155.528C45.0082 155.959 47.0851 156.169 49.157 156.343ZM66.0455 138.229C58.5824 134.662 50.88 131.606 43.6485 127.528C37.3192 123.96 31.2667 119.516 26.6729 113.716C24.3628 110.799 22.4948 107.566 21.1406 104.077C19.7509 100.496 18.8447 96.7494 17.958 93.0167C17.1637 89.6734 16.3565 86.2419 15.2309 82.9475C15.6078 83.764 15.9684 84.5896 16.293 85.4366C17.3074 88.0832 18.1074 90.8054 18.9193 93.5207C20.5747 99.0574 22.3633 104.565 25.741 109.297C29.3298 114.325 34.1773 118.252 39.292 121.517C44.7482 125 50.5888 127.734 56.3114 130.697C62.4005 133.849 68.4817 137.277 73.5683 142.022C73.675 142.121 73.7787 142.225 73.8847 142.325C73.1601 141.882 72.4177 141.47 71.6707 141.068C69.8192 140.072 67.9394 139.134 66.0455 138.229ZM14.1761 80.1484C13.7803 79.1975 13.3477 78.2652 12.8711 77.3559C16.3275 81.4556 18.7982 86.3518 21.0647 91.2837C22.605 94.6349 24.1058 98.012 25.9096 101.229C27.7029 104.427 29.8442 107.383 32.3191 110.063C37.2705 115.425 43.2285 119.637 49.2731 123.568C55.1294 127.377 61.1328 130.967 66.6607 135.288C68.6571 136.849 70.584 138.519 72.4043 140.298C68.3233 136.883 63.737 134.138 59.0654 131.671C53.2743 128.612 47.3079 125.909 41.6657 122.55C36.3565 119.388 31.2501 115.632 27.306 110.737C25.4309 108.411 23.8731 105.852 22.6498 103.109C21.4971 100.522 20.6044 97.8243 19.7631 95.1203C18.1862 90.0507 16.8001 84.7897 14.1761 80.1484ZM12.985 76.3189C13.0972 76.4171 13.2061 76.5197 13.3176 76.6191C13.507 76.8378 13.6965 77.0565 13.8817 77.2797C14.7817 78.3683 15.6423 79.4907 16.4696 80.638C18.148 82.9658 19.6909 85.3929 21.1922 87.8429C24.209 92.7646 27.0855 97.8139 30.544 102.432C32.2678 104.733 34.1447 106.915 36.2241 108.885C38.5962 111.132 41.1912 113.111 43.8579 114.967C49.1876 118.677 54.7796 121.978 59.8025 126.144C62.256 128.179 64.5519 130.392 66.7334 132.731C68.6402 134.776 70.4781 136.942 72.1034 139.24C71.2376 138.402 70.3503 137.588 69.44 136.806C64.1146 132.228 58.2043 128.491 52.3406 124.713C46.22 120.771 40.0802 116.71 34.819 111.571C32.1945 109.007 29.8232 106.167 27.8561 103.04C25.8472 99.8467 24.2465 96.4135 22.6762 92.9818C20.0097 87.1533 17.3075 81.0711 12.985 76.3189ZM20.9881 84.861C24.9227 89.7204 28.5465 94.8547 32.7873 99.4468C34.9651 101.804 37.3019 103.982 39.8446 105.915C42.6498 108.048 45.6165 109.936 48.5397 111.888C51.4238 113.814 54.2648 115.82 56.8518 118.161C59.2825 120.36 61.4929 122.805 63.529 125.391C67.2962 130.177 70.4891 135.415 73.5605 140.691C73.3525 140.476 73.14 140.265 72.9282 140.052C69.7602 135.484 66.1208 131.265 62.0234 127.554C57.1915 123.178 51.7079 119.797 46.338 116.197C43.6145 114.371 40.9272 112.474 38.422 110.336C36.1094 108.361 34.0049 106.163 32.1011 103.771C28.5026 99.2518 25.6314 94.2218 22.6662 89.2628C20.7197 86.0072 18.7248 82.7565 16.4853 79.6996C18.0568 81.3478 19.5486 83.0831 20.9881 84.861ZM42.3892 84.6961C38.872 76.4396 36.1521 67.8646 32.9623 59.4783C34.4327 62.7314 35.9074 65.9824 37.4131 69.2192C39.7283 74.1967 42.096 79.1461 44.6138 84.0222C47.1218 88.8801 49.7641 93.6676 52.5915 98.3394C55.4275 103.026 58.4639 107.585 61.7595 111.946C62.1639 112.481 62.5718 113.013 62.9835 113.542C63.0184 113.587 63.0595 113.614 63.1023 113.632C63.1208 113.697 63.139 113.761 63.1584 113.826C53.4177 106.657 47.1173 95.7974 42.3892 84.6961ZM25.4249 42.0139C26.7262 43.9431 27.9901 45.8986 29.2025 47.8859C32.1894 52.7808 34.9535 57.8143 37.6059 62.9051C40.2548 67.9881 42.8027 73.1249 45.3539 78.2589C48.1028 83.7897 50.868 89.3115 53.6197 94.8402C56.2687 100.16 58.9366 105.471 61.6031 110.781C58.9476 107.233 56.4448 103.564 54.0795 99.808C51.1568 95.1678 48.4501 90.3898 45.8896 85.5318C43.3317 80.6788 40.9312 75.744 38.566 70.7904C36.2007 65.8384 33.9372 60.834 31.6763 55.832C29.5941 51.2246 27.5152 46.6168 25.4249 42.0139ZM25.0239 42.1706C25.0599 42.1883 25.0976 42.1975 25.1359 42.195C25.2525 42.4514 25.3657 42.708 25.4832 42.9641C25.3334 42.6974 25.1761 42.4356 25.0239 42.1706ZM24.5564 41.3614C24.5647 41.3634 24.5727 41.3685 24.5804 41.3701C24.6147 41.4404 24.6496 41.5111 24.684 41.5814C24.6412 41.5082 24.5996 41.4341 24.5564 41.3614ZM23.651 38.1752C23.6489 38.1707 23.6472 38.1656 23.6451 38.1611C23.8476 38.3359 24.0492 38.5109 24.2511 38.6853C27.1085 41.8824 29.7641 45.255 32.2366 48.7845C35.4165 53.3238 38.2971 58.0818 40.9569 62.9578C43.6725 67.936 46.1808 73.0304 48.6074 78.1601C51.1251 83.4846 53.5481 88.8587 55.8631 94.2781C57.8282 98.8779 59.7094 103.517 61.5342 108.177C61.9119 109.526 62.2988 110.874 62.6934 112.219C62.5912 112.086 62.4877 111.954 62.3864 111.821C59.9174 106.765 57.4521 101.707 54.9649 96.6615C52.235 91.1249 49.5192 85.5804 46.7862 80.0451C44.2026 74.8147 41.6391 69.5728 38.9694 64.3879C36.3634 59.3253 33.6618 54.311 30.756 49.4211C28.6147 45.8186 26.3684 42.2873 23.9777 38.857C23.8706 38.629 23.7603 38.4022 23.651 38.1752ZM43.3504 60.3987C46.7527 65.7139 49.6735 71.3483 52.054 77.214C54.4904 83.2155 56.3701 89.4292 58.1066 95.6694C58.9793 98.8055 59.8225 101.95 60.682 105.09C59.5124 102.065 58.3088 99.0546 57.0644 96.0598C54.7744 90.5503 52.3842 85.0862 49.869 79.6792C47.4696 74.5217 44.9873 69.4004 42.3163 64.382C39.693 59.4527 36.899 54.6104 33.801 49.9751C31.5437 46.5986 29.112 43.3397 26.4928 40.2493C32.9124 46.1931 38.5957 52.9687 43.3504 60.3987ZM75.7326 40.2527C75.7675 40.3827 75.7996 40.5133 75.8345 40.6433C75.675 40.726 75.5612 40.9038 75.6419 41.1274C75.9089 41.8686 76.1574 42.616 76.4011 43.3651C76.4078 43.5824 76.4167 43.8001 76.4216 44.0178C76.0864 46.1241 75.6787 48.2162 75.162 50.2825C74.4716 53.0417 73.6251 55.7497 72.7456 58.4483C71.0042 63.79 69.0547 69.0607 67.5569 74.4876C66.1641 79.5349 65.2421 84.691 65.0139 89.9539C64.7979 94.9481 65.1435 99.9759 66.0459 104.903C66.9518 109.848 68.4081 114.696 70.406 119.303C70.6515 119.87 70.906 120.432 71.167 120.991C71.2147 121.092 71.2906 121.148 71.3742 121.171C72.106 124.769 73.0405 128.328 74.1039 131.834C76.0057 138.104 78.2901 144.28 80.763 150.349C80.2476 149.391 79.6885 148.46 79.0962 147.555C78.7944 146.868 78.3855 146.227 77.903 145.638C76.0557 142.444 74.2881 139.204 72.6423 135.898C69.7211 130.029 67.2245 123.968 65.1852 117.726C63.1693 111.558 61.5261 105.276 59.8247 99.0143C58.126 92.7617 56.3685 86.5131 54.1297 80.431C51.972 74.5719 49.3228 68.9129 46.1791 63.5346C39.9741 52.9168 31.9037 43.4091 22.4769 35.6858C22.519 35.6016 22.518 35.4928 22.4261 35.4041C21.2085 34.224 19.8661 33.1788 18.568 32.0925C18.3266 31.8902 17.9604 32.212 18.1169 32.4684C17.865 32.5238 17.6685 32.8141 17.8794 33.0686C25.8442 42.6944 30.4503 54.5249 34.6516 66.2223C38.848 77.9078 42.8426 89.8242 49.649 100.267C53.377 105.987 57.9553 111.135 63.5048 115.026L63.5245 115.035C65.3898 121.086 67.5914 127.007 70.2619 132.742C71.8038 136.053 73.4737 139.299 75.2322 142.496C75.0803 142.323 74.9208 142.157 74.7666 141.987C71.8951 136.796 68.922 131.652 65.4198 126.876C63.5047 124.264 61.435 121.769 59.1657 119.474C56.737 117.018 54.0634 114.871 51.2578 112.894C48.3557 110.85 45.3534 108.964 42.4596 106.907C39.7506 104.982 37.1795 102.884 34.8299 100.506C30.4088 96.0306 26.7193 90.8745 22.8177 85.9356C19.7263 82.0227 16.4548 78.1725 12.6411 74.988C12.6015 74.9456 12.5596 74.9058 12.5196 74.864C12.5132 74.8495 12.5089 74.834 12.4981 74.8201C11.502 73.548 10.2522 72.4446 8.85176 71.6458C8.64777 71.4373 8.44722 71.2268 8.2318 71.0272C8.10647 70.9111 7.92558 71.0237 7.89616 71.1631C7.79554 71.1177 7.69672 71.0679 7.59462 71.0264C7.19422 70.8615 6.97133 71.3667 7.24142 71.6502C7.33721 71.751 7.43003 71.8556 7.52514 71.9575C7.48908 72.0975 7.5183 72.248 7.65945 72.3355C7.83567 72.445 8.00755 72.5606 8.18172 72.6736C8.98956 73.5796 9.76557 74.5241 10.4974 75.4867C10.9914 76.1371 11.4622 76.8073 11.8944 77.5031C12.3423 78.2246 12.7188 78.988 13.1633 79.7099C13.2112 79.7879 13.2753 79.8192 13.3405 79.8232C13.4331 80.0357 13.5308 80.245 13.6188 80.4602C15.0138 83.8575 15.9599 87.4168 16.8175 90.984C17.6947 94.6306 18.5029 98.3029 19.6712 101.87C20.8103 105.346 22.3411 108.657 24.38 111.681C28.4397 117.701 34.0997 122.419 40.1404 126.197C46.9263 130.442 54.2885 133.537 61.5236 136.832C65.2814 138.544 69.0227 140.316 72.6376 142.338C73.6002 142.877 74.6158 143.5 75.5511 144.231C76.3548 145.672 77.2096 147.083 78.1073 148.465C75.7141 146.245 72.9309 144.491 69.9807 143.16C66.0498 141.387 61.8441 140.38 57.6208 139.758C53.2759 139.119 48.8844 138.834 44.5087 138.62C42.2778 138.512 40.0462 138.44 37.8139 138.394C35.6568 138.35 33.4982 138.374 31.3412 138.303C29.2714 138.234 27.1939 138.047 25.1748 137.527C23.6421 137.131 22.1544 136.521 20.7483 135.759C20.1679 135.352 19.5966 134.928 19.037 134.481C18.754 134.256 18.478 134.022 18.2059 133.783C18.033 133.606 17.8626 133.428 17.6887 133.252C17.6433 133.206 17.5895 133.195 17.5378 133.204C17.3643 133.149 17.1577 133.388 17.3046 133.551C17.4193 133.677 17.537 133.8 17.6546 133.922L17.6634 134.009C17.9209 134.271 18.1899 134.516 18.4641 134.754C19.8048 136.25 21.1842 137.713 22.5964 139.136C24.3989 140.952 26.2742 142.693 28.2748 144.275C31.941 147.174 36.0793 149.539 40.5812 150.665C45.058 151.783 49.5842 151.296 54.0497 150.53C58.5635 149.755 63.0836 148.863 67.691 148.926C72.3057 148.988 77.0863 150.034 80.9435 152.814C81.0906 152.92 81.2352 153.026 81.3805 153.132C81.5492 153.359 81.7164 153.586 81.8878 153.811C81.9845 153.937 82.0815 154.062 82.1786 154.188C82.3659 154.483 82.5504 154.78 82.739 155.075L82.7701 155.148L82.8338 155.223C83.826 156.77 84.836 158.303 85.8536 159.831C86.7018 161.407 87.6705 162.913 88.7621 164.32C89.042 164.681 89.3321 165.034 89.627 165.381C89.9409 165.835 90.2526 166.289 90.568 166.742C96.167 174.771 102.012 182.639 108.132 190.267C108.158 190.314 108.183 190.36 108.21 190.406C104.494 187.883 100.496 185.858 96.3391 184.258C95.5472 183.69 94.7775 183.079 94.009 182.481C93.0833 181.763 92.1748 181.019 91.2776 180.263C90.9901 180.022 90.706 179.776 90.4211 179.531C90.2427 179.318 90.0701 179.098 89.8952 178.882C89.8568 178.826 89.8218 178.769 89.7834 178.714C89.4566 178.245 89.1186 177.785 88.7698 177.333C88.5839 177.094 88.3968 176.855 88.2033 176.621C88.0623 176.452 87.9298 176.275 87.7601 176.142C87.3413 175.594 86.9222 175.047 86.4957 174.505C83.6279 170.867 80.2729 167.647 76.5474 164.956C72.8274 162.269 68.7579 160.099 64.484 158.536C62.3413 157.753 60.1474 157.124 57.9216 156.663C55.7096 156.204 53.4766 155.944 51.2325 155.752C47.929 155.47 44.4987 155.285 41.2847 154.327C41.2841 154.326 41.2829 154.326 41.2824 154.325C40.7792 154.069 40.2764 153.812 39.7739 153.556C38.7679 153.042 37.7626 152.529 36.7566 152.016C36.5347 151.902 36.3393 152.136 36.3705 152.342C36.3666 152.351 36.3599 152.36 36.3573 152.371C36.2503 152.501 36.2265 152.717 36.3838 152.844C36.4609 152.907 36.5421 152.964 36.6214 153.023C36.7551 153.186 36.9165 153.33 37.0625 153.484C37.3554 153.794 37.648 154.099 37.953 154.394C38.2568 154.688 38.5554 154.989 38.8593 155.283C39.1737 155.589 39.5158 155.857 39.8308 156.163L39.8521 156.176C39.9855 156.343 40.1272 156.502 40.2664 156.664C40.2625 156.668 40.2578 156.667 40.2547 156.672C40.2116 156.746 40.3059 156.827 40.3561 156.77C42.0939 158.77 44.2475 160.413 46.4877 161.719C50.2528 163.916 54.411 165.194 58.5737 166.276C62.9942 167.427 67.4466 168.416 71.748 170.015C75.9952 171.594 80.0929 173.622 83.9529 176.05C86.0744 177.384 88.116 178.838 90.0844 180.392C90.1806 180.546 90.2775 180.699 90.3719 180.853C89.9456 180.676 89.5063 180.531 89.0504 180.442C88.1442 180.265 87.2154 180.283 86.2995 180.293C86.0451 180.297 85.7887 180.306 85.5314 180.316C85.359 180.283 85.1886 180.243 85.0155 180.213C84.9123 180.195 84.8484 180.257 84.8303 180.336C84.3904 180.342 83.9522 180.328 83.5213 180.264C78.3822 177.723 73.0392 175.641 67.5582 174.06C61.9651 172.446 56.2455 171.33 50.4761 170.753C44.8066 170.186 39.1344 170.201 33.464 170.542C27.956 170.873 22.4644 171.427 16.9485 171.645C13.1406 171.795 9.3136 171.766 5.51206 171.404C5.48931 171.361 5.45453 171.323 5.40443 171.297C5.14269 171.162 4.88551 171.178 4.59967 171.162C4.31359 171.146 4.02749 171.121 3.74215 171.09C3.17218 171.026 2.60462 170.933 2.04314 170.809C1.29102 170.644 0.552887 170.416 -0.169705 170.143C-0.234554 170.097 -0.300086 170.052 -0.364594 170.005C-0.439917 169.95 -0.518358 169.952 -0.580732 169.985C-0.805048 169.893 -1.02834 169.8 -1.24959 169.699C-1.49669 169.586 -1.66682 169.817 -1.63404 170.028C-1.66024 170.046 -1.68665 170.067 -1.71258 170.094C-1.77507 170.158 -1.78515 170.287 -1.74976 170.368L-1.70371 170.442C-1.73416 170.55 -1.68916 170.689 -1.55152 170.725C-1.37118 170.772 -1.18882 170.808 -1.00769 170.852C-0.0244774 171.39 0.985735 171.877 2.01186 172.33C6.21321 175.323 10.806 177.775 15.5338 179.696C21.2707 182.027 27.3028 183.595 33.4138 184.306C39.741 185.042 46.0829 184.743 52.3815 184.048C58.7639 183.344 65.1147 182.316 71.5335 181.947C77.673 181.596 83.9514 181.835 89.9329 183.537C90.5639 183.717 91.1924 183.912 91.8195 184.109C91.746 184.189 91.7416 184.347 91.8668 184.386C92.5008 184.583 93.1134 184.846 93.7473 185.044C94.3665 185.239 94.9823 185.443 95.5952 185.658C96.8391 186.093 98.0732 186.559 99.2917 187.067C101.73 188.083 104.11 189.249 106.409 190.57C107.7 191.313 108.927 192.162 110.209 192.919C110.241 192.938 110.273 192.947 110.305 192.951C112.142 195.201 113.999 197.432 115.889 199.635C117.019 200.953 118.164 202.257 119.318 203.555C119.486 203.744 119.799 203.517 119.632 203.317C116.588 199.683 113.581 196.02 110.616 192.322C110.623 192.222 110.589 192.119 110.484 192.039C110.407 191.98 110.327 191.924 110.249 191.865C109.583 191.032 108.92 190.197 108.258 189.36L108.217 189.255C108.273 189.228 108.316 189.17 108.313 189.088C108.12 183.855 108.838 178.687 109.754 173.568C110.67 168.455 111.72 163.336 111.985 158.123C112.115 155.577 112.031 153.024 111.71 150.491C111.388 147.946 110.851 145.433 110.212 142.95C108.93 137.962 107.2 133.107 105.848 128.139C105.316 126.179 104.832 124.195 104.468 122.192C104.514 122.149 104.541 122.083 104.522 122.006C104.297 121.127 104.163 120.22 104.095 119.306C104.168 119.286 104.229 119.226 104.22 119.124C104.137 118.197 104.163 117.268 104.274 116.348C104.324 116.199 104.374 116.049 104.426 115.9L104.372 115.871L104.34 115.849C104.349 115.783 104.361 115.716 104.372 115.649C104.386 115.611 104.394 115.572 104.397 115.531C104.457 115.36 104.51 115.185 104.56 115.012C104.586 114.921 104.574 114.835 104.54 114.755C104.555 114.686 104.566 114.616 104.582 114.547C104.644 114.288 104.715 114.03 104.794 113.776C104.866 113.543 105.002 113.302 104.892 113.062C104.874 113.022 104.844 112.988 104.809 112.959C104.763 112.613 104.274 112.451 104.106 112.842C103.709 113.766 103.357 114.71 103.04 115.668C103.004 115.749 102.962 115.829 102.937 115.914C102.927 115.946 102.931 115.979 102.928 116.012C102.893 116.12 102.857 116.227 102.824 116.335C102.724 116.656 102.638 116.981 102.547 117.304C101.342 120.34 100.657 123.61 100.344 126.871C99.8597 131.92 100.234 137.006 100.783 142.045C101.348 147.237 102.059 152.407 102.317 157.624C102.577 162.894 102.555 168.18 103.105 173.436C103.593 178.101 104.543 182.782 106.47 187.076C102.176 181.582 97.9907 176 93.9647 170.286C92.9856 168.898 92.0133 167.501 91.0445 166.101C91.1051 166.047 91.1374 165.965 91.0923 165.876C91.0488 165.792 91.0105 165.706 90.9673 165.621C92.5583 162.544 93.9172 159.286 95.0669 156.008C96.2495 152.634 97.1423 149.122 97.3776 145.521C97.6057 142.032 97.1154 138.609 96.1969 135.239C95.2826 131.886 94.0308 128.642 93.0012 125.327C91.9502 121.942 91.1724 118.468 91.2001 114.91C91.2285 111.314 91.9464 107.773 93.0049 104.371C95.1129 97.6 98.5116 91.3912 101.008 84.7849C103.323 78.6572 105.037 71.9209 103.902 65.277C103.764 64.4666 103.559 63.704 103.269 62.9351C103.144 62.6017 102.63 62.7119 102.657 63.0593C102.587 63.0806 102.524 63.1234 102.491 63.2054C102.389 63.4586 102.463 63.7254 102.482 63.9913C102.503 64.2675 102.506 64.5434 102.49 64.8195C102.466 65.2559 102.401 65.6881 102.297 66.1103C99.9497 69.1725 97.6388 72.2646 95.3413 75.3658C92.8904 78.6738 90.3836 81.946 88.0318 85.3304C83.8465 91.352 80.1551 98.3419 80.5172 106.028C80.6769 109.426 81.6295 112.705 82.5231 115.968C83.452 119.36 84.2365 122.774 84.0873 126.31C83.9347 129.918 83.0904 133.431 82.4768 136.968C81.9077 140.244 81.6323 143.536 81.9405 146.87C82.1747 149.407 82.7059 151.924 83.5041 154.352C83.3016 154.096 83.0995 153.84 82.8942 153.587C82.8894 153.536 82.8701 153.483 82.8252 153.431C82.6791 153.264 82.5257 153.109 82.368 152.958C82.3094 152.888 82.2495 152.818 82.1905 152.748C79.8336 146.639 77.4636 140.531 75.4803 134.284C74.15 130.094 72.9935 125.838 72.1221 121.527C72.4359 118.957 72.7671 116.387 73.1887 113.834C73.6333 111.143 74.1558 108.467 74.7231 105.802C75.8641 100.441 77.1709 95.1215 78.3001 89.7579C79.4189 84.439 80.3663 79.0657 80.7832 73.6254C81.1842 68.385 81.0672 63.0967 80.4186 57.8673C79.8933 53.6368 79.0203 49.4458 77.8227 45.3528C77.7759 45.1113 77.7325 44.8695 77.6809 44.6282C77.5252 43.9005 77.306 43.1795 77.0928 42.463C77.0885 42.3627 77.0861 42.2618 77.0818 42.1614L77.0813 42.1596L77.0891 42.0843C77.0988 41.9695 77.0232 41.9013 76.9391 41.884L76.9095 41.7557C76.7605 41.1579 76.5997 40.5656 76.4204 39.9768C76.2753 39.5001 75.6084 39.7874 75.7326 40.2527Z" fill="#383838"/>
<path d="M159.726 134.735C159.69 131.729 158.889 127.989 156.029 127.384C153.865 126.926 151.845 128.631 150.286 130.273C137.709 143.526 129.878 161.302 128.159 179.562C127.868 182.659 126.392 190.252 128.796 192.612C132.151 195.905 136.523 190.143 138.721 187.826C144.974 181.234 150.021 173.454 153.602 165.046C157.669 155.496 159.849 145.104 159.726 134.735Z" fill="#DEE6CE"/>
<path d="M171.788 173.633C182.821 169.63 193.58 164.352 202.591 156.641C211.602 148.93 218.797 138.605 221.42 126.932C222.316 122.943 222.54 118.345 219.997 115.25C218.024 112.85 214.731 111.909 211.651 112.163C205.145 112.7 199.884 117.731 195.285 122.542C187.311 130.885 179.561 139.51 172.785 148.912C169.363 153.66 166.19 158.602 163.417 163.772C161.848 166.698 155.571 176.393 156.617 179.628C157.619 182.724 160.432 178.874 162.109 177.831C165.109 175.966 168.505 174.824 171.788 173.633Z" fill="#AEB88D"/>
<path d="M192.734 196.692C194.746 196.179 196.793 195.6 198.507 194.39C200.221 193.181 201.567 191.21 201.515 189.096C201.462 186.904 199.915 185 198.036 183.977C196.158 182.953 193.983 182.659 191.854 182.448C176.406 180.92 160.295 183.171 146.077 190.016C143.33 191.338 137.599 193.451 135.79 196.053C133.471 199.389 137.495 199.704 140.448 200.077C148.653 201.113 156.986 201.352 165.262 200.901C174.508 200.399 183.722 198.994 192.734 196.692Z" fill="#DEE6CE"/>
<path d="M211.802 187.815C211.603 187.822 211.403 187.829 211.204 187.836C207.938 187.941 204.673 188.092 201.411 188.318C194.899 188.771 188.391 189.551 181.988 190.941C175.619 192.324 169.416 194.406 163.152 196.22C156.925 198.022 150.626 199.486 144.171 199.876C141.029 200.066 137.876 200.036 134.745 199.798C133.142 199.676 131.556 199.479 129.975 199.24C130.75 199.23 131.523 199.189 132.286 199.092C132.558 199.058 132.828 199.014 133.098 198.969C137.076 198.99 141.061 198.631 145.009 198.045C150.819 197.184 156.559 195.727 162.231 194.154C168.203 192.499 174.143 190.708 180.165 189.261C185.921 187.878 191.754 186.815 197.649 186.478C202.996 186.173 208.398 186.47 213.603 187.698C213.002 187.723 212.402 187.766 211.802 187.815ZM134.566 200.443C136.913 200.637 139.27 200.702 141.615 200.65C148.038 200.506 154.344 199.347 160.564 197.655C166.873 195.939 173.079 193.818 179.435 192.296C185.869 190.755 192.421 189.886 198.987 189.358C200.713 189.22 202.44 189.115 204.167 189.026C203.775 189.117 203.383 189.209 202.994 189.306C196.697 190.87 190.66 193.324 184.56 195.55C178.54 197.747 172.472 199.711 166.18 200.829C160.201 201.892 154.123 202.303 148.079 202.065C143.532 201.887 139.018 201.328 134.566 200.443ZM201.784 190.83C195.013 193.386 188.635 196.928 181.907 199.597C175.869 201.993 169.543 203.555 163.131 204.273C156.81 204.981 150.412 204.867 144.141 203.954C138.359 203.112 132.76 201.535 127.335 199.409C128.732 199.699 130.142 199.93 131.558 200.116C136.172 201.286 140.888 202.03 145.647 202.357C151.625 202.768 157.654 202.542 163.608 201.683C169.855 200.782 175.935 199.101 181.906 196.98C188.118 194.773 194.256 192.31 200.614 190.588C202.578 190.056 204.571 189.593 206.579 189.234C204.959 189.697 203.357 190.236 201.784 190.83ZM140.47 196.638C142.756 195.911 145.03 195.143 147.302 194.381C152.446 192.656 157.585 190.91 162.789 189.395C167.973 187.886 173.224 186.61 178.549 185.806C183.838 185.008 189.177 184.68 194.508 184.792C197.933 184.865 201.352 185.128 204.746 185.57C203.165 185.493 201.583 185.479 200.006 185.524C194.168 185.692 188.37 186.643 182.663 187.96C176.63 189.353 170.688 191.145 164.73 192.852C158.968 194.502 153.191 196.106 147.307 197.195C143.202 197.955 139.075 198.469 134.929 198.596C136.83 198.135 138.683 197.457 140.47 196.638ZM143.055 195.35C148.453 193.118 153.575 190.227 158.901 187.822C161.947 186.445 165.062 185.253 168.282 184.407C171.356 183.599 174.494 183.072 177.647 182.791C184.118 182.213 190.623 182.622 197.016 183.588C198.733 183.847 200.442 184.146 202.144 184.472C200.313 184.294 198.474 184.165 196.632 184.095C191.31 183.893 185.966 184.155 180.67 184.85C175.298 185.554 170.006 186.771 164.783 188.271C159.553 189.774 154.401 191.545 149.243 193.296C147.142 194.009 145.041 194.719 142.936 195.417C142.976 195.395 143.015 195.372 143.055 195.35ZM158.447 186.511C164.072 183.924 170.087 182.308 176.173 181.53C182.623 180.706 189.115 180.875 195.52 181.771C201.485 182.604 207.34 184.089 213.044 186.008C208.679 184.934 204.294 183.943 199.86 183.186C193.402 182.083 186.822 181.504 180.253 181.872C173.901 182.227 167.642 183.511 161.692 185.926C156.964 187.844 152.472 190.305 147.883 192.544C151.345 190.42 154.76 188.206 158.447 186.511ZM133.697 183.439C134.301 181.248 135.091 179.152 136.192 177.163C137.282 175.195 138.572 173.353 139.874 171.527C142.472 167.885 145.137 164.224 146.46 159.875C147.131 157.668 147.522 155.392 148.104 153.162C148.69 150.918 149.552 148.823 150.711 146.819C152.023 144.553 153.582 142.417 154.952 140.179C154.6 141.105 154.25 142.032 153.898 142.959C153.16 144.902 152.407 146.839 151.67 148.782C150.198 152.669 148.701 156.546 147.21 160.426C145.72 164.305 144.234 168.187 142.683 172.042C141.161 175.829 139.485 179.555 137.195 182.936C135.419 185.559 133.233 187.981 131.677 190.764C132.515 188.381 133.032 185.851 133.697 183.439ZM155.634 140.253C154.923 142.592 154.203 144.928 153.468 147.259C152.015 151.876 150.507 156.477 148.881 161.037C147.268 165.561 145.58 170.058 143.702 174.478C142.085 178.282 140.267 182.021 138.015 185.485C135.993 188.594 133.585 191.384 130.724 193.691C131.973 190.062 134.523 187.162 136.77 184.134C139.166 180.903 140.937 177.285 142.477 173.569C144.056 169.761 145.495 165.891 147.003 162.055C148.524 158.185 150.027 154.307 151.55 150.438C152.402 148.27 153.243 146.099 154.085 143.928C154.506 142.842 154.929 141.758 155.352 140.672C155.573 140.105 155.805 139.538 156.023 138.967C155.893 139.396 155.765 139.825 155.634 140.253ZM154.792 146.885C153.92 151.61 153.076 156.342 151.981 161.022C150.874 165.75 149.5 170.421 147.628 174.905C145.852 179.159 143.549 183.213 140.547 186.696C138.54 189.025 136.244 191.113 133.694 192.793C132.667 193.309 131.64 193.826 130.611 194.341C133.265 192.418 135.535 189.985 137.47 187.3C139.904 183.924 141.82 180.193 143.526 176.393C145.465 172.077 147.204 167.664 148.841 163.222C150.546 158.597 152.094 153.912 153.584 149.212C154.253 147.102 154.905 144.986 155.548 142.867C155.29 144.205 155.039 145.545 154.792 146.885ZM130.137 194.164C130.205 194.049 130.267 193.931 130.332 193.814C130.31 193.884 130.284 193.953 130.263 194.023C130.258 194.038 130.26 194.052 130.258 194.066C130.218 194.098 130.179 194.132 130.137 194.164ZM167.366 157.331C168.432 153.156 169.602 148.976 171.383 145.043C173.2 141.03 175.74 137.472 178.792 134.345C178.908 134.226 179.027 134.112 179.144 133.995C177.623 136.056 176.308 138.275 175.182 140.583C173.236 144.572 171.828 148.781 170.536 153.023C169.25 157.249 168.077 161.512 166.625 165.687C165.904 167.758 165.113 169.807 164.215 171.807C163.31 173.822 162.261 175.758 161.171 177.674C160.921 178.114 160.639 178.532 160.352 178.947C160.17 179.027 159.984 179.096 159.795 179.157C161.586 176.3 162.905 173.116 163.957 169.933C165.323 165.797 166.29 161.547 167.366 157.331ZM182.921 130.532C184.327 129.344 185.777 128.207 187.245 127.099C187.47 126.955 187.693 126.807 187.923 126.67C187.85 126.765 187.776 126.859 187.706 126.958C187.445 127.327 187.19 127.701 186.94 128.08C186.155 128.917 185.406 129.793 184.689 130.68C183.44 132.229 182.28 133.853 181.199 135.529C179.017 138.916 177.156 142.507 175.498 146.186C173.745 150.076 172.23 154.072 170.754 158.076C169.252 162.149 167.8 166.241 166.193 170.274C165.517 171.971 164.86 173.701 163.956 175.291C163.18 176.657 162.176 177.982 160.79 178.737C160.757 178.755 160.722 178.769 160.688 178.786C161.835 177.115 162.901 175.413 163.804 173.587C164.756 171.662 165.586 169.679 166.337 167.665C167.872 163.548 169.064 159.318 170.336 155.116C171.615 150.896 172.977 146.686 174.778 142.658C176.351 139.14 178.303 135.771 180.777 132.827C181.454 132.022 182.172 131.259 182.921 130.532ZM188.061 127.765C187.396 128.908 186.818 130.106 186.295 131.312C185.296 133.615 184.52 136.008 183.832 138.421C182.442 143.3 181.405 148.291 179.654 153.061C179.177 154.361 178.647 155.642 178.037 156.885C177.412 158.157 176.701 159.386 176.039 160.638C176.033 160.65 176.032 160.661 176.029 160.673C175.864 160.954 175.701 161.237 175.534 161.517C172.731 166.238 169.662 170.826 165.834 174.747C166.369 173.801 166.878 172.836 167.385 171.883C168.29 170.186 169.165 168.472 170.025 166.752C171.723 163.353 173.344 159.915 174.894 156.445C176.455 152.951 177.932 149.421 179.35 145.867C180.709 142.467 182.038 139.05 183.594 135.736C184.469 133.873 185.404 132.039 186.456 130.272C186.964 129.419 187.498 128.582 188.061 127.765ZM183.403 149.413C186.246 144.787 189.445 140.398 193.018 136.331C196.36 132.528 200.005 129.007 203.899 125.804C200.57 129.145 197.653 132.894 194.989 136.803C191.756 141.547 188.874 146.522 185.881 151.422C183.073 156.02 180.183 160.593 176.808 164.784C173.823 168.49 170.481 171.923 166.656 174.71C167.853 173.49 168.966 172.175 170.023 170.843C171.764 168.648 173.339 166.323 174.826 163.945C177.807 159.175 180.459 154.204 183.403 149.413ZM215.257 118.021C215.257 118.021 215.258 118.021 215.259 118.02C212.743 120.454 210.51 123.246 208.452 126.048C205.663 129.842 203.169 133.85 200.733 137.884C195.838 145.988 191.088 154.309 184.597 161.226C179.149 167.032 172.757 171.768 166.036 175.888C165.95 175.914 165.866 175.942 165.78 175.966C165.751 175.975 165.722 175.982 165.694 175.99C165.52 176.036 165.347 176.082 165.172 176.127C165.192 176.11 165.21 176.092 165.229 176.075C166.992 174.96 168.64 173.605 170.199 172.227C172.104 170.543 173.888 168.722 175.558 166.795C178.999 162.825 182.018 158.48 184.819 154.022C187.875 149.161 190.742 144.177 193.884 139.37C196.761 134.969 199.887 130.72 203.534 126.948C206.976 123.39 210.872 120.25 215.257 118.021ZM215.323 119.51C213.184 122.879 211.643 126.637 210.364 130.425C208.55 135.799 207.215 141.325 205.313 146.669C203.44 151.931 200.998 157.042 197.187 161.15C193.393 165.239 188.623 168.242 183.602 170.453C178.993 172.482 174.156 173.866 169.299 175.091C172.186 174.072 174.991 172.797 177.671 171.292C181.936 168.898 185.898 165.921 189.431 162.488C193.075 158.946 196.195 154.858 198.74 150.431C201.656 145.36 203.955 139.945 206.414 134.64C208.852 129.377 211.522 124.144 215.202 119.653C215.242 119.605 215.283 119.558 215.323 119.51ZM199.667 147.871C197.216 152.525 194.265 156.854 190.681 160.675C187.278 164.303 183.432 167.465 179.224 170.05C175.935 172.07 172.46 173.709 168.853 174.979C173.604 171.922 178.149 168.531 182.272 164.617C189.168 158.07 194.296 150.063 199.213 141.935C203.367 135.068 207.479 128.042 212.713 121.964C210.523 125.109 208.704 128.527 207.049 131.988C204.531 137.256 202.39 142.704 199.667 147.871ZM170.09 165.259C169.142 167.201 168.166 169.129 167.182 171.052C166.697 171.997 166.22 172.945 165.727 173.885C165.474 174.37 165.221 174.856 164.972 175.344C164.937 175.355 164.903 175.372 164.872 175.4C164.627 175.618 164.386 175.839 164.145 176.06C164.802 174.978 165.33 173.801 165.787 172.7C167.458 168.674 168.94 164.571 170.42 160.471C171.899 156.371 173.386 152.273 175.081 148.258C176.671 144.49 178.445 140.795 180.541 137.287C182.132 134.625 183.916 132.072 185.918 129.714C185.081 131.109 184.31 132.544 183.594 134.006C181.971 137.318 180.616 140.757 179.269 144.191C176.468 151.33 173.452 158.37 170.09 165.259ZM159.452 179.705C159.48 179.662 159.506 179.618 159.534 179.575C159.541 179.599 159.548 179.623 159.561 179.644C159.524 179.664 159.489 179.685 159.452 179.705ZM221.238 188.374C221.246 188.323 221.247 188.27 221.241 188.218C221.371 188.083 221.291 187.784 221.069 187.769C220.621 187.738 220.172 187.716 219.722 187.699C219.321 187.595 218.92 187.493 218.518 187.39C218.504 187.261 218.433 187.138 218.284 187.079C211.857 184.528 205.141 182.613 198.319 181.467C191.868 180.382 185.262 180.036 178.718 180.624C172.659 181.168 166.655 182.51 160.955 184.777C158.002 185.951 155.17 187.396 152.422 189.018C149.476 190.758 146.612 192.648 143.624 194.314C143.011 194.655 142.382 194.984 141.746 195.303C137.388 197.045 132.784 198.329 128.13 198.432C128.01 198.421 127.889 198.417 127.769 198.406C127.728 198.402 127.7 198.416 127.676 198.436C127.191 198.438 126.706 198.427 126.221 198.402C126.125 198.384 126.031 198.372 125.937 198.352C125.455 198.25 124.978 198.128 124.503 197.996C125.9 197.333 127.29 196.65 128.675 195.96C128.786 195.976 128.906 195.947 128.995 195.837C129.009 195.818 129.022 195.799 129.037 195.781C129.276 195.662 129.516 195.543 129.755 195.424C131.007 194.983 132.206 194.353 133.349 193.638C141.525 189.619 149.775 185.721 157.813 181.407C157.92 181.481 158.057 181.505 158.185 181.429C159.016 180.937 159.833 180.42 160.628 179.871C162.394 178.89 164.152 177.885 165.885 176.836C168.397 176.29 170.897 175.612 173.371 174.92C176.246 174.115 179.093 173.199 181.875 172.088C187.033 170.026 192.003 167.229 196.109 163.36C200.18 159.524 203.002 154.696 205.043 149.482C207.134 144.142 208.462 138.542 210.144 133.069C211.798 127.69 213.827 122.467 217.041 117.832C217.396 117.32 217.768 116.821 218.152 116.332C218.162 116.322 218.172 116.313 218.182 116.303C218.221 116.265 218.249 116.224 218.267 116.183C218.273 116.176 218.279 116.168 218.285 116.16C218.305 116.134 218.314 116.106 218.318 116.078C218.714 115.862 219.111 115.646 219.509 115.433C219.95 115.197 219.608 114.508 219.164 114.736C214.438 117.158 209.939 120.095 205.712 123.352C201.488 126.608 197.533 130.235 193.908 134.181C190.288 138.121 186.994 142.373 184.091 146.89C182.811 148.882 181.608 150.921 180.43 152.975C181.104 151.077 181.673 149.142 182.189 147.196C183.488 142.306 184.515 137.319 186.345 132.589C186.844 131.297 187.406 130.03 188.051 128.806C188.648 127.674 189.328 126.588 190.025 125.516C190.109 125.472 190.192 125.425 190.277 125.383C190.548 125.247 190.39 124.901 190.141 124.909C190.159 124.895 190.177 124.882 190.195 124.868C190.392 124.712 190.163 124.366 189.95 124.502C189.19 124.987 188.448 125.502 187.713 126.03C185.806 127.103 184.065 128.52 182.506 130.077C181.501 130.921 180.516 131.791 179.567 132.699C176.419 135.714 173.65 139.142 171.626 143.047C169.638 146.882 168.314 151.02 167.192 155.182C166.052 159.411 165.104 163.692 163.825 167.883C162.574 171.982 160.981 176.02 158.599 179.591C158.391 179.905 158.172 180.211 157.953 180.517C151.08 184.241 144.03 187.623 137.048 191.11C136.872 191.198 136.697 191.287 136.521 191.375C137.664 190.453 138.749 189.455 139.764 188.385C142.856 185.128 145.333 181.302 147.302 177.249C149.453 172.82 150.964 168.117 152.17 163.348C153.365 158.625 154.264 153.836 155.15 149.048C156.033 144.282 156.902 139.508 158.039 134.793C158.184 134.195 158.328 133.598 158.457 132.996C158.552 132.553 157.926 132.34 157.791 132.791C157.739 132.963 157.697 133.139 157.647 133.311C157.572 133.312 157.499 133.351 157.466 133.455C157.12 134.534 156.743 135.602 156.26 136.627C155.783 137.639 155.232 138.612 154.647 139.563C153.472 141.473 152.174 143.301 150.983 145.201C149.788 147.108 148.724 149.099 148.022 151.249C147.307 153.441 146.903 155.717 146.343 157.95C145.783 160.184 144.995 162.308 143.883 164.325C142.809 166.274 141.536 168.1 140.249 169.906C137.663 173.533 135.03 177.15 133.626 181.446C132.248 185.66 131.795 190.314 129.411 194.136C129.176 194.513 128.917 194.873 128.647 195.225C128.644 195.227 128.64 195.23 128.637 195.232C128.596 195.259 128.576 195.296 128.564 195.334C128.553 195.348 128.543 195.363 128.532 195.376C126.869 196.203 125.205 197.026 123.533 197.83C123.421 197.884 123.307 197.936 123.194 197.99C123.139 197.978 123.083 197.968 123.028 197.956C122.879 197.922 122.784 198.06 122.801 198.176C119.01 199.969 115.092 201.578 110.979 202.317C109.853 202.52 108.719 202.661 107.581 202.733C107.38 202.746 107.358 203.062 107.565 203.058C111.925 202.994 116.144 201.663 120.165 199.96C121.281 199.488 122.388 198.991 123.489 198.478C123.51 198.483 123.53 198.485 123.55 198.489C123.974 198.61 124.402 198.714 124.83 198.824C130.123 201.292 135.754 203.019 141.494 204.064C147.751 205.203 154.157 205.546 160.52 205.074C166.857 204.603 173.157 203.336 179.204 201.255C186.047 198.901 192.449 195.412 199.134 192.642C203.62 190.783 208.342 189.242 213.152 188.676C214.595 188.629 216.039 188.576 217.483 188.52C217.876 188.545 218.268 188.565 218.66 188.604C219.397 188.676 220.132 188.772 220.863 188.89C221.183 188.943 221.313 188.629 221.238 188.374Z" fill="#383838"/>
</svg>
