<svg width="157" height="193" viewBox="0 0 157 193" fill="none" xmlns="http://www.w3.org/2000/svg">
<path d="M75.7309 50.6688C64.6326 53.3897 52.7009 56.6537 42.0911 52.4083C36.4105 50.1355 31.1599 44.0408 33.4481 38.3661C35.1047 34.259 39.8644 32.4481 44.1906 31.5026C59.8565 28.0796 76.6114 30.4335 90.9357 37.5539C93.5433 38.8509 107.59 45.4076 101.885 49.1455C100.541 50.0261 91.8465 48.1128 89.6454 48.2632C84.9459 48.5826 80.2968 49.5495 75.7309 50.6688Z" fill="#DEE5CE"/>
<path d="M134.583 41.8076C136.262 39.1758 138.323 36.6727 141.08 35.2077C143.835 33.7431 147.406 33.5024 149.991 35.2526C153.426 37.5789 154.027 42.34 153.996 46.4884C153.943 53.4361 148.611 95.9679 135.299 86.6171C129.741 82.7138 128.471 70.6137 128.363 64.4748C128.223 56.5348 130.302 48.5207 134.583 41.8076Z" fill="#DEE5CE"/>
<path d="M91.5961 101.225C87.3515 101.613 82.2564 101.237 80.0583 97.5854C78.8599 95.5938 78.8859 93.0645 79.5188 90.8288C81.0855 85.3004 86.1046 81.1662 91.6552 79.683C98.1629 77.9434 117.337 79.616 117.885 88.8831C118.492 99.1114 98.2935 100.614 91.5961 101.225Z" fill="#DEE5CE"/>
<path d="M100.704 115.099C98.8408 113.026 97.0024 110.815 96.1635 108.157C95.3238 105.499 95.703 102.275 97.7774 100.414C100.633 97.8507 105.112 98.8571 108.684 100.257C124.311 106.383 138.297 117.543 147.563 131.57C150.304 135.719 152.606 143.728 145.599 145.562C139.534 147.15 128.897 138.545 124.124 135.354C115.521 129.604 107.625 122.794 100.704 115.099Z" fill="#DEE5CE"/>
<path d="M169.098 67.1496C170.396 65.4189 171.815 63.6972 173.715 62.6611C175.613 61.6239 178.11 61.413 179.869 62.6729C183.165 65.0357 181.816 70.1522 180.136 73.843C175.723 83.5387 171.311 93.2343 166.899 102.93C165.186 106.693 160.692 123.877 154.354 117.009C149.892 112.174 154.867 97.5478 156.534 92.0531C159.247 83.109 163.492 74.6327 169.098 67.1496Z" fill="#AEB88D"/>
<path d="M89.8585 7.52489C90.0071 5.49155 90.4257 3.1825 92.1647 2.11892C94.0045 0.992908 96.4169 1.83717 98.2223 3.0188C102.595 5.88 105.573 10.5093 107.378 15.4125C109.182 20.3166 109.921 25.5372 110.648 30.7119C111.313 35.4507 111.979 40.1887 112.645 44.9276C113.05 47.8096 115.233 54.1566 113.6 56.9005C110.28 62.4848 103.272 50.9461 101.029 47.6743C93.0354 36.0083 88.8311 21.6744 89.8585 7.52489Z" fill="#AEB88D"/>
<path d="M169.451 94.324C170.713 90.4648 171.471 86.4372 171.736 82.3868C171.87 80.3351 171.871 78.272 171.748 76.2199C171.707 75.5259 171.64 74.8357 171.564 74.148C171.653 76.3512 171.562 78.5642 171.322 80.7494C170.923 84.3974 170.142 88.0032 169.124 91.526C168.071 95.1745 166.752 98.7394 165.327 102.257C164.55 104.176 163.743 106.082 162.93 107.985C163.328 107.286 163.725 106.586 164.117 105.883C166.185 102.171 168.126 98.3733 169.451 94.324ZM163.685 78.6808C161.641 82.0667 160.017 85.7043 158.769 89.4545C157.483 93.3213 156.596 97.3096 156.009 101.34C155.385 105.619 155.096 109.94 155.003 114.261C154.996 114.615 154.999 114.967 154.995 115.32C155.563 110.159 156.361 105.02 157.495 99.952C158.68 94.6547 160.224 89.4324 162.217 84.3804C163.221 81.8324 164.341 79.3291 165.585 76.8893C166.206 75.6708 166.852 74.4579 167.538 73.2689C166.12 74.9716 164.831 76.7824 163.685 78.6808ZM155.048 122.785C155.059 123.408 155.068 124.03 155.079 124.652C155.168 124.323 155.262 123.994 155.361 123.667C155.482 120.318 155.844 116.968 156.271 113.648C156.755 109.879 157.421 106.133 158.238 102.422C159.059 98.6924 160.044 94.9995 161.182 91.355C162.309 87.7477 163.59 84.1898 165.008 80.6873C165.822 78.6761 166.693 76.6874 167.603 74.7157C166.144 77.3543 164.816 80.0626 163.647 82.8456C161.543 87.8601 159.902 93.0622 158.632 98.3483C157.356 103.656 156.459 109.049 155.826 114.47C155.503 117.236 155.25 120.008 155.048 122.785ZM171.001 70.0999C170.979 70.2458 170.952 70.3917 170.929 70.5373C171.516 73.7055 171.358 77.0088 170.853 80.1725C170.258 83.8971 169.135 87.5291 167.841 91.0646C166.469 94.8154 164.923 98.4998 163.518 102.238C162.108 105.99 160.78 109.773 159.535 113.583C159.404 113.982 159.278 114.383 159.15 114.783C159.7 113.732 160.267 112.692 160.846 111.658C161.993 109.016 163.157 106.382 164.279 103.729C165.785 100.162 167.198 96.553 168.366 92.8592C169.468 89.3714 170.358 85.8088 170.864 82.1838C171.374 78.5397 171.484 74.8803 171.129 71.2177C171.093 70.8443 171.047 70.4714 171.001 70.0999ZM157.621 117.873C157.937 116.869 158.252 115.865 158.579 114.865C159.803 111.126 161.107 107.412 162.493 103.73C163.887 100.031 165.413 96.3852 166.85 92.7041C168.255 89.1075 169.545 85.4572 170.303 81.6632C170.986 78.2451 171.252 74.7113 170.813 71.2423C169.953 76.4585 168.602 81.6028 167.116 86.6655C165.434 92.3919 163.531 98.0489 161.707 103.731C160.166 108.528 158.69 113.347 157.455 118.232C157.509 118.113 157.565 117.993 157.621 117.873ZM168.206 74.3067C167.394 76.0144 166.619 77.7394 165.881 79.4801C164.395 82.9826 163.066 86.5489 161.896 90.1686C160.733 93.7675 159.723 97.4155 158.869 101.1C158.014 104.786 157.322 108.504 156.774 112.248C156.266 115.717 155.913 119.203 155.674 122.7C155.913 121.993 156.171 121.294 156.446 120.601C157.642 115.671 159.043 110.803 160.577 105.966C162.396 100.222 164.339 94.5175 166.095 88.7539C167.836 83.0369 169.398 77.2522 170.457 71.3664C170.53 70.9596 170.603 70.554 170.677 70.1475C170.668 70.0768 170.657 70.0055 170.648 69.9348C170.494 70.0808 170.341 70.2262 170.191 70.3752C169.51 71.6756 168.838 72.9799 168.206 74.3067ZM152.68 143.068L152.722 143.132C152.718 143.11 152.712 143.089 152.708 143.068C152.699 143.067 152.689 143.071 152.68 143.068ZM152.809 143.568C152.795 143.495 152.779 143.423 152.765 143.351C152.758 143.369 152.75 143.387 152.738 143.402C152.761 143.457 152.786 143.512 152.809 143.568ZM143.722 130.182C140.269 126.194 136.197 122.739 131.809 119.823C127.378 116.877 122.612 114.465 117.682 112.475C115.729 111.686 113.74 110.94 111.783 110.127C111.511 110.044 111.24 109.957 110.97 109.865C112.89 110.896 114.802 111.939 116.704 113.005C120.254 114.996 123.773 117.043 127.195 119.25C130.42 121.329 133.572 123.528 136.597 125.889C139.525 128.175 142.326 130.62 144.946 133.254C146.442 134.758 147.887 136.323 149.254 137.951C147.666 135.191 145.805 132.585 143.722 130.182ZM105.902 107.401C107.975 109.366 110.248 111.115 112.635 112.689C116.008 114.915 119.574 116.827 123.133 118.733C126.73 120.66 130.323 122.618 133.725 124.877C137.194 127.181 140.47 129.775 143.514 132.617C143.856 132.936 144.195 133.259 144.531 133.585C142.258 131.3 139.856 129.141 137.357 127.105C134.388 124.687 131.283 122.442 128.09 120.33C124.725 118.103 121.274 115.997 117.779 113.981C114.92 112.331 112.016 110.76 109.133 109.153C108.011 108.657 106.932 108.066 105.902 107.401ZM103.741 106.092C104.68 107.236 105.604 108.394 106.58 109.506C108.168 111.317 109.836 113.058 111.574 114.725C115.029 118.043 118.764 121.068 122.726 123.759C126.78 126.512 131.072 128.835 135.508 130.91C139.962 132.994 144.602 135.047 148.259 138.421C148.431 138.58 148.597 138.747 148.766 138.912C148.652 138.779 148.54 138.645 148.427 138.513C147.065 136.926 145.633 135.398 144.141 133.932C141.159 131.004 137.928 128.336 134.49 125.958C131.137 123.638 127.574 121.649 123.997 119.7C120.446 117.765 116.88 115.831 113.48 113.637C110.36 111.624 107.349 109.358 104.798 106.644C104.652 106.538 104.501 106.437 104.357 106.328C104.162 106.178 103.969 106.025 103.778 105.868C103.661 105.785 103.543 105.703 103.427 105.617C103.53 105.776 103.637 105.933 103.741 106.092ZM110.693 115.417C110.747 115.481 110.803 115.545 110.858 115.61C112.649 117.314 114.483 118.974 116.357 120.586C119.111 122.953 121.95 125.22 124.845 127.413C127.748 129.611 130.712 131.725 133.713 133.786C136.733 135.858 139.786 137.883 142.859 139.875C144.654 141.039 146.458 142.189 148.263 143.337C149.189 143.789 150.091 144.282 150.926 144.88C151.217 145.088 151.494 145.32 151.764 145.561C151.868 145.627 151.971 145.693 152.075 145.759C152.342 145.928 152.599 146.104 152.854 146.286C151.988 143.796 150.452 141.54 148.571 139.664C145.104 136.206 140.595 134.086 136.21 132.047C133.971 131.005 131.736 129.957 129.562 128.783C127.463 127.65 125.413 126.426 123.418 125.117C119.447 122.513 115.691 119.585 112.204 116.36C110.938 115.19 109.71 113.98 108.517 112.735C109.227 113.641 109.952 114.536 110.693 115.417ZM120.665 125.695C124.211 128.87 127.98 131.803 131.933 134.454C135.88 137.102 140.018 139.468 144.303 141.524C144.698 141.714 145.098 141.896 145.5 142.076C144.911 141.695 144.319 141.317 143.731 140.935C140.671 138.951 137.626 136.941 134.62 134.876C131.621 132.814 128.66 130.695 125.751 128.508C122.835 126.316 119.977 124.045 117.201 121.677C115.564 120.281 113.961 118.846 112.39 117.376C114.985 120.305 117.75 123.085 120.665 125.695ZM153.022 146.802C153.003 146.8 152.982 146.795 152.962 146.785C152.923 146.764 152.885 146.742 152.847 146.721C152.935 146.835 153.026 146.944 153.107 147.061C153.083 146.974 153.049 146.889 153.022 146.802ZM154.142 151.265C154.141 151.272 154.139 151.28 154.137 151.288C154.144 151.308 154.149 151.328 154.155 151.349C154.151 151.321 154.147 151.293 154.142 151.265ZM139.941 67.0391C141.594 63.6103 143.35 60.2161 144.622 56.6213C145.824 53.2209 146.454 49.6864 146.419 46.0779C146.403 44.325 146.25 42.5765 145.994 40.8421C146.042 45.5733 144.475 50.311 142.777 54.6748C141.527 57.8903 140.21 61.0775 139.145 64.3626C138.107 67.5682 137.317 70.8315 136.657 74.1346C136.53 74.7693 136.418 75.4041 136.309 76.0397C137.216 72.927 138.535 69.9557 139.941 67.0391ZM144.792 34.9524C144.394 35.2205 144.003 35.4982 143.618 35.783C142.728 36.5487 141.867 37.3446 141.059 38.2009C139.877 39.4522 138.791 40.7939 137.804 42.204C135.736 45.1642 134.123 48.4337 132.965 51.8523C131.741 55.4682 130.985 59.2226 130.613 63.0185C130.264 66.5865 130.103 70.2799 130.813 73.8151C131.152 75.5042 131.747 77.0946 132.48 78.6252C131.326 74.1587 131.063 69.4905 131.537 64.9069C132.071 59.746 133.546 54.7165 135.653 49.9848C136.769 47.4812 138.061 45.0578 139.486 42.717C140.904 40.3852 142.428 38.0885 144.148 35.9664C144.373 35.6888 144.6 35.4167 144.833 35.1482C144.82 35.0833 144.805 35.0181 144.792 34.9524ZM131.107 52.5769C129.808 56.1628 129.113 59.9663 129.054 63.7798C129.004 67.011 129.392 70.2501 130.191 73.3812C129.682 70.4542 129.745 67.4306 129.995 64.4833C130.325 60.6113 131.036 56.7565 132.219 53.0519C133.332 49.5604 134.877 46.198 136.868 43.1185C138.019 41.3406 139.323 39.6638 140.771 38.1218C139.343 39.4222 138.018 40.8347 136.816 42.3505C134.38 45.4227 132.443 48.8891 131.107 52.5769ZM145.36 37.4294C145.321 39.9775 144.646 42.5052 143.804 44.8947C142.728 47.9524 141.345 50.8912 140.211 53.9262C137.867 60.1928 136.338 66.7821 135.598 73.4282C135.389 75.2983 135.232 77.1739 135.143 79.0537C135.142 79.1063 135.141 79.1592 135.139 79.2118C135.335 77.9218 135.561 76.6381 135.809 75.3625C136.448 72.0728 137.329 68.8361 138.331 65.6398C139.342 62.4118 140.586 59.2769 141.854 56.1431C143.108 53.0406 144.312 49.8889 145.029 46.6129C145.626 43.8884 145.867 41.059 145.543 38.2841C145.485 37.9986 145.423 37.7137 145.36 37.4294ZM133.305 81.4488C133.336 81.499 133.365 81.5489 133.395 81.5996C133.37 81.5331 133.348 81.4656 133.325 81.3983C133.2 81.1865 133.08 80.9734 132.959 80.7592C133.074 80.9897 133.186 81.2213 133.305 81.4488ZM144.998 35.8969C143.738 37.7483 142.399 39.5481 141.186 41.4331C139.713 43.7206 138.361 46.0887 137.172 48.5372C134.894 53.228 133.233 58.22 132.496 63.3921C131.805 68.2526 131.914 73.264 133.087 78.0441C133.42 79.4036 133.857 80.7251 134.348 82.0259C134.376 82.0728 134.403 82.12 134.432 82.1661C134.443 81.3315 134.465 80.4971 134.5 79.6632C134.571 77.9838 134.69 76.3062 134.863 74.6343C135.205 71.3142 135.774 68.0118 136.518 64.7582C137.261 61.515 138.195 58.3176 139.322 55.1866C140.425 52.1168 141.769 49.1469 142.94 46.1026C144.178 42.8798 145.072 39.5593 145.045 36.0927C145.03 36.028 145.015 35.9618 144.998 35.8969ZM114.612 56.7354C114.102 54.9247 113.487 53.1506 112.775 51.4088C111.33 47.8761 109.554 44.4943 107.86 41.0783C106.141 37.6142 104.567 34.1001 103.302 30.443C102.015 26.72 100.997 22.906 100.112 19.0685C99.2339 15.2541 98.48 11.4088 97.813 7.55239C97.7739 7.32353 97.7384 7.09492 97.7018 6.86687C97.5106 10.4643 97.6241 14.0793 98.0645 17.6551C98.5931 21.9538 99.5603 26.1936 100.868 30.3199C102.204 34.5351 103.898 38.6294 105.842 42.5989C107.871 46.7426 110.175 50.7488 112.631 54.6525C113.414 55.8972 114.216 57.128 115.028 58.3527C115.076 58.4113 115.121 58.471 115.169 58.5296C114.952 57.9406 114.779 57.3321 114.612 56.7354ZM113.297 50.1023C113.128 49.6194 112.959 49.1367 112.789 48.6538C112.26 47.1464 111.731 45.6383 111.202 44.1309C110.143 41.1151 109.084 38.0999 108.028 35.0841C105.917 29.0517 103.83 23.0108 101.735 16.9725C101.184 15.3868 100.632 13.8022 100.084 12.2163C99.2132 10.4018 98.4484 8.54118 97.8646 6.61396C98.6465 10.255 99.3343 13.9149 100.151 17.5488C101.008 21.3609 101.984 25.1484 103.207 28.8617C104.412 32.5196 105.876 36.0628 107.565 39.5235C109.226 42.9257 111.025 46.2622 112.558 49.7263C113.029 50.7906 113.47 51.8684 113.878 52.958C113.655 52.0127 113.459 51.0607 113.297 50.1023ZM112.735 46.105C112.134 41.0445 111.724 35.9485 109.945 31.1296C108.331 26.7524 105.911 22.7407 103.588 18.7145C102.736 17.2387 101.888 15.7485 101.092 14.2321C101.27 14.7351 101.449 15.2375 101.627 15.7405C102.694 18.7526 103.769 21.762 104.848 24.7705C107.003 30.7869 109.088 36.83 111.202 42.8607C111.788 44.5321 112.374 46.2026 112.96 47.8734C112.88 47.2841 112.805 46.6947 112.735 46.105ZM95.799 17.3981C95.3174 21.6126 95.2557 25.9097 96.0748 30.0867C96.9139 34.3655 98.785 38.3123 101.208 41.9139C103.698 45.6153 106.687 48.9401 109.673 52.2405C110.347 52.9855 111.022 53.7325 111.694 54.4831C109.634 51.157 107.684 47.7635 105.924 44.2695C103.909 40.2678 102.133 36.1456 100.718 31.8928C99.3476 27.7793 98.3012 23.5467 97.7002 19.251C97.2323 15.9117 97.024 12.526 97.1637 9.15448C96.62 11.8872 96.1158 14.6254 95.799 17.3981ZM79.0078 28.4446C74.0964 25.2544 68.7721 22.4381 63.103 20.876C61.538 20.4448 59.9434 20.1157 58.3312 19.9227C56.6759 19.7241 55.0309 19.7275 53.3683 19.7059L53.3634 19.7043L53.3183 19.7162C66.6762 23.3544 79.2546 29.6257 90.5143 37.645C90.5735 37.6881 90.6322 37.7328 90.6918 37.7751C87.108 34.3042 83.1867 31.1585 79.0078 28.4446ZM90.14 36.3208C89.1264 35.1237 88.084 33.9503 87.0123 32.805C84.8706 30.5175 82.5843 28.3707 80.1076 26.4487C75.3202 22.7337 69.7802 19.905 63.765 18.8916C62.2828 18.6421 60.7809 18.5125 59.2796 18.5022C57.5942 18.748 55.9216 19.084 54.2665 19.4816C55.428 19.385 56.6159 19.4353 57.7649 19.5435C59.2179 19.68 60.6595 19.9301 62.0782 20.2707C64.9268 20.9537 67.684 21.9907 70.3429 23.2119C75.7606 25.6986 80.9018 28.8638 85.5836 32.5518C87.3763 33.9637 89.0934 35.4729 90.7427 37.0526C90.5415 36.8095 90.3445 36.5622 90.14 36.3208ZM87.8455 32.2087C85.8678 29.448 83.7467 26.768 81.2348 24.47C78.8103 22.2526 76.0315 20.4118 72.9135 19.3325C69.8628 18.277 66.6043 17.9616 63.3924 18.1C62.4403 18.141 61.491 18.2242 60.5447 18.3349C64.2099 18.5234 67.8452 19.4285 71.2422 20.8357C77.0645 23.2471 82.0896 27.1832 86.4927 31.6377C87.7362 32.8967 88.9296 34.2025 90.0867 35.5415C90.2411 35.7199 90.3942 35.8997 90.5475 36.0787C89.6511 34.7861 88.7611 33.4874 87.8455 32.2087ZM54.6 20.5086C55.6104 20.9106 56.6046 21.3594 57.6014 21.789C58.9421 22.3662 60.2805 22.9508 61.615 23.5443C64.3018 24.7388 66.9985 25.9027 69.6606 27.1533C74.9472 29.6377 80.1756 32.2451 85.3292 34.9949C85.5202 35.0973 85.7107 35.2014 85.9018 35.3038C77.1698 29.5648 67.7492 24.8702 57.8381 21.5482C56.7631 21.1875 55.6826 20.8434 54.6 20.5086ZM55.6345 21.2417C56.6318 21.915 57.5848 22.6509 58.5574 23.3574C60.49 24.759 62.5286 25.9808 64.6859 27.004C69.0115 29.0558 73.6136 30.3871 78.0934 32.044C78.6076 32.2341 79.1201 32.4293 79.6314 32.6258C79.1625 32.3808 78.6947 32.1324 78.2247 31.888C75.6329 30.5394 73.0304 29.2184 70.4003 27.9452C67.7733 26.674 65.1484 25.3878 62.497 24.1691C61.0087 23.4853 59.5049 22.8322 58.0025 22.1805C57.1349 21.8039 56.2571 21.4451 55.3857 21.0747C55.4685 21.13 55.5529 21.1858 55.6345 21.2417ZM55.3311 22.0029C56.4387 22.9787 57.5674 23.9319 58.7299 24.8431C61.0582 26.6693 63.549 28.3001 66.2625 29.4969C71.5701 31.8379 77.3816 32.5964 82.884 34.3442C82.6056 34.195 82.3288 34.0436 82.0493 33.895C80.9651 33.4076 79.857 32.9767 78.74 32.5703C76.4961 31.7543 74.2273 31.0062 71.978 30.204C67.5266 28.6177 63.0303 26.9554 59.0783 24.3126C57.9881 23.5843 56.9359 22.8015 55.8572 22.0578C55.2915 21.6686 54.7241 21.2844 54.1357 20.9309L54.1003 20.9102C54.51 21.2752 54.9186 21.6407 55.3311 22.0029ZM86.8866 41.2208C85.911 40.8668 84.9176 40.5565 83.9085 40.3335C82.447 40.0092 80.96 39.8085 79.4679 39.7023C76.4175 39.4848 73.3482 39.666 70.3199 40.0565C64.3535 40.8246 58.5428 42.4457 52.6174 43.4479C49.6062 43.9575 46.5669 44.2914 43.5125 44.2722C45.2718 44.6888 47.0349 45.0206 48.8551 45.1291C51.1343 45.2651 53.4253 45.1339 55.6894 44.8575C60.2599 44.2983 64.7201 43.1153 69.2307 42.2225C73.6397 41.3488 78.0769 40.8534 82.5724 41.1893C84.3828 41.3249 86.1823 41.5842 87.9602 41.9492C87.6092 41.6967 87.2499 41.4553 86.8866 41.2208ZM85.9991 40.672C84.3711 39.7083 82.6388 38.9186 80.841 38.3274C77.8352 37.3395 74.6566 36.8715 71.4935 36.9892C68.2016 37.1117 65.0368 37.9386 61.9543 39.0642C58.8124 40.2118 55.7694 41.6187 52.5888 42.6602C51.8058 42.9165 51.0063 43.1556 50.1965 43.3675C53.6665 42.9201 57.11 42.2022 60.5273 41.4913C66.4659 40.2543 72.5021 39.0436 78.6008 39.3863C81.0822 39.5259 83.6105 39.9096 85.9991 40.672ZM46.7938 45.607L46.8781 45.6518C48.0963 46.0765 49.3304 46.455 50.5777 46.7875C51.8474 46.9441 53.1513 46.9278 54.4367 46.8504C57.3404 46.674 60.2357 46.2815 63.1156 45.8885C65.9946 45.4953 68.867 45.0495 71.729 44.5509C74.5657 44.0568 77.3873 43.4883 80.2172 42.9563C81.7065 42.677 83.2001 42.4183 84.7138 42.309C85.1292 42.2793 85.5496 42.2594 85.9715 42.252C85.2457 42.1349 84.5176 42.0336 83.787 41.9571C79.3106 41.4892 74.8612 41.8423 70.4481 42.6606C65.9399 43.4956 61.5016 44.6958 56.9596 45.3559C53.6452 45.8374 50.1539 46.08 46.7938 45.607ZM52.9926 47.3679C53.2844 47.4308 53.5773 47.4848 53.8699 47.5425C54.2898 47.6058 54.7137 47.6457 55.1377 47.6655C56.3835 47.7237 57.637 47.6909 58.8829 47.6474C61.3522 47.5623 63.8368 47.3961 66.2891 47.0902C71.2098 46.4764 76.0717 45.4946 80.8986 44.3722C83.3209 43.8094 85.7384 43.2275 88.1596 42.6624C87.9359 42.6153 87.7132 42.5649 87.4896 42.5205C86.6682 42.4667 85.8465 42.4531 85.0171 42.5056C83.6671 42.5904 82.327 42.7964 80.9975 43.0435C78.1852 43.5665 75.3972 44.2064 72.5801 44.7105C69.6849 45.2294 66.781 45.6934 63.8679 46.1039C60.978 46.511 58.076 46.8986 55.172 47.1885C54.4223 47.2633 53.651 47.3202 52.8753 47.3371C52.9139 47.3478 52.9537 47.358 52.9926 47.3679ZM60.7636 48.4652C63.8913 48.6758 67.0409 48.6078 70.1578 48.2773C73.2907 47.9455 76.393 47.3419 79.4192 46.4654C80.9233 46.0306 82.4108 45.5318 83.8722 44.9695C85.3352 44.4051 86.7473 43.7352 88.1849 43.1139C88.4106 43.017 88.6315 42.9121 88.8536 42.8094C88.7838 42.7931 88.7137 42.7804 88.6437 42.7649C83.9593 43.9895 79.2446 45.0989 74.4942 46.0365C72.0267 46.5242 69.5467 46.952 67.0542 47.2888C64.5639 47.6244 62.0738 47.917 59.5633 48.0473C58.8682 48.084 58.17 48.1161 57.4716 48.1344C58.566 48.2752 59.663 48.3911 60.7636 48.4652ZM116.552 71.1755C115.345 69.3541 114.009 67.6125 112.472 66.0566C110.729 64.292 108.754 62.7618 106.62 61.5007C102.358 58.9808 97.5204 57.5325 92.5846 57.2073C90.0122 57.0381 87.4373 57.1832 84.9006 57.5825C86.2773 57.5284 87.6576 57.5534 89.0286 57.6688C93.2747 58.0252 97.4557 59.1673 101.317 60.9636C105.24 62.7892 108.86 65.2857 112.047 68.2062C115.263 71.1518 118.067 74.5493 120.429 78.2117C121.712 80.2016 122.821 82.3362 124.077 84.3621C123.707 83.7492 123.342 83.1331 122.99 82.5101C120.851 78.7283 118.956 74.802 116.552 71.1755ZM76.8352 59.2513C76.8366 59.2527 76.8374 59.253 76.838 59.2541C76.8495 59.2496 76.8619 59.2454 76.8745 59.2403C76.8613 59.2443 76.8481 59.2482 76.8352 59.2513ZM76.9053 59.7284C77.5229 59.7077 78.1474 59.6461 78.7649 59.662C79.3809 59.6774 79.9961 59.709 80.6114 59.7489C81.8893 59.8321 83.1653 59.9779 84.433 60.1604C86.9479 60.5234 89.4371 61.0611 91.8782 61.7663C96.7273 63.166 101.39 65.2121 105.686 67.8635C110.107 70.591 114.035 73.9787 117.687 77.6587C119.288 79.272 120.846 80.9291 122.386 82.6032C121.92 81.7914 121.459 80.9773 120.98 80.1733C118.762 76.4476 116.131 72.9654 113.086 69.8759C110.064 66.8091 106.629 64.1314 102.823 62.1066C99.0671 60.1091 94.9702 58.7535 90.7533 58.1721C87.8776 57.7752 84.96 57.7603 82.0893 58.1306C80.8378 58.425 79.5999 58.776 78.3823 59.1886C77.8861 59.3569 77.3944 59.5395 76.9053 59.7284ZM98.5655 70.4971C101.963 72.9991 105.305 75.5915 108.857 77.8762C111.899 79.8338 115.102 81.5142 118.268 83.2566C117.494 82.6577 116.722 82.0549 115.955 81.4491C113.184 79.2601 110.458 77.0152 107.679 74.8365C104.902 72.6591 102.073 70.541 99.1099 68.6237C96.1812 66.7286 93.1241 65.0198 89.922 63.6329C87.3421 62.5153 84.6549 61.643 81.9041 61.0623C83.9974 61.7414 86.0284 62.6209 87.9801 63.6368C91.7178 65.5817 95.1775 68.0039 98.5655 70.4971ZM122.762 85.3565C121.447 84.0818 120.114 82.8265 118.763 81.5912C116.103 79.1599 113.39 76.7849 110.576 74.534C107.776 72.2943 104.871 70.1798 101.822 68.2914C98.7574 66.3935 95.5506 64.7284 92.1964 63.4066C88.8124 62.0722 85.3059 61.1395 81.7096 60.6016C81.5138 60.5727 81.3178 60.5502 81.1221 60.524C80.6098 60.4774 80.0975 60.4334 79.5839 60.3991C79.6043 60.4039 79.6241 60.4104 79.6446 60.4152C82.74 60.8461 85.7649 61.6881 88.6768 62.824C91.9591 64.1051 95.0912 65.7238 98.0936 67.5641C101.084 69.3967 103.94 71.4386 106.726 73.5666C109.547 75.7205 112.304 77.9564 115.079 80.1687C117.141 81.812 119.217 83.4453 121.348 85.0002C122.29 85.553 123.222 86.1216 124.137 86.7178C123.679 86.2623 123.224 85.8057 122.762 85.3565ZM90.9551 62.6447C94.3723 63.8543 97.6619 65.4226 100.799 67.236C103.906 69.0325 106.869 71.0689 109.718 73.2493C112.584 75.4429 115.337 77.7843 118.026 80.1895C120.419 82.3289 122.746 84.5428 125.018 86.8103C124.758 86.4503 124.507 86.0844 124.265 85.7155C124.226 85.6571 124.191 85.5962 124.153 85.537C122.361 83.5896 120.559 81.6525 118.722 79.7509C115.142 76.0431 111.372 72.499 107.082 69.6187C102.925 66.8278 98.3685 64.6102 93.6097 63.054C91.1375 62.2443 88.6178 61.6316 86.0681 61.1841C87.7215 61.5855 89.353 62.0769 90.9551 62.6447ZM101.494 84.0633C96.8395 84.2802 92.2976 85.7874 88.4045 88.3409C86.5997 89.525 84.9478 90.9265 83.4867 92.5127C84.7678 92.0374 86.0685 91.617 87.367 91.1923C89.1156 90.62 90.8712 90.0683 92.6389 89.5581C96.1384 88.547 99.6903 87.6958 103.298 87.1769C106.824 86.6691 110.396 86.4892 113.949 86.7961C114.178 86.8157 114.407 86.8424 114.635 86.8663C110.587 84.8287 106.026 83.8516 101.494 84.0633ZM83.429 93.211C85.4279 93.2092 87.4206 93.0377 89.3892 92.6927C91.42 92.3367 93.4158 91.8237 95.3974 91.2613C99.328 90.1468 103.204 88.8279 107.227 88.0721C108.34 87.8627 109.462 87.6921 110.591 87.5977C110.91 87.5706 111.23 87.5584 111.55 87.5442L111.577 87.5338C111.765 87.5052 111.953 87.4757 112.141 87.4463C112.259 87.4066 112.376 87.3688 112.494 87.3338C109.844 87.209 107.185 87.3451 104.55 87.6749C100.977 88.1216 97.4562 88.9161 93.9902 89.8804C90.5053 90.8495 87.0927 92.0299 83.6538 93.1449C83.5793 93.1683 83.5045 93.1898 83.429 93.211ZM102.669 94.4281C104.892 93.553 106.86 92.2588 108.814 90.9064C109.656 90.325 110.523 89.723 111.421 89.1764C110.79 89.4958 110.164 89.8242 109.538 90.1565C107.638 91.165 105.763 92.2172 103.764 93.0205C99.828 94.6038 95.5441 95.3542 91.304 95.258C90.1177 95.2311 88.9324 95.1386 87.7566 94.975C87.5289 94.943 87.2987 94.9103 87.0682 94.8756C89.9183 95.8045 92.9526 96.1643 95.9505 95.9461C98.2518 95.778 100.522 95.2737 102.669 94.4281ZM110.219 88.2396C109.469 88.3115 108.72 88.3984 107.975 88.5159C105.95 88.8346 103.956 89.3132 101.977 89.8371C98.0339 90.8789 94.1337 92.1223 90.1153 92.851C88.0752 93.2213 85.9979 93.4614 83.9214 93.4032C85.9358 93.9706 87.9806 94.3033 90.0838 94.3271C92.3862 94.3526 94.6894 94.0486 96.9277 93.5165C101.434 92.4466 105.617 90.4818 109.759 88.46C109.911 88.3865 110.065 88.3129 110.219 88.2396ZM110.205 88.6782C108.154 89.6834 106.116 90.7065 104.009 91.5907C99.7755 93.3686 95.313 94.6572 90.6968 94.7711C90.6293 94.7729 90.561 94.7718 90.493 94.7726C90.5575 94.777 90.6226 94.7854 90.6873 94.789C92.7937 94.9073 94.912 94.8116 96.9967 94.4869C99.0784 94.163 101.127 93.6241 103.097 92.8785C105.135 92.1064 107.037 91.0645 108.924 89.9852C109.95 89.3994 110.995 88.8336 112.072 88.3488C112.277 88.2569 112.485 88.1689 112.693 88.081C112.622 88.0842 112.551 88.0933 112.478 88.0952C112.104 88.1026 111.73 88.1265 111.356 88.1488C110.967 88.3144 110.583 88.4926 110.205 88.6782ZM157.211 192.023C157.116 179.89 156.414 167.781 154.792 155.763C154.617 155.211 154.448 154.657 154.294 154.098C154.125 153.486 153.963 152.871 153.821 152.252C153.754 151.962 153.699 151.669 153.644 151.377C153.581 151.036 153.596 150.703 153.559 150.363C153.554 150.318 153.58 150.29 153.612 150.273C153.599 149.869 153.57 149.469 153.52 149.072C153.123 147.867 152.335 146.783 151.361 145.949C150.935 145.586 150.479 145.265 150.007 144.968C149.933 144.92 149.858 144.872 149.783 144.824C148.199 143.867 146.426 143.195 144.763 142.419C140.489 140.424 136.358 138.123 132.407 135.547C128.459 132.975 124.692 130.132 121.14 127.037C117.586 123.941 114.252 120.599 111.159 117.044C108.294 113.752 105.647 110.272 103.236 106.635C103.023 106.356 102.807 106.079 102.601 105.795C102.253 105.315 101.921 104.832 101.615 104.322C101.546 104.208 101.595 104.074 101.683 103.999C101.745 103.8 101.984 103.668 102.174 103.753C102.258 103.727 102.352 103.74 102.436 103.824C103.344 104.736 104.327 105.574 105.368 106.334C105.385 106.344 105.401 106.354 105.418 106.364C106.569 107.067 107.766 107.694 108.985 108.268C110.57 109.015 112.194 109.673 113.824 110.312C113.969 110.349 114.114 110.388 114.26 110.424C114.32 110.439 114.353 110.48 114.366 110.526C115.058 110.795 115.751 111.063 116.444 111.333C121.465 113.287 126.339 115.57 130.904 118.447C135.428 121.298 139.642 124.666 143.271 128.602C146.48 132.083 149.21 135.99 151.317 140.231C151.462 140.524 151.595 140.821 151.734 141.116C151.867 141.301 152.004 141.482 152.136 141.668C152.287 141.881 152.425 142.1 152.559 142.322C150.336 130.958 147.252 119.757 143.129 108.934C142.469 107.201 141.781 105.479 141.068 103.767L141.007 103.728C138.413 101.093 135.906 98.3694 133.409 95.6375C133.359 95.667 133.295 95.6736 133.243 95.6293C131.955 94.5252 130.701 93.4056 129.28 92.4691C127.877 91.5429 126.394 90.7445 124.851 90.0795C122.079 88.8829 119.139 88.1108 116.153 87.6843C116.136 87.7302 116.111 87.7741 116.072 87.8064C115.93 87.9258 115.752 87.9285 115.588 87.855C115.558 87.8407 115.538 87.8221 115.52 87.7999C114.544 88.1628 113.598 88.5949 112.691 89.1113C111.631 89.7155 110.628 90.4094 109.63 91.1087C107.641 92.5021 105.671 93.8899 103.425 94.8443C99.1222 96.672 94.2571 97.1344 89.6734 96.2533C87.109 95.7608 84.6253 94.8374 82.3779 93.5056L82.3378 93.5163C82.0244 93.6012 81.8682 93.1777 82.1506 93.0388L82.2033 92.9359C85.2029 89.3738 89.1406 86.6269 93.5046 85.0078C98.1831 83.2721 103.306 82.9127 108.19 83.9216C111.035 84.5102 113.787 85.5547 116.297 87.0187L116.368 87.0821C118.982 87.4716 121.558 88.1293 124.016 89.0999C126.657 90.1433 129.176 91.5717 131.36 93.3976C131.089 93.1015 130.819 92.8049 130.548 92.5097C129.88 91.9718 129.261 91.3723 128.677 90.7381C128.301 90.4351 127.919 90.138 127.54 89.8397C127.299 89.6506 127.053 89.4706 126.807 89.2873C126.76 89.2827 126.71 89.2665 126.662 89.2209C126.601 89.1605 126.541 89.0989 126.479 89.0393C126.049 88.7246 125.614 88.4166 125.175 88.116C124.986 87.9879 124.794 87.8659 124.605 87.7401C124.548 87.7647 124.484 87.7677 124.422 87.7265C123.814 87.3217 123.214 86.9022 122.616 86.4804C121.797 85.9862 120.969 85.5078 120.135 85.0388C116.701 83.1049 113.167 81.35 109.799 79.3001C106.228 77.1274 102.884 74.6154 99.5327 72.1241C96.1874 69.6374 92.8147 67.1703 89.1793 65.1195C85.5751 63.0853 81.708 61.4427 77.6142 60.7191C77.1049 60.6295 76.5935 60.5547 76.0805 60.4931C75.8506 60.4651 75.714 60.1697 75.8239 59.9728C75.9517 59.7433 76.0794 59.5138 76.2072 59.2843C76.2948 59.1277 76.4432 59.0826 76.5805 59.1053C77.6271 58.7397 78.6961 58.4463 79.7773 58.2137C83.3241 57.1136 87.0377 56.5367 90.7474 56.5684C95.6801 56.6106 100.58 57.7293 105.001 59.9303C109.323 62.0815 113.009 65.2223 115.875 69.0997C118.488 72.633 120.469 76.5743 122.57 80.4184C124.027 83.084 125.569 85.7129 127.4 88.1282C127.82 88.5909 128.239 89.0541 128.659 89.516C132.44 93.6654 136.237 97.801 139.968 101.996C140.196 102.253 140.421 102.514 140.647 102.773C136.024 91.8605 130.314 81.4127 123.419 71.7608C117.602 63.6172 110.978 56.038 103.638 49.2324C101.339 47.6878 98.9132 46.3418 96.3583 45.2433C94.1296 44.2848 91.8158 43.523 89.4561 42.9505L89.417 42.9863C88.0431 43.7748 86.6538 44.4787 85.1937 45.0935C83.7236 45.7134 82.2247 46.2671 80.7032 46.7438C77.6726 47.6931 74.556 48.3718 71.4072 48.778C68.2536 49.1845 65.0656 49.317 61.8896 49.1731C58.7147 49.0287 55.5525 48.6201 52.4502 47.9287C49.3637 47.2397 46.3362 46.276 43.4242 45.0421C43.0531 44.8847 42.6846 44.7227 42.3174 44.5566C42.2253 44.5156 42.175 44.4507 42.15 44.3785L42.0621 44.3417C41.8999 44.2688 41.9306 44.0452 42.0564 43.9707L41.9489 43.9495C41.7831 43.9102 41.7777 43.6282 41.9675 43.6332C42.7779 43.6532 43.5878 43.7115 44.3999 43.7009C45.1988 43.6915 45.9965 43.6296 46.7878 43.5252C48.4274 43.3103 50.0379 42.9147 51.6146 42.423C54.8316 41.4189 57.9018 40.0127 61.0433 38.8073C64.1355 37.6207 67.3126 36.6632 70.6323 36.4298C73.8115 36.2065 77.0336 36.5604 80.0929 37.4485C83.154 38.337 86.0544 39.7531 88.6168 41.6508C88.8885 41.8518 89.1536 42.0617 89.4173 42.273C91.4134 42.7556 93.3761 43.3748 95.2847 44.1349C97.3667 44.9642 99.3792 45.9595 101.297 47.11C99.0902 45.153 96.825 43.2622 94.496 41.4495C94.4492 41.4132 94.4004 41.3772 94.3528 41.3407C94.2843 41.3202 94.2183 41.2951 94.1434 41.2579C93.9853 41.1781 93.8277 41.0966 93.6707 41.0135C93.3569 40.8464 93.0499 40.6668 92.7461 40.4829C92.4463 40.3011 92.1459 40.1182 91.8604 39.9145C91.5684 39.7059 91.3177 39.4742 91.0614 39.2232C91.0129 39.1754 91.024 39.1103 91.0611 39.0693C90.7972 38.8726 90.5333 38.676 90.2612 38.4904C89.6678 38.0849 89.0504 37.7137 88.42 37.3685C87.1555 36.6779 85.8318 36.0989 84.482 35.5975C81.6779 34.5553 78.7615 33.864 75.8599 33.1555C72.8175 32.4122 69.7648 31.639 66.8613 30.449C64.1103 29.3225 61.5742 27.7575 59.2092 25.9652C57.9002 24.9725 56.6451 23.9122 55.4191 22.8192C54.7923 22.2599 54.1677 21.6969 53.5595 21.1171C53.1635 20.7383 52.7458 20.3698 52.3754 19.9626L52.3621 19.9556C52.2963 19.9186 52.2596 19.8682 52.2422 19.8149L52.2119 19.7812L52.1966 19.7607C52.083 19.6257 51.9732 19.4875 51.8757 19.3394C51.825 19.2616 51.9126 19.15 51.9994 19.1984C52.0694 19.2367 52.1328 19.2839 52.1995 19.3266C52.2372 19.2867 52.2838 19.2533 52.352 19.2352C52.7863 19.1219 53.2212 19.0124 53.6567 18.9068L53.6991 18.8748C53.8787 18.8352 54.0589 18.805 54.239 18.7693C56.8389 18.1588 59.4758 17.6932 62.1416 17.5081C65.3871 17.2835 68.7027 17.4682 71.8455 18.3504C75.0603 19.2533 77.9738 20.9108 80.5324 23.0427C83.1716 25.2419 85.4037 27.8821 87.4403 30.6363C88.4811 32.0455 89.4857 33.4841 90.4632 34.9386C90.9758 35.7025 91.4876 36.466 91.9999 37.2307C92.4323 37.8751 92.8754 38.5174 93.2875 39.1762C93.3484 39.1805 93.4076 39.2126 93.4381 39.2848C93.4857 39.3946 93.5399 39.5011 93.5985 39.6053C93.7197 39.6832 93.8398 39.7616 93.9572 39.8456C94.084 39.9372 94.066 40.0742 93.989 40.1728C94.0196 40.2112 94.048 40.2506 94.0799 40.2876C97.9824 43.2687 101.722 46.4597 105.287 49.8374C105.673 50.137 106.055 50.4419 106.43 50.7561C106.846 51.1037 107.242 51.4762 107.637 51.8482C107.721 51.928 107.68 52.0398 107.601 52.0803C110.547 54.9993 113.369 58.0419 116.059 61.1973C115.458 60.3113 114.863 59.4219 114.274 58.5286C112.936 56.9104 111.542 55.3396 110.137 53.7805C107.116 50.4325 104.046 47.1121 101.433 43.4268C98.9081 39.8653 96.8326 35.9582 95.7858 31.6989C94.7584 27.5173 94.6625 23.1809 95.0485 18.9086C95.4396 14.5785 96.3119 10.3033 97.2898 6.07254C97.3442 5.83474 97.4048 5.598 97.4636 5.36072C97.6281 5.32538 97.793 5.28838 97.9535 5.23985L97.9503 5.25529C98.2083 6.07552 98.4643 6.89604 98.7574 7.7039C98.7844 7.77586 98.8124 7.84726 98.8386 7.91896C99.2223 8.95227 99.6491 9.96847 100.114 10.9679C101.089 13.0644 102.21 15.0904 103.365 17.0917C105.683 21.1097 108.17 25.057 109.987 29.3372C110.932 31.5631 111.643 33.8587 112.129 36.2276C112.647 38.7527 112.94 41.3177 113.231 43.8769C113.523 46.4372 113.81 49.0025 114.322 51.5301C114.83 54.037 115.613 56.4732 116.641 58.8149C118.684 63.4717 121.576 67.703 124.504 71.838C124.862 72.3435 125.211 72.8472 125.539 73.3717C125.598 73.4649 125.607 73.5549 125.584 73.6327C131.953 82.8927 137.294 92.8367 141.647 103.206C141.446 101.459 141.107 99.7406 140.574 98.0551C139.915 95.9742 139.042 93.9651 138.113 91.9925C137.548 90.79 136.961 89.5945 136.378 88.3974C136.33 88.346 136.282 88.2949 136.237 88.2453C136.007 87.9983 135.794 87.736 135.603 87.4584C135.208 86.8876 134.893 86.265 134.615 85.6297C134.605 85.6072 134.597 85.5844 134.588 85.5621C134.524 85.5141 134.482 85.4425 134.487 85.3453C134.488 85.3373 134.488 85.3293 134.489 85.3221C134.227 84.6928 133.984 84.0534 133.731 83.419C133.118 82.4455 132.557 81.4371 132.052 80.4017C131.887 80.2134 131.719 80.0287 131.57 79.8293C131.506 79.7433 131.605 79.6338 131.698 79.6667C131.186 78.5514 130.734 77.4095 130.341 76.2551C129.124 72.6806 128.452 68.9175 128.373 65.1417C128.293 61.2711 128.835 57.3985 130.008 53.7082C131.214 49.9098 133.041 46.327 135.388 43.1067C137.738 39.8811 140.617 37.0314 143.888 34.7416C144.289 34.46 144.697 34.188 145.109 33.9236C145.427 33.7202 145.75 34.1112 145.596 34.3734C145.752 34.3472 145.933 34.4938 145.827 34.6581C145.686 34.8787 145.536 35.0927 145.391 35.3102C146.304 38.3135 146.824 41.4728 146.987 44.5995C147.172 48.1204 146.805 51.6323 145.806 55.0164C144.729 58.6646 143.072 62.1003 141.421 65.5149C139.873 68.7168 138.316 71.9322 137.247 75.3331C136.246 78.5249 135.652 81.8906 135.987 85.2408C136.018 85.5495 136.057 85.8577 136.093 86.1654C136.399 86.8291 136.713 87.4889 137.028 88.1482C137.138 88.2462 137.24 88.349 137.282 88.4983C137.296 88.5486 137.288 88.6057 137.271 88.6595C137.588 89.3212 137.906 89.9824 138.22 90.6441C140.054 94.5122 141.881 98.624 142.134 102.96C142.161 103.427 142.15 103.892 142.125 104.359C147.305 116.942 151.044 130.087 153.588 143.447C153.599 142.801 153.61 142.153 153.619 141.508C153.654 138.705 153.705 135.902 153.797 133.1C153.921 129.364 154.113 125.63 154.394 121.902C154.345 119.878 154.333 117.851 154.355 115.827C154.401 111.468 154.626 107.104 155.173 102.776C155.693 98.6579 156.507 94.5754 157.731 90.6069C158.91 86.7875 160.446 83.0707 162.414 79.5879C164.35 76.1599 166.702 72.9557 169.485 70.1647C169.54 70.0847 169.591 70.0003 169.647 69.9206C170.029 69.3689 170.414 68.8202 170.809 68.2773C170.995 68.0193 171.453 68.3203 171.277 68.5917L171.225 68.6711C172.213 72.6035 172.579 76.6744 172.462 80.7243C172.343 84.7961 171.735 88.8523 170.628 92.7737C169.478 96.8485 167.772 100.703 165.775 104.429C163.928 107.873 161.909 111.221 160.084 114.675C159.449 116.193 158.824 117.715 158.23 119.249C157.487 121.168 156.812 123.108 156.127 125.047C156.007 125.388 155.877 125.724 155.745 126.061C155.162 129.307 154.729 132.584 154.469 135.86C154.427 136.392 154.395 136.924 154.363 137.457C154.344 138.176 154.321 138.895 154.304 139.615C154.281 140.563 154.266 141.511 154.252 142.46C154.285 144.95 154.453 147.437 154.787 149.907C155.071 151.148 155.302 152.401 155.463 153.668C155.539 154.258 155.596 154.848 155.635 155.441C155.642 155.532 155.613 155.602 155.573 155.66C155.6 155.854 155.623 156.048 155.649 156.242C155.693 156.371 155.735 156.501 155.78 156.63C155.879 156.916 156.036 157.216 155.989 157.523C155.975 157.614 155.914 157.679 155.838 157.715C157.067 167.299 157.748 176.954 157.932 186.613C157.965 188.397 157.98 190.18 157.971 191.964C157.969 192.451 157.215 192.516 157.211 192.023Z" fill="#383838"/>
<path fill-rule="evenodd" clip-rule="evenodd" d="M157 76.9377V76.4898C154.586 77.9849 152.013 79.0684 149.381 79.452C149.097 79.4605 148.813 79.4639 148.529 79.4657C150.949 78.6717 153.22 77.0647 155.325 75.285C155.89 74.8076 156.448 74.3144 157 73.8114V73.1852C156.767 73.3984 156.534 73.6104 156.3 73.8208C153.482 76.3548 150.5 78.4732 147.192 79.4523C147.127 79.4511 147.061 79.451 146.996 79.4489C147.574 78.6208 148.142 77.7799 148.711 76.9389C149.625 75.5859 150.54 74.2326 151.496 72.9314C153.241 70.5532 155.073 68.2889 157 66.1811V64.8968C155.394 66.6194 153.853 68.4523 152.373 70.3702C150.44 72.8752 148.562 75.5048 146.889 78.3353C146.671 78.7055 146.458 79.0777 146.249 79.4557C146.224 79.4562 146.199 79.4566 146.174 79.457C146.134 79.4576 146.094 79.4582 146.054 79.4594C146.229 78.8699 146.414 78.2865 146.607 77.7075C147.156 76.3407 147.739 75.0008 148.391 73.7122C149.342 71.8275 150.4 70.0387 151.543 68.359C153.195 65.9333 155.031 63.7421 157 61.8007V61.3295C155.305 63.0112 153.703 64.8659 152.224 66.8889C150.764 68.8875 149.431 71.0532 148.257 73.3646C149.205 71.1496 150.282 69.0338 151.482 67.046C153.119 64.3324 154.973 61.8576 157 59.6774V58.5487C155.161 60.4713 153.456 62.6302 151.912 64.9891C149.316 68.953 147.187 73.4857 145.67 78.3589C145.483 78.9568 145.307 79.5609 145.139 80.1677C145.009 80.6359 145.448 80.9374 145.666 80.6629C145.673 80.871 145.849 81.06 145.984 80.8762C146.099 80.72 146.211 80.5601 146.323 80.4002C146.387 80.308 146.452 80.2159 146.517 80.1246C149.563 80.4211 152.679 80.1665 155.691 79.463C156.129 79.3607 156.566 79.2465 157 79.1204V78.2963C156.995 78.2979 156.989 78.2995 156.984 78.3011C155.311 78.7915 153.614 79.1059 151.91 79.2842C153.656 78.7738 155.354 77.9527 157 76.9377ZM157 31.7573C153.198 29.9878 149.342 28.4144 145.425 27.1593C141.248 25.8209 137.003 24.8397 132.716 24.3539C128.519 23.8781 124.284 23.8736 120.081 24.4501C116.585 24.9287 113.118 25.839 109.73 27.1358C109.786 27.1309 109.842 27.126 109.898 27.121C110.067 27.106 110.236 27.091 110.405 27.0786C114.215 26.8091 118.031 26.6547 121.844 26.6693C125.679 26.6853 129.52 26.8792 133.328 27.4461C137.069 28.0033 140.737 29 144.386 30.197C145.085 30.4264 145.784 30.6601 146.482 30.8937C149.38 31.8628 152.278 32.8323 155.227 33.4976C155.816 33.6304 156.408 33.7488 157 33.8525V35.4435C156.553 35.4338 156.105 35.436 155.656 35.4503C153.197 35.5288 150.748 35.8947 148.302 36.2599L148.144 36.2836C145.646 36.657 143.143 37.0309 140.632 37.1022C138.277 37.1697 135.945 36.9262 133.633 36.3624C130.055 35.4889 126.595 33.9961 123.141 32.5058C122.301 32.1436 121.462 31.7815 120.621 31.4285C118.48 30.5286 116.322 29.6792 114.127 29.0388C113.08 28.7328 112.025 28.481 110.963 28.2897C110.918 28.282 110.873 28.2734 110.828 28.2647C110.799 28.2592 110.771 28.2536 110.741 28.2482C109.951 28.1141 109.157 28.0266 108.362 27.9391C108.323 27.9348 108.284 27.9305 108.245 27.9262L108.231 27.9348C108.244 27.7143 108.246 27.4915 108.246 27.2698C108.293 27.2379 108.34 27.2059 108.387 27.174C108.554 27.0605 108.721 26.9472 108.889 26.8384C112.721 24.3453 116.617 21.9749 120.662 20.2071C124.654 18.4628 128.805 17.3191 132.997 17.4179C137.268 17.5191 141.412 19.0454 145.318 21.2503C149.007 23.3333 152.485 25.9952 155.956 28.6523C156.287 28.906 156.618 29.1596 156.95 29.4127C156.967 29.4254 156.983 29.4382 157 29.451V30.499C156.462 30.0892 155.925 29.6781 155.388 29.267C151.638 26.3927 147.863 23.5229 143.831 21.4032C139.907 19.3409 135.767 18.0889 131.52 18.2604C127.374 18.428 123.293 19.7627 119.376 21.6132C116.799 22.8304 114.293 24.2786 111.8 25.7758C114.983 24.6112 118.251 23.8897 121.527 23.5155C125.742 23.033 129.987 23.1414 134.184 23.7005C138.523 24.2773 142.811 25.3565 147.033 26.7767C150.399 27.9105 153.718 29.2717 157 30.7761V31.7573ZM157 28.5095C156.267 27.899 155.539 27.2794 154.815 26.6508C154.792 26.7631 154.694 26.8497 154.601 26.7639C154.166 26.3653 153.731 25.9648 153.315 25.5325C152.94 25.1424 152.572 24.7397 152.208 24.331C148.266 20.7359 144.466 16.861 140.833 12.7158C140.806 12.6964 140.779 12.6792 140.751 12.6619C140.736 12.6522 140.72 12.6426 140.705 12.6325C140.627 12.7603 140.5 12.8234 140.387 12.6872C140.283 12.5609 140.184 12.4294 140.085 12.2964C139.974 12.2515 139.861 12.213 139.747 12.1838C139.672 12.1657 139.629 12.099 139.613 12.0219C139.06 11.7598 138.513 11.4708 137.967 11.1824C137.811 11.0998 137.654 11.0172 137.498 10.9353C136.665 10.5002 135.834 10.0655 135.002 9.6298C133.418 8.79826 131.843 7.92719 130.289 7.00105C127.252 5.18798 124.283 3.09024 121.651 0.340329C121.544 0.227943 121.437 0.1145 121.331 0L122.314 0C122.59 0.282199 122.87 0.557581 123.154 0.826266C125.853 3.38364 128.838 5.32706 131.87 7.06253C132.973 7.69381 134.085 8.30104 135.197 8.90808C135.5 9.07358 135.803 9.23906 136.105 9.40501C136.05 9.36504 135.994 9.32512 135.938 9.28519C135.792 9.18045 135.646 9.07563 135.5 8.96967C133.989 7.87356 132.503 6.72103 131.051 5.49045C129.071 3.81135 127.146 1.9911 125.328 0H125.911C127.927 2.13449 130.06 4.05688 132.268 5.81734C133.577 6.86022 134.907 7.85728 136.253 8.8105C136.421 8.92944 136.591 9.04409 136.76 9.15864C136.865 9.22927 136.969 9.29985 137.073 9.37138C135.233 7.71286 133.446 5.94662 131.737 4.05482C130.561 2.75362 129.413 1.40086 128.297 0H129.005C131.746 3.31719 134.678 6.3593 137.751 9.09479C137.719 9.05631 137.687 9.01847 137.655 8.98063C137.634 8.95538 137.612 8.93012 137.591 8.90468C135.26 6.05621 133.005 3.08611 130.841 0L131.731 0C132.615 1.23857 133.512 2.45861 134.423 3.65981C134.355 3.55198 134.286 3.44445 134.218 3.33692C134.149 3.22939 134.081 3.12186 134.013 3.01403C133.382 2.01338 132.755 1.00865 132.132 0H132.857C132.87 0.0203821 132.883 0.0407739 132.896 0.0611773C132.887 0.0407915 132.879 0.020399 132.87 0H133.623C133.879 0.589551 134.142 1.17302 134.415 1.74897C135.166 3.33757 135.987 4.86988 136.902 6.29344C137.359 7.00295 137.838 7.68811 138.345 8.33242C138.577 8.62792 138.818 8.90969 139.059 9.19144C139.09 9.13169 139.15 9.0984 139.206 9.14682C139.497 9.40295 139.768 9.65743 140.026 9.97192C140.278 10.2793 140.514 10.612 140.748 10.9444C140.985 11.281 141.218 11.6232 141.441 11.9777C141.552 12.1553 141.662 12.334 141.77 12.5139C141.821 12.5994 141.858 12.6769 141.892 12.7589C141.911 12.7813 141.931 12.804 141.951 12.8267C141.975 12.8551 142 12.8835 142.024 12.9111C144.224 15.3753 146.486 17.7346 148.799 19.9997C147.313 17.8704 145.956 15.5743 144.743 13.1404C143.631 10.9091 142.642 8.56721 141.777 6.14245C141.522 5.86518 141.268 5.58576 141.022 5.29533C139.673 3.70918 138.456 1.93018 137.384 0H138.155C138.599 0.76561 139.067 1.50531 139.557 2.21651C139.25 1.49479 138.964 0.754442 138.698 0H138.939C139.328 1.09931 139.779 2.16257 140.26 3.19695C140.558 3.59545 140.86 3.98666 141.172 4.36414C140.707 2.93387 140.283 1.47837 139.906 0H140.584C140.734 0.576679 140.893 1.14954 141.057 1.71934C140.978 1.17488 140.912 0.628691 140.856 0.0860788C140.853 0.0573896 140.85 0.0286967 140.847 0H141.061C141.075 0.139619 141.089 0.279108 141.104 0.418456C141.223 1.49996 141.403 2.55214 141.621 3.59223C141.677 3.76789 141.736 3.94227 141.794 4.11681C141.827 4.21506 141.86 4.31337 141.892 4.41198C141.913 2.94136 141.937 1.47072 141.962 0L142.232 0C142.193 1.66834 142.145 3.33648 142.088 5.00427C142.101 5.04115 142.113 5.07818 142.125 5.11519C142.141 5.164 142.157 5.21278 142.173 5.2611C142.185 5.19465 142.196 5.12823 142.207 5.0618C142.249 4.81292 142.291 4.56393 142.328 4.31259C142.423 3.66591 142.524 3.02111 142.625 2.37647C142.748 1.58513 142.872 0.794037 142.986 0H143.59C143.303 2.01736 142.92 3.97317 142.456 5.93363L142.43 5.99436C143.455 8.86028 144.651 11.6118 146.017 14.1965C147.583 17.1597 149.358 19.8847 151.297 22.3886C153.166 24.1343 155.068 25.817 157 27.436V28.5095ZM155.178 0C155.304 1.23436 155.466 2.46087 155.666 3.67547C156.004 5.72902 156.45 7.74506 157 9.7039V7.41103C156.875 6.89423 156.758 6.3739 156.648 5.85038C156.245 3.92852 155.945 1.97362 155.74 0H155.178ZM156.121 0C156.199 0.383242 156.28 0.764844 156.365 1.1446C156.558 2.00366 156.77 2.85466 157 3.6964V2.46713C156.794 1.65237 156.605 0.829561 156.436 0H156.121ZM153.346 34.435C153.593 34.4733 153.841 34.5117 154.088 34.5503C155.034 34.4782 155.981 34.4518 156.926 34.462C155.806 34.2565 154.689 34.0038 153.579 33.7097C151.201 33.0789 148.853 32.2833 146.504 31.4876C145.286 31.0749 144.067 30.6622 142.845 30.2725C139.205 29.1131 135.532 28.2667 131.802 27.7864C128.016 27.2985 124.209 27.1506 120.404 27.1625C118.309 27.1698 116.215 27.2346 114.121 27.2994C112.588 27.3468 111.055 27.3942 109.522 27.4191C111.476 27.6064 113.404 28.0459 115.31 28.6347C116.349 28.7894 117.389 28.9464 118.428 29.1035C119.011 29.1915 119.594 29.2795 120.176 29.3672C121.811 29.6131 123.446 29.8582 125.081 30.1033C129.625 30.7844 134.168 31.4655 138.71 32.165C141.051 32.5259 143.392 32.8898 145.733 33.2536C146.48 33.3696 147.227 33.4857 147.973 33.6016C148.743 33.721 149.513 33.8403 150.283 33.9596C151.057 34.0796 151.831 34.1996 152.605 34.3197C152.852 34.3583 153.099 34.3966 153.346 34.435ZM148.345 35.2628C148.952 35.1723 149.559 35.0819 150.165 34.9953C150.741 34.9131 151.318 34.837 151.896 34.768C150.185 34.5021 148.474 34.2372 146.763 33.9729C144.912 33.6863 143.061 33.4035 141.21 33.1207C136.884 32.46 132.558 31.7991 128.238 31.0904C125.153 30.5833 122.067 30.0804 118.981 29.5889C118.723 29.548 118.466 29.5067 118.208 29.4654C117.951 29.4241 117.693 29.3828 117.435 29.3418C119.042 29.9222 120.633 30.5766 122.212 31.24C122.615 31.4089 123.017 31.579 123.419 31.7492C127.327 33.402 131.254 35.0626 135.332 35.785C139.676 36.5558 144.01 35.9095 148.345 35.2628Z" fill="#383838"/>
</svg>
