<svg width="12" height="17" viewBox="0 0 12 17" fill="none" xmlns="http://www.w3.org/2000/svg">
<path d="M6 15.5L5.64645 15.8536L6 16.2071L6.35355 15.8536L6 15.5ZM6.5 0.5C6.5 0.223858 6.27614 -2.30628e-07 6 -2.18557e-07C5.72386 -2.06486e-07 5.5 0.223858 5.5 0.5L6.5 0.5ZM0.646446 10.8536L5.64645 15.8536L6.35355 15.1464L1.35355 10.1464L0.646446 10.8536ZM6.35355 15.8536L11.3536 10.8536L10.6464 10.1464L5.64645 15.1464L6.35355 15.8536ZM6.5 15.5L6.5 0.5L5.5 0.5L5.5 15.5L6.5 15.5Z" fill="#AEB88D"/>
</svg>
