<svg width="111" height="123" viewBox="0 0 111 123" fill="none" xmlns="http://www.w3.org/2000/svg">
<path d="M109.401 32.5078C111.714 31.3484 114.804 30.3113 117.004 31.8993C118.834 33.2214 118.913 35.6294 118.521 37.6039C116.929 45.6414 110.651 52.0261 103.835 57.2022C98.041 61.6024 91.6848 65.4223 84.9122 68.5933C81.5091 70.1871 70.6223 76.7282 67.1568 72.8379C63.2899 68.4977 71.3046 62.0219 73.8879 59.1931C78.4956 54.148 83.5943 49.4694 89.1139 45.2192C95.3691 40.4025 102.166 36.135 109.401 32.5078Z" fill="#DEE6CE"/>
<path d="M63.854 44.0554C62.569 38.1146 61.1951 32.1229 61.3467 26.1625C61.4987 20.202 63.3243 14.1771 67.7426 9.95502C74.313 21.5982 76.8744 34.8132 74.9697 47.2441C74.5558 49.9454 73.9012 52.6299 72.7825 55.1324C72.1383 56.5751 70.1124 61.2841 67.9546 61.2517C65.2716 61.2108 64.3904 46.5347 63.854 44.0554Z" fill="#DEE6CE"/>
<path d="M72.1028 79.428C78.584 78.537 85.3054 78.9423 91.9298 79.7734C90.9729 79.6533 86.9402 83.4099 85.9866 84.0148C83.8476 85.3717 81.6175 86.6184 79.3122 87.7512C74.6259 90.0545 69.6265 91.8849 64.4294 93.2045C61.0126 94.0721 54.4665 96.4901 51.0304 94.0324C47.2921 91.3585 53.8719 87.1618 56.0298 85.5365C60.5087 82.1636 66.227 80.236 72.1028 79.428Z" fill="#DEE6CE"/>
<path d="M49.3778 69.5663C50.1173 64.432 51.5215 59.3307 50.9108 54.0991C50.282 48.7103 47.549 43.5424 46.6863 38.1648C46.4001 36.3826 46.6448 34.1341 48.5223 33.6264C50.5461 33.0789 52.4501 35.0465 53.5069 36.7877C58.168 44.4696 60.0658 53.1386 59.7103 61.5421C59.5423 65.5073 58.7916 81.8513 51.6638 80.9118C47.309 80.3377 49.0188 72.0587 49.3778 69.5663Z" fill="#AEB88D"/>
<path d="M82.1609 32.3247C85.4068 23.8386 90.2973 15.7832 97.6157 9.78369C98.9077 8.72482 100.306 7.71497 101.988 7.19869C103.671 6.68225 105.697 6.7277 107.251 7.66856C109.452 9.00205 110.065 11.6313 110.032 13.919C109.95 19.5318 107.281 24.6909 104.261 29.4424C99.6516 36.6935 94.0985 43.4302 87.7455 49.4988C86.1029 51.0683 84.4066 52.5933 82.6591 54.0707C81.6928 54.8876 78.8556 58.1041 77.4293 58.0381C74.3867 57.8969 77.4921 48.7419 77.8879 46.9817C79.0051 42.0133 80.3388 37.0885 82.1609 32.3247Z" fill="#AEB88D"/>
<path d="M65.7922 19.0726C65.743 19.2613 65.6992 19.4513 65.6529 19.641C65.121 22.5253 65.1223 25.518 65.4342 28.4758C65.9076 32.9593 67.0505 37.3961 67.8527 41.8566C68.2638 44.1443 68.589 46.4443 68.6801 48.7418C68.7631 50.8357 68.6392 52.9205 68.3289 54.9725C68.1099 56.4192 67.7935 57.8455 67.4088 59.2539C67.8521 58.2257 68.2422 57.1792 68.5315 56.0981C68.883 54.7837 69.1221 53.4405 69.2692 52.0844C69.5689 49.3311 69.4748 46.5417 69.2073 43.7547C68.9314 40.881 68.4388 38.0172 67.9161 35.1565C67.3674 32.1524 66.7852 29.1506 66.4129 26.1346C66.0872 23.4935 65.9367 20.8506 66.035 18.2222C65.9502 18.5042 65.8668 18.7868 65.7922 19.0726ZM67.0401 58.8884C67.2704 58.0058 67.4744 57.1163 67.6403 56.2174C68.0115 54.2059 68.2216 52.1625 68.2184 50.1003C68.2145 47.7913 67.9544 45.4717 67.5776 43.1656C66.8434 38.6754 65.6643 34.2215 65.0712 29.7209C64.8946 28.3831 64.7686 27.0287 64.7172 25.6757C64.5625 27.662 64.5361 29.6639 64.5989 31.6671C64.6913 34.6054 64.9759 37.5425 65.327 40.4804C65.6992 43.5935 66.1258 46.7042 66.4681 49.8182C66.8006 52.8413 67.0411 55.8702 67.0401 58.8884ZM64.1147 23.7611C63.4255 26.5815 63.0626 29.4836 63.0475 32.4103C63.032 35.4779 63.383 38.5591 63.874 41.6238C64.3676 44.7014 65.0007 47.7682 65.5518 50.8413C66.1002 53.8972 66.6335 56.9962 66.7125 60.0661L66.7124 60.0853C66.7363 60.0028 66.7579 59.9195 66.7816 59.8367C66.7429 58.4074 66.7514 56.9809 66.6745 55.5489C66.591 53.9888 66.4581 52.4278 66.2965 50.8676C65.9715 47.7284 65.5208 44.5927 65.1257 41.4559C64.7515 38.4813 64.4137 35.5001 64.2615 32.5226C64.1164 29.6766 64.1375 26.8292 64.4448 24.0201C64.5518 23.0379 64.6973 22.0605 64.8799 21.0907C64.5928 21.9713 64.3346 22.8609 64.1147 23.7611ZM70.352 52.9748C71.2095 50.3119 71.7149 47.536 71.8395 44.7254C71.9687 41.819 71.6772 38.8956 71.0355 35.9969C70.3343 32.826 69.2831 29.7065 68.3334 26.5751C67.5543 24.0059 66.8184 21.3842 66.4422 18.7566C66.413 19.3862 66.3969 20.0172 66.4053 20.6512C66.425 22.1522 66.5307 23.6572 66.6901 25.1605C67.0128 28.1975 67.5522 31.2254 68.078 34.2513C68.5797 37.1356 69.1019 40.0191 69.4118 42.9143C69.71 45.6975 69.8094 48.4961 69.5751 51.2532C69.365 53.7305 68.8564 56.1798 67.9579 58.4937C68.9337 56.7292 69.7381 54.8824 70.352 52.9748ZM62.2469 75.7151C62.4639 75.6247 62.6824 75.5371 62.9044 75.4547C65.6561 74.4365 68.6799 74.0323 71.7192 74.0084C75.0224 73.9825 78.3376 74.3545 81.6419 74.6744C84.9539 74.9951 88.2837 75.2655 91.5719 75.0341C93.1927 74.9199 94.798 74.6856 96.3406 74.2882C96.6048 74.2201 96.8647 74.145 97.1225 74.0663C96.043 74.217 94.9295 74.2492 93.838 74.1945C92.4664 74.1258 91.0979 73.948 89.7298 73.7918C88.2641 73.6246 86.7972 73.477 85.3294 73.3517C82.4667 73.1071 79.5935 72.9047 76.7326 72.8447C73.9413 72.7859 71.1366 72.8968 68.45 73.4359C66.238 73.8799 64.1032 74.6128 62.2469 75.7151ZM62.3717 76.1604C64.2285 75.8342 66.1667 75.765 68.0797 75.8392C70.6103 75.9371 73.1411 76.292 75.6556 76.6813C78.2033 77.0754 80.7485 77.4997 83.3108 77.7324C85.8569 77.9632 88.4348 78.0074 90.9124 77.604C92.4282 77.3576 93.8696 76.9278 95.2144 76.3348C95.932 75.9168 96.6297 75.4743 97.3154 75.0174C97.0036 75.1752 96.686 75.3226 96.3666 75.4594C95.2327 75.9433 94.0269 76.3033 92.7878 76.5575C90.2576 77.077 87.6161 77.1691 84.9807 77.0314C82.2812 76.8908 79.5889 76.5397 76.8993 76.1918C74.2195 75.8453 71.5299 75.5303 68.8424 75.4994C66.6887 75.4753 64.5636 75.6461 62.5175 76.0999C62.4685 76.1194 62.4205 76.1406 62.3717 76.1604ZM58.3646 75.3627C58.809 73.6102 58.9235 71.8042 58.7566 69.9787C58.5723 67.9659 58.1291 65.9615 57.9992 63.9474C57.9361 62.9631 57.9509 61.9768 58.1025 61.0128C58.2469 60.0944 58.5158 59.2018 58.8312 58.3292C59.4744 56.5503 60.3239 54.8378 60.8182 53.0091C61.9371 48.8687 60.2799 44.6136 57.9112 40.8397C56.608 38.7634 55.121 36.7714 53.6805 34.7641C52.4041 32.9853 51.1273 31.2058 49.869 29.4177C49.8559 29.4697 49.8091 29.5075 49.7507 29.5254C49.9071 29.7379 50.0642 29.95 50.2198 30.1628C50.9008 31.096 51.5647 32.0385 52.2126 32.9883C53.4825 34.85 54.6788 36.7493 55.7227 38.7099C57.6055 42.2447 58.9907 46.0137 59.3378 49.844C59.5109 51.7549 59.388 53.6421 59.0252 55.4973C58.6525 57.4031 58.0928 59.2652 57.7215 61.1718C56.9681 65.0413 57.222 69.0371 56.9635 72.9708C56.7837 75.7097 56.3303 78.4934 55.1425 80.9788C55.2149 80.9029 55.2863 80.826 55.3591 80.7508C55.7919 80.3037 56.2355 79.8655 56.6878 79.4352C57.4337 78.1571 58.0028 76.7896 58.3646 75.3627ZM50.6505 32.4624C51.531 34.3409 52.5503 36.1719 53.5463 38.0094C55.4962 41.605 57.4048 45.3316 57.8494 49.2683C58.2853 53.1267 57.2067 56.8355 56.5753 60.5591C56.2349 62.5663 56.0989 64.5924 56.0814 66.6406C56.0637 68.7077 56.1309 70.7804 56.0722 72.8449C55.9844 75.9346 55.606 79.1698 54.2151 81.9661C55.6509 79.5747 56.2881 76.7919 56.5666 74.0458C56.9537 70.2297 56.6874 66.3403 57.2141 62.5415C57.4794 60.6258 58.0024 58.7687 58.4417 56.8914C58.8754 55.0388 59.1807 53.1679 59.1379 51.2424C59.0542 47.4869 57.8873 43.7354 56.18 40.2166C54.3601 36.4649 51.9259 32.9591 49.4371 29.5025C49.7958 30.4989 50.1925 31.4858 50.6505 32.4624ZM48.4983 28.1633C48.4049 28.022 48.3115 27.8808 48.2165 27.7401C47.7984 31.0256 49.5845 34.3802 50.9646 37.4553C52.6133 41.1294 54.2264 44.8249 55.2362 48.6506C55.729 50.5174 56.0742 52.4085 56.2073 54.3017C56.3414 56.2102 56.2383 58.1039 55.9507 59.9717C55.3642 63.775 54.0806 67.4086 53.2054 71.1429C52.3626 74.738 51.8629 78.5004 52.6753 82.24C52.7591 82.6251 52.8586 83.0087 52.9642 83.3912L52.9825 83.3687C54.7217 80.5343 55.3906 77.2682 55.5692 73.9698C55.7883 69.9123 55.3802 65.7998 55.9162 61.7744C56.4152 58.0276 57.607 54.367 57.4666 50.5287C57.3233 46.6075 55.5885 42.8692 53.6781 39.2837C51.7559 35.6767 49.5341 32.0766 48.509 28.2085L48.4983 28.1633ZM47.9672 31.1478C48.0869 33.0577 48.5379 34.9585 49.1385 36.8208C50.3932 40.7094 52.3421 44.4273 53.5943 48.3168C54.2192 50.2575 54.6802 52.2469 54.761 54.2365C54.8417 56.2208 54.4888 58.1306 53.8007 59.9684C52.4508 63.5763 50.0756 66.8597 49.6262 70.7542C49.1559 74.8296 50.7011 78.9661 52.3207 82.8479C52.4539 83.1671 52.5818 83.487 52.7064 83.8078L52.7133 83.7972C52.7103 83.7708 52.7128 83.7431 52.7294 83.7143C52.7706 83.6446 52.8173 83.5771 52.8671 83.511C51.6828 79.96 51.996 76.1869 52.6839 72.6996C53.4272 68.9346 54.6845 65.2965 55.4262 61.5313C55.7994 59.6365 56.0374 57.7103 56.0083 55.7601C55.9794 53.8247 55.7062 51.884 55.2712 49.9633C54.3953 46.0915 52.8684 42.311 51.2076 38.6103C50.4119 36.8367 49.5399 35.0832 48.8231 33.2866C48.4534 32.3602 48.1358 31.4149 47.9394 30.46C47.9438 30.689 47.9527 30.9185 47.9672 31.1478ZM75.6887 77.847C78.5558 78.6747 81.4753 79.5555 84.4633 79.5581C87.4866 79.5607 90.3782 78.7317 92.9601 77.5229C93.2489 77.3878 93.5322 77.2461 93.8138 77.1016C93.2406 77.2927 92.6553 77.4567 92.0622 77.5906C89.6489 78.1359 87.1001 78.2196 84.5722 78.0825C81.9984 77.9427 79.4342 77.5674 76.8761 77.1827C74.3251 76.7987 71.7678 76.4137 69.2019 76.2533C68.8355 76.2304 68.4695 76.2134 68.1031 76.2001C70.6709 76.4778 73.2022 77.1292 75.6887 77.847ZM98.6418 74.0414C98.69 74.0087 98.737 73.9748 98.7846 73.9419C97.051 74.6664 95.1436 75.108 93.214 75.3446C89.9908 75.7396 86.7001 75.6044 83.4205 75.3158C80.1241 75.0252 76.828 74.6077 73.5288 74.5039C70.5399 74.4094 67.5626 74.6023 64.7526 75.3592C65.7083 75.2462 66.6762 75.1879 67.6402 75.1699C70.2721 75.1206 72.9182 75.3777 75.5497 75.7071C78.2601 76.0462 80.9689 76.483 83.686 76.7194C86.3507 76.9512 89.0284 76.9934 91.6274 76.5978C94.1663 76.2112 96.6243 75.4057 98.6418 74.0414ZM48.2972 27.2203C48.2919 27.2456 48.2898 27.2713 48.2851 27.2968C48.2949 27.3007 48.3051 27.3028 48.3146 27.3087C48.3092 27.2789 48.3023 27.2497 48.2972 27.2203ZM40.7825 95.1403C41.7547 93.2082 42.2246 91.0871 42.3466 88.9136C42.5107 85.9855 42.1097 83.0333 41.8756 80.0928C41.7539 78.5653 41.6766 77.0346 41.7476 75.5155C41.8182 74.0067 42.0535 72.5233 42.4253 71.0684C43.1686 68.1624 44.3878 65.4 45.1667 62.5047C45.2053 62.3605 45.2384 62.2149 45.2749 62.0702C45.0967 62.5942 44.9038 63.1126 44.6994 63.6229C43.642 66.2663 42.3101 68.8168 41.4944 71.5462C40.7648 73.9875 40.4757 76.5368 40.4146 79.0971C40.353 81.6615 40.5002 84.2375 40.6272 86.8106C40.7079 88.4487 40.7764 90.0903 40.7714 91.7266C40.8017 92.7641 40.7772 93.7984 40.6609 94.824C40.6566 94.8603 40.6499 94.8957 40.6453 94.9316C40.6329 95.0869 40.6223 95.2428 40.6077 95.3976C40.6666 95.3122 40.7238 95.2261 40.7825 95.1403ZM43.5875 88.3365C44.2233 85.5268 44.4459 82.6384 44.7728 79.7738C44.9386 78.3224 45.1423 76.8792 45.4104 75.4462C45.6746 74.0336 45.9828 72.6306 46.2775 71.2247C46.8586 68.4555 47.3924 65.6574 47.4124 62.7988C47.4246 61.0621 47.2416 59.3186 46.8024 57.6094C46.7691 57.6086 46.7369 57.6013 46.7131 57.5766C46.6671 57.5297 46.631 57.475 46.5998 57.417C46.7187 58.1719 46.7938 58.9293 46.8219 59.6818C46.9208 62.3705 46.5057 65.0087 45.9291 67.6C45.3357 70.2644 44.5932 72.8939 44.1223 75.5866C43.8927 76.8985 43.7397 78.2224 43.6725 79.5582C43.6079 80.8387 43.6009 82.1244 43.5822 83.4086C43.5461 85.9152 43.4904 88.4716 42.8145 90.8798C42.7298 91.1822 42.6355 91.4819 42.5326 91.7789C42.5124 91.8376 42.4357 91.8426 42.3922 91.8135C42.3421 92.0463 42.2959 92.2801 42.2355 92.51C42.8278 91.1687 43.265 89.7631 43.5875 88.3365ZM45.9485 61.4567C45.3008 64.3888 44.0924 67.1559 43.2231 70.0233C42.7811 71.482 42.4223 72.9658 42.2723 74.4891C42.1229 76.0135 42.1543 77.5589 42.2521 79.1006C42.4414 82.1053 42.8951 85.1179 42.814 88.1158C42.7864 89.1561 42.6915 90.2021 42.5096 91.2298C43.1375 88.9879 43.2889 86.6462 43.3255 84.3059C43.3651 81.7472 43.3147 79.1809 43.6497 76.6522C44.0061 73.9617 44.6833 71.3327 45.2787 68.6929C45.8607 66.1113 46.3592 63.4937 46.3778 60.82C46.3814 60.2766 46.3626 59.7307 46.3237 59.1845C46.2428 59.9496 46.1141 60.7083 45.9485 61.4567ZM45.151 60.6865C44.1274 63.411 42.826 66.0284 41.7103 68.7177C40.5997 71.3958 39.7028 74.1736 39.5348 77.0915C39.3645 80.0439 39.7994 83.0233 40.2046 85.9829C40.3012 86.6899 40.3965 87.3995 40.4813 88.1098C40.4744 87.9608 40.4676 87.8119 40.4602 87.6627C40.3306 85.0968 40.1459 82.5269 40.1473 79.9654C40.1487 77.4428 40.3254 74.9136 40.9199 72.4783C41.5862 69.7465 42.8374 67.2115 43.9301 64.6257C44.6394 62.9473 45.2777 61.2053 45.6095 59.4066C45.4628 59.8372 45.3093 60.2649 45.151 60.6865ZM53.3852 93.3959C53.2741 93.3989 53.1632 93.404 53.0517 93.4062C52.8191 93.4325 52.5879 93.4631 52.358 93.5001C52.6996 93.4611 53.0423 93.4275 53.3852 93.3959ZM50.7943 94.4063C50.8027 94.406 50.8113 94.4053 50.8197 94.405C50.8169 94.4026 50.813 94.4015 50.8102 94.3991C50.805 94.4016 50.7995 94.4038 50.7943 94.4063ZM63.4903 93.1913C64.7222 93.148 65.9545 93.108 67.1879 93.0767C70.866 92.9839 74.5523 92.9463 78.246 93.0501C81.9152 93.1535 85.5922 93.388 89.2573 93.8204C93.0264 94.265 96.7831 94.9391 100.562 95.2309C103.854 95.4853 107.209 95.4337 110.36 94.7434C110.264 94.7458 110.168 94.7443 110.071 94.7459C109.811 94.7563 109.551 94.7612 109.29 94.7547C109.247 94.7538 109.203 94.75 109.161 94.7486C106.801 94.7255 104.423 94.4961 102.075 94.1689C98.4733 93.6671 94.9029 92.9334 91.3231 92.2801C87.6554 91.6109 83.9765 91.0537 80.271 90.8327C76.4864 90.6072 72.702 90.6802 68.9784 91.0486C65.2311 91.4189 61.5415 92.0924 57.9753 93.0561C57.8847 93.0803 57.7953 93.1074 57.7045 93.1321C59.6268 93.0802 61.5576 93.1066 63.4903 93.1913ZM61.0045 93.7828C62.8303 94.0926 64.656 94.4064 66.4817 94.7167C69.9356 95.3038 73.3917 95.8768 76.8576 96.3643C80.3321 96.8526 83.816 97.2826 87.3054 97.5221C90.7979 97.7621 94.305 97.8515 97.7727 97.6817C100.683 97.5395 103.565 97.1515 106.325 96.4424C107.094 96.1821 107.855 95.9032 108.604 95.6043C107.727 95.7742 106.843 95.917 105.96 96.0407C103.651 96.365 101.303 96.5273 98.9454 96.5783C94.0875 96.6834 89.1944 96.3115 84.3272 95.7804C79.3396 95.2366 74.3603 94.5488 69.3673 94.0933C66.3549 93.8185 63.334 93.631 60.3255 93.609C60.2381 93.6126 60.1501 93.6161 60.0627 93.6197C60.3766 93.6744 60.6908 93.7294 61.0045 93.7828ZM75.0629 96.755C79.1805 97.7252 83.3298 98.6046 87.5373 98.8703C91.5889 99.1262 95.6401 98.895 99.5476 98.1892C101.157 97.8986 102.741 97.5266 104.293 97.0788C102.628 97.41 100.923 97.6276 99.2092 97.7626C95.7333 98.0367 92.2128 98.0233 88.6955 97.8339C85.2124 97.6461 81.7275 97.303 78.2553 96.8518C75.7708 96.5292 73.2919 96.149 70.8157 95.7475C72.2326 96.0788 73.6472 96.4215 75.0629 96.755ZM102.1 95.5058C98.3565 95.328 94.6331 94.7482 90.9037 94.2797C87.1769 93.8114 83.4411 93.529 79.7069 93.3945C76.0137 93.2613 72.3245 93.2567 68.6461 93.3353C68.006 93.3488 67.367 93.3676 66.7275 93.3853C66.8354 93.3936 66.9429 93.4003 67.0509 93.4087C72.0471 93.7947 77.0296 94.4755 82.0144 95.0684C86.9314 95.6533 91.865 96.1638 96.79 96.2257C101.14 96.2807 105.491 95.9813 109.661 95.1065C107.213 95.5691 104.623 95.6257 102.1 95.5058ZM63.4276 88.0882C66.2269 87.4728 69.0982 87.1974 71.991 86.9532C74.8239 86.7144 77.6793 86.4527 80.3603 85.6758C82.4565 85.0684 84.4501 84.1424 86.0105 82.7886C86.0819 82.7016 86.1581 82.6181 86.2314 82.5431C86.3595 82.4123 86.4935 82.287 86.6313 82.165C86.5399 82.1978 86.4478 82.2295 86.356 82.2616C85.6739 82.7901 84.8627 83.2007 84.04 83.5345C83.0336 83.9425 81.9673 84.2392 80.8773 84.4566C78.6391 84.9031 76.3307 85.0409 74.0387 85.2618C71.7694 85.4807 69.5248 85.8305 67.3209 86.2931C65.135 86.7521 62.9902 87.339 60.9361 88.1037C59.7731 88.5362 58.6403 89.0272 57.5474 89.5748C57.0044 89.8467 56.4714 90.1329 55.9511 90.4359L55.9269 90.4503C58.3204 89.4526 60.8354 88.6581 63.4276 88.0882ZM84.1321 82.8856C82.8363 83.1794 81.5078 83.3781 80.1729 83.5358C77.4449 83.8571 74.6803 83.9884 71.9455 84.2739C69.1884 84.5622 66.4686 85.038 63.9405 85.9785C61.408 86.9203 59.1051 88.2409 56.8569 89.6001C56.8932 89.5809 56.9298 89.5615 56.9661 89.5423C57.9245 89.0406 58.9163 88.5881 59.9345 88.1807C61.9509 87.3737 64.0631 86.7315 66.2243 86.2404C68.4009 85.7462 70.6171 85.4212 72.8619 85.1705C75.1664 84.9127 77.499 84.7959 79.7856 84.4583C81.048 84.2722 82.2882 83.9869 83.4603 83.5638C84.2761 83.2695 85.0236 82.8951 85.7348 82.4648C85.2064 82.625 84.6681 82.7643 84.1321 82.8856ZM80.1477 82.3713C78.6755 82.2923 77.2025 82.1966 75.7347 82.2146C74.247 82.2331 72.7684 82.3494 71.314 82.5571C68.4204 82.9694 65.6171 83.749 63.0216 84.8679C60.4135 85.9922 58.0044 87.4511 55.9141 89.2114C55.4401 89.611 54.9799 90.0322 54.5205 90.4567C54.5188 90.4613 54.5183 90.4663 54.5164 90.4705C54.4499 90.611 54.3078 90.7076 54.1891 90.8119C54.1389 90.8563 54.0895 90.9012 54.0394 90.9456C54.4751 90.6801 54.9098 90.4137 55.3441 90.1465C57.7236 88.6823 60.1134 87.2062 62.7415 86.0827C64.003 85.5437 65.3124 85.0907 66.6731 84.7532C67.9837 84.4282 69.3303 84.2025 70.6871 84.0288C73.3928 83.6822 76.1389 83.5408 78.8598 83.2713C80.683 83.0908 82.4732 82.8238 84.2219 82.4251C82.8721 82.4981 81.5076 82.4446 80.1477 82.3713ZM69.7953 70.823C74.8042 69.4385 79.9502 68.3598 84.8269 66.6699C89.0952 65.1906 93.2155 63.198 96.4338 60.3249C98.0522 58.8799 99.3937 57.2212 100.409 55.3768C101.451 53.4833 102.184 51.4575 102.903 49.4377C103.547 47.6287 104.203 45.7712 105.062 44.0169C104.785 44.4437 104.519 44.8768 104.275 45.325C103.513 46.7252 102.888 48.1856 102.256 49.641C100.967 52.6089 99.5922 55.5493 97.2083 57.9244C94.6754 60.4473 91.3616 62.2498 87.8982 63.6584C84.2034 65.1614 80.2856 66.213 76.4364 67.4023C72.3406 68.6675 68.2397 70.0882 64.739 72.3294C64.6656 72.3764 64.594 72.4258 64.521 72.4736C65.0109 72.2849 65.5113 72.1148 66.0144 71.951C67.2611 71.5456 68.5242 71.1742 69.7953 70.823ZM105.856 42.5344C106.15 42.0339 106.468 41.5469 106.813 41.0764C104.402 43.09 102.604 45.6316 100.939 48.2099C99.8068 49.9619 98.6998 51.7317 97.4009 53.3865C96.1095 55.0318 94.5998 56.5128 92.8826 57.8112C89.4471 60.4095 85.3973 62.2798 81.3014 63.9856C77.333 65.6382 73.2768 67.1561 69.5038 69.1233C68.1412 69.834 66.8198 70.6113 65.564 71.4592C68.3579 69.8809 71.4568 68.7196 74.6009 67.7214C78.4985 66.4837 82.4973 65.4602 86.3089 64.042C89.8956 62.7068 93.372 61.0216 96.132 58.6027C97.4441 57.4527 98.5577 56.1463 99.4597 54.7093C100.31 53.3541 100.994 51.9151 101.645 50.4683C102.865 47.7559 103.968 44.9205 105.856 42.5344ZM106.778 40.4855C106.701 40.5313 106.626 40.5799 106.549 40.6264C106.417 40.7334 106.285 40.8404 106.156 40.9503C105.527 41.4865 104.923 42.0448 104.34 42.6199C103.156 43.7867 102.057 45.0203 100.984 46.2702C98.8293 48.781 96.7609 51.3749 94.3285 53.6792C93.1161 54.8272 91.8082 55.896 90.376 56.8287C88.7422 57.8935 86.9729 58.7886 85.1613 59.6096C81.5407 61.2502 77.7641 62.6401 74.3267 64.562C72.6477 65.5008 71.065 66.5523 69.5522 67.684C68.2299 68.6732 66.9481 69.736 65.8003 70.8903C66.3973 70.4922 67.0074 70.1089 67.6314 69.7451C71.2817 67.6176 75.2827 66.0093 79.2547 64.3749C83.4006 62.6693 87.5636 60.8984 91.193 58.451C93.0036 57.2296 94.6592 55.8327 96.0614 54.2414C97.4935 52.6168 98.6679 50.8238 99.8223 49.0291C101.783 45.9811 103.776 42.7936 106.778 40.4855ZM101.23 44.6152C98.4772 47.0154 95.9175 49.5953 92.9751 51.8204C91.464 52.9628 89.8559 53.9911 88.1224 54.8655C86.21 55.8301 84.2013 56.6441 82.2186 57.4976C80.2623 58.3397 78.3313 59.2299 76.5537 60.329C74.8834 61.3619 73.3478 62.5502 71.9208 63.8324C69.2804 66.2052 66.9982 68.8791 64.794 71.5841C64.938 71.4807 65.0847 71.3796 65.2311 71.2779C67.4718 68.978 70.0074 66.9125 72.8231 65.1694C76.1435 63.1143 79.8524 61.6708 83.4952 60.0949C85.3427 59.2955 87.1692 58.4537 88.8859 57.461C90.4706 56.5447 91.9277 55.4858 93.261 54.3016C95.7812 52.0643 97.8454 49.4808 99.9684 46.9448C101.362 45.2799 102.787 43.6218 104.365 42.0925C103.276 42.8871 102.237 43.737 101.23 44.6152ZM87.2563 42.7584C89.8635 38.4191 91.9619 33.8355 94.3601 29.3964C93.2776 31.0991 92.1923 32.8003 91.0873 34.491C89.3883 37.091 87.656 39.6708 85.8284 42.1972C84.0079 44.7142 82.1023 47.1806 80.0801 49.5669C78.0518 51.9608 75.8973 54.2668 73.581 56.4402C73.2968 56.7068 73.0104 56.9713 72.7216 57.234C72.6971 57.2564 72.6693 57.2679 72.6406 57.2744C72.6261 57.3095 72.6118 57.344 72.5967 57.3789C79.2284 54.1621 83.7513 48.5929 87.2563 42.7584ZM99.9388 20.2259C99.0164 21.2002 98.1175 22.1924 97.2509 23.2067C95.1162 25.705 93.1218 28.2993 91.1983 30.9349C89.2772 33.5665 87.4202 36.2366 85.5612 38.9048C83.5581 41.7792 81.5447 44.6472 79.5397 47.5201C77.6098 50.2847 75.6679 53.0421 73.7269 55.7997C75.5946 54.0293 77.3671 52.1788 79.0531 50.2676C81.1363 47.9069 83.0836 45.4511 84.9384 42.9384C86.7913 40.4283 88.5445 37.8593 90.2753 35.2769C92.0062 32.6954 93.6724 30.0762 95.337 27.458C96.8699 25.0464 98.4007 22.6343 99.9388 20.2259ZM100.195 20.3467C100.171 20.3537 100.146 20.3558 100.121 20.3512C100.035 20.4853 99.9514 20.6199 99.8651 20.7538C99.9729 20.6166 100.085 20.4828 100.195 20.3467ZM100.531 19.9316C100.525 19.932 100.52 19.9342 100.515 19.9345C100.49 19.9711 100.464 20.0078 100.439 20.0444C100.47 20.0069 100.5 19.9688 100.531 19.9316ZM101.242 18.2198C101.243 18.2175 101.244 18.2147 101.246 18.2124C101.107 18.2937 100.969 18.3752 100.83 18.4564C98.844 20.0133 96.9828 21.6854 95.2353 23.4604C92.9879 25.7434 90.9277 28.1736 89.0073 30.6882C87.0467 33.2556 85.2172 35.9051 83.4397 38.5812C81.5953 41.3589 79.8109 44.1724 78.0954 47.0201C76.6392 49.4371 75.2364 51.8828 73.8696 54.3452C73.5722 55.0708 73.2689 55.7943 72.9607 56.5158C73.0325 56.4498 73.105 56.3843 73.1762 56.318C74.9787 53.6871 76.7788 51.0545 78.5927 48.4304C80.5836 45.5512 82.5657 42.6664 84.5585 39.7882C86.4424 37.0686 88.3136 34.3409 90.252 31.6539C92.1442 29.0302 94.097 26.4415 96.1786 23.9394C97.7125 22.0961 99.3122 20.3013 101.003 18.5751C101.081 18.4561 101.162 18.3381 101.242 18.2198ZM87.5399 29.0561C85.118 31.7557 82.9988 34.674 81.2237 37.7665C79.4071 40.9306 77.9461 44.2596 76.5777 47.6152C75.89 49.3016 75.2212 50.9954 74.542 52.685C75.4195 51.0855 76.3187 49.4965 77.2439 47.92C78.9465 45.0197 80.7127 42.1532 82.5585 39.3289C84.3193 36.635 86.133 33.9682 88.066 31.3747C89.9645 28.8272 91.9712 26.3425 94.1688 23.999C95.7699 22.292 97.4806 20.6652 99.3074 19.1484C94.8911 21.9518 90.9245 25.2822 87.5399 29.0561ZM67.143 15.091C67.1153 15.161 67.0894 15.2316 67.0618 15.3016C67.1629 15.3611 67.2305 15.4702 67.1694 15.5889C66.9672 15.9825 66.7768 16.3811 66.5896 16.781C66.577 16.9022 66.5631 17.0236 66.5517 17.1452C66.6916 18.3538 66.8795 19.5604 67.1394 20.7616C67.487 22.3655 67.9383 23.9537 68.4116 25.5392C69.3487 28.6777 70.4245 31.7936 71.1993 34.9599C71.9197 37.9046 72.3286 40.8716 72.2802 43.8412C72.2339 46.6592 71.8195 49.4496 71.0453 52.1377C70.268 54.8357 69.1348 57.434 67.657 59.8522C67.4754 60.1498 67.288 60.444 67.0965 60.7359C67.0616 60.7886 67.0099 60.8135 66.9544 60.8198C66.3414 62.7764 65.5975 64.6949 64.7714 66.5731C63.2938 69.9318 61.5699 73.2064 59.7269 76.4054C60.0995 75.9105 60.4996 75.4349 60.9205 74.9759C61.1434 74.6156 61.4346 74.2903 61.7718 73.9996C63.0984 72.3609 64.3745 70.6902 65.5736 68.9722C67.702 65.9222 69.5602 62.7298 71.1264 59.3985C72.6747 56.1061 73.9837 52.7194 75.33 49.349C76.6741 45.9833 78.0566 42.6247 79.7472 39.3992C81.3764 36.2919 83.3192 33.3374 85.5745 30.5811C90.026 25.1395 95.6544 20.474 102.102 16.9208C102.078 16.8701 102.082 16.8093 102.146 16.7671C102.985 16.2058 103.901 15.7304 104.79 15.2284C104.955 15.1349 105.182 15.3455 105.071 15.4764C105.233 15.5282 105.351 15.7071 105.203 15.8324C99.6394 20.5728 96.1868 26.8262 93.0036 33.0384C89.8241 39.2443 86.7677 45.5962 81.9299 50.8904C79.2801 53.7902 76.0964 56.299 72.3254 58.0232L72.3122 58.0267C70.8668 61.2652 69.2065 64.4035 67.247 67.3992C66.1156 69.1283 64.903 70.8105 63.6343 72.4582C63.74 72.3738 63.8505 72.2937 63.9576 72.211C66.0281 69.5372 68.1631 66.8985 70.63 64.5093C71.9789 63.2026 73.4245 61.9743 74.9929 60.8748C76.6715 59.6978 78.4985 58.7142 80.4053 57.8375C82.3778 56.9304 84.4096 56.1204 86.3771 55.2061C88.2188 54.3499 89.9771 53.3853 91.6011 52.2458C94.6569 50.1011 97.2604 47.5143 99.9942 45.0668C102.16 43.1278 104.442 41.2388 107.052 39.7677C107.08 39.7472 107.109 39.7283 107.136 39.7082C107.141 39.7006 107.145 39.6922 107.152 39.6853C107.851 39.0542 108.708 38.5386 109.653 38.2062C109.794 38.1061 109.933 38.0046 110.081 37.9104C110.167 37.8557 110.281 37.9337 110.295 38.0143C110.363 37.9972 110.429 37.9774 110.498 37.9625C110.765 37.9031 110.892 38.2047 110.705 38.3414C110.638 38.39 110.574 38.441 110.508 38.4903C110.526 38.5718 110.502 38.6537 110.406 38.6912C110.287 38.738 110.17 38.7887 110.052 38.8377C109.491 39.2791 108.948 39.7447 108.434 40.224C108.087 40.5479 107.754 40.8849 107.446 41.2394C107.126 41.607 106.852 42.004 106.534 42.3721C106.5 42.4119 106.457 42.4242 106.414 42.421C106.346 42.5325 106.274 42.6418 106.209 42.7553C105.17 44.5451 104.418 46.4627 103.724 48.392C103.014 50.3643 102.349 52.3567 101.452 54.2603C100.577 56.1152 99.4532 57.8454 98.0079 59.373C95.1302 62.4139 91.256 64.5926 87.1684 66.2125C82.5765 68.033 77.6512 69.1613 72.8015 70.4127C70.2826 71.0628 67.7723 71.7475 65.3351 72.5833C64.6861 72.8063 63.9993 73.0722 63.361 73.4045C62.7819 74.1461 62.1706 74.8668 61.5323 75.5676C63.1789 74.5205 65.0628 73.7662 67.0398 73.2633C69.674 72.5932 72.459 72.3756 75.2412 72.3751C78.1033 72.3747 80.9826 72.5769 83.8489 72.8179C85.3102 72.941 86.7706 73.0846 88.2305 73.2432C89.6412 73.3964 91.0504 73.5874 92.462 73.7254C93.8166 73.8576 95.1807 73.924 96.5192 73.7986C97.5352 73.7033 98.5299 73.4839 99.477 73.1724C99.8713 72.9924 100.26 72.8013 100.643 72.5971C100.836 72.4942 101.025 72.3856 101.212 72.2744C101.331 72.1893 101.449 72.1032 101.57 72.0192C101.601 71.9971 101.637 71.9953 101.67 72.0047C101.785 71.9882 101.911 72.1393 101.809 72.2183C101.73 72.2796 101.648 72.3386 101.567 72.3975L101.558 72.4457C101.38 72.5714 101.195 72.6867 101.007 72.7972C100.075 73.5257 99.1189 74.2319 98.143 74.9137C96.8975 75.7833 95.6072 76.6047 94.241 77.3268C91.7374 78.6501 88.9455 79.6349 85.9626 79.8947C82.9963 80.1528 80.058 79.5063 77.1698 78.7088C74.2503 77.9023 71.3312 77.0297 68.3192 76.6848C65.3025 76.3391 62.1404 76.5319 59.5165 77.7726C59.4165 77.8198 59.318 77.8671 59.2192 77.9147C59.1004 78.0282 58.9827 78.1418 58.8623 78.2534C58.7944 78.3161 58.7263 78.3786 58.6582 78.441C58.5248 78.591 58.3931 78.7424 58.2589 78.8918L58.2358 78.9303L58.1914 78.9671C57.4852 79.7526 56.768 80.5293 56.046 81.3018C55.4328 82.1155 54.7435 82.8803 53.9777 83.5792C53.7813 83.7585 53.5786 83.9325 53.3729 84.1029C53.1508 84.3312 52.9302 84.5604 52.7072 84.7879C48.7486 88.8284 44.6351 92.7578 40.3514 96.5304C40.333 96.5544 40.3145 96.5783 40.2955 96.602C42.8172 95.4932 45.5047 94.6879 48.2802 94.1335C48.8189 93.8801 49.3446 93.6011 49.869 93.3292C50.5006 93.0026 51.122 92.6604 51.7364 92.3108C51.9332 92.1991 52.1281 92.0846 52.3233 91.9709C52.4479 91.8659 52.5689 91.7572 52.6913 91.6501C52.7184 91.6222 52.7434 91.5931 52.7706 91.5653C53.0017 91.3294 53.2397 91.099 53.4845 90.8747C53.6149 90.7556 53.7461 90.6371 53.8812 90.5223C53.9797 90.4387 54.0728 90.3506 54.1887 90.2902C54.4828 90.0174 54.7772 89.7451 55.076 89.4766C57.0858 87.673 59.3982 86.1446 61.9326 84.9428C64.4634 83.7429 67.2031 82.8614 70.0535 82.3377C71.4826 82.075 72.9392 81.9035 74.4105 81.8282C75.8726 81.7534 77.341 81.792 78.8141 81.8693C80.9826 81.9833 83.2302 82.1624 85.3657 81.89L85.3672 81.8894C85.7055 81.7871 86.0436 81.6844 86.3815 81.5823C87.0578 81.3773 87.7338 81.1725 88.4102 80.9676C88.5594 80.9224 88.6783 81.0693 88.6501 81.1823C88.6524 81.1879 88.6564 81.1933 88.6577 81.1998C88.7227 81.2815 88.7301 81.4045 88.6227 81.4629C88.5699 81.4917 88.5147 81.517 88.4607 81.5437C88.3673 81.6236 88.2564 81.6912 88.1553 81.7659C87.9523 81.915 87.7498 82.0622 87.5395 82.2025C87.33 82.3424 87.1236 82.4864 86.9141 82.6263C86.6972 82.7718 86.4638 82.8937 86.2465 83.0394L86.2321 83.0451C86.1387 83.1276 86.0401 83.2052 85.9431 83.2847C85.9455 83.2873 85.9487 83.2869 85.9505 83.2901C85.9758 83.3351 85.9113 83.3725 85.8806 83.3366C84.6704 84.3146 83.202 85.058 81.6896 85.606C79.1478 86.527 76.3837 86.9007 73.6239 87.1647C70.6931 87.4454 67.7476 87.6331 64.8779 88.175C62.0444 88.71 59.2916 89.5092 56.6791 90.5522C55.2432 91.1254 53.8551 91.7723 52.511 92.4813C52.4424 92.5596 52.3734 92.6373 52.3059 92.716C52.591 92.6519 52.8834 92.6067 53.1846 92.5947C53.7831 92.5701 54.3891 92.6567 54.987 92.7381C55.1531 92.7609 55.3203 92.7873 55.488 92.8138C55.6018 92.8098 55.7146 92.8013 55.8288 92.7988C55.8969 92.7972 55.9363 92.8375 55.9452 92.8829C56.2323 92.9229 56.519 92.9512 56.8029 92.9509C60.2552 91.9497 63.8235 91.2229 67.4631 90.7882C71.1771 90.3445 74.9551 90.1902 78.7454 90.3421C82.4701 90.4917 86.1748 90.9679 89.866 91.6264C93.4515 92.2662 97.018 93.0293 100.613 93.6063C103.095 94.0042 105.596 94.3036 108.092 94.4141C108.109 94.3918 108.133 94.3731 108.167 94.3628C108.343 94.3087 108.51 94.3389 108.697 94.3537C108.885 94.3681 109.073 94.3779 109.26 94.3839C109.635 94.3952 110.009 94.3897 110.381 94.3665C110.878 94.3356 111.369 94.269 111.851 94.1756C111.895 94.1551 111.94 94.1352 111.984 94.1143C112.035 94.0896 112.086 94.0968 112.126 94.1205C112.275 94.0877 112.425 94.0538 112.573 94.0155C112.739 93.9725 112.841 94.1163 112.812 94.2315C112.828 94.2438 112.845 94.2578 112.861 94.2751C112.899 94.3162 112.901 94.3894 112.875 94.4317L112.842 94.4696C112.858 94.5324 112.823 94.6069 112.732 94.6156C112.612 94.6272 112.492 94.6321 112.372 94.6421C111.709 94.8625 111.031 95.0525 110.344 95.222C107.487 96.5538 104.395 97.5497 101.235 98.2371C97.4001 99.0709 93.401 99.4529 89.3824 99.3477C85.2218 99.2387 81.0904 98.548 77.0021 97.6392C72.8594 96.7183 68.7495 95.6183 64.5704 94.8827C60.5732 94.1795 56.463 93.796 52.492 94.2573C52.073 94.3059 51.6552 94.3633 51.2381 94.4221C51.2832 94.4733 51.2801 94.5624 51.1969 94.5735C50.7753 94.6319 50.3653 94.7286 49.9438 94.7879C49.532 94.8459 49.1221 94.9097 48.7137 94.9796C47.8849 95.1209 47.0612 95.2807 46.2462 95.465C44.6155 95.8335 43.017 96.2911 41.4659 96.8422C40.5946 97.1521 39.761 97.5274 38.8955 97.8459C38.8735 97.8542 38.8522 97.856 38.8316 97.8559C37.5469 98.9657 34.9334 101.143 34.9334 101.143L34.7254 101.528L33.9338 101.504C33.9338 101.504 36.5764 99.3066 38.6517 97.4775C38.6512 97.4209 38.677 97.3661 38.7488 97.3297C38.8014 97.3032 38.8554 97.2782 38.9086 97.2519C39.3749 96.8396 39.8396 96.4262 40.3031 96.0115L40.3341 95.956C40.2986 95.936 40.2722 95.9001 40.2773 95.8543C40.6001 92.9359 40.3246 89.9794 39.9182 87.0337C39.5119 84.0915 39.0183 81.1346 39.0402 78.1899C39.0509 76.752 39.2018 75.3275 39.5065 73.9333C39.8124 72.533 40.2574 71.1684 40.7676 69.8291C41.7925 67.1382 43.1046 64.5585 44.1738 61.8846C44.5952 60.8292 44.9859 59.7568 45.2986 58.6641C45.2704 58.6359 45.2549 58.5966 45.2705 58.555C45.4501 58.0808 45.572 57.5835 45.6503 57.0764C45.6037 57.0595 45.5659 57.0203 45.5755 56.964C45.6649 56.4513 45.6823 55.9282 45.6443 55.403C45.6173 55.3154 45.5905 55.2272 45.5621 55.1397L45.5987 55.1278L45.6205 55.1183C45.6165 55.0801 45.6116 55.0418 45.6071 55.0034C45.5993 54.9811 45.5955 54.9582 45.5947 54.9349C45.5624 54.8345 45.534 54.7317 45.5081 54.6309C45.4942 54.5774 45.5052 54.5302 45.5309 54.4881C45.5236 54.4482 45.5191 54.408 45.5108 54.368C45.4803 54.2175 45.4433 54.0674 45.4012 53.9184C45.3629 53.782 45.2831 53.6353 45.3641 53.5096C45.3776 53.489 45.3983 53.4725 45.422 53.4587C45.465 53.269 45.791 53.2183 45.886 53.4512C46.1107 54.002 46.3052 54.5608 46.4763 55.1236C46.497 55.1722 46.5214 55.2207 46.5345 55.2701C46.5393 55.2887 46.5359 55.3072 46.5364 55.3258C46.555 55.3892 46.5748 55.4522 46.5924 55.5155C46.6456 55.7038 46.6895 55.8931 46.7369 56.0819C47.4104 57.8835 47.7346 59.773 47.8168 61.6273C47.944 64.498 47.5085 67.3187 46.9609 70.0991C46.3972 72.9632 45.7387 75.8034 45.3748 78.7071C45.0073 81.6407 44.8228 84.6062 44.2664 87.5077C43.7727 90.0831 42.9764 92.6291 41.5566 94.8783C44.5676 92.1516 47.5112 89.367 50.3554 86.4955C51.0471 85.7975 51.7346 85.0946 52.4199 84.3896C52.3824 84.3542 52.3644 84.3054 52.3971 84.2596C52.4287 84.216 52.457 84.1707 52.4884 84.1268C51.5645 82.2703 50.7991 80.3316 50.1711 78.3988C49.5252 76.4097 49.0737 74.367 49.0551 72.3283C49.037 70.3537 49.4856 68.4746 50.212 66.6609C50.935 64.8565 51.8745 63.1405 52.6714 61.3667C53.4849 59.5556 54.1233 57.672 54.2386 55.675C54.355 53.6562 54.0189 51.6115 53.4551 49.6169C52.3321 45.6469 50.3449 41.8855 48.9622 37.9757C47.6796 34.3491 46.8128 30.4309 47.8035 26.7994C47.9241 26.3564 48.0867 25.9457 48.3046 25.5385C48.3992 25.3619 48.7306 25.4661 48.7002 25.6586C48.7449 25.6763 48.7846 25.7056 48.803 25.7542C48.8602 25.9046 48.8016 26.0481 48.7791 26.1956C48.7554 26.3487 48.743 26.5032 48.7429 26.6593C48.7425 26.9059 48.7683 27.1536 48.8209 27.3989C50.2391 29.3094 51.6326 31.2335 53.017 33.1618C54.4939 35.2185 56.0086 37.2598 57.4179 39.3513C59.9259 43.0725 62.075 47.2959 61.5502 51.5753C61.3183 53.4677 60.5731 55.2276 59.8669 56.9834C59.1329 58.8088 58.4924 60.6584 58.4572 62.6532C58.4215 64.6885 58.8413 66.728 59.1094 68.7612C59.3582 70.6452 59.4146 72.5137 59.0883 74.3575C58.8401 75.7607 58.3987 77.1282 57.7862 78.4237C57.9281 78.2971 58.0697 78.1701 58.2133 78.0449C58.2183 78.0167 58.233 77.9886 58.2643 77.9631C58.3659 77.8816 58.472 77.8072 58.5806 77.7357C58.6216 77.7011 58.6633 77.6671 58.7044 77.6328C60.4732 74.4016 62.2504 71.1727 63.7803 67.8335C64.8064 65.594 65.7216 63.3029 66.4525 60.9577C66.344 59.4906 66.224 58.0228 66.0444 56.5563C65.8549 55.0107 65.614 53.4676 65.3434 51.9267C64.7992 48.8268 64.1452 45.7364 63.6088 42.636C63.0775 39.5615 62.6602 36.4707 62.5919 33.3861C62.5266 30.4148 62.8014 27.4594 63.4212 24.5809C63.9231 22.2522 64.6506 19.9744 65.5864 17.7782C65.626 17.6467 65.6634 17.5147 65.7062 17.3837C65.8352 16.9885 66.0054 16.6023 66.1716 16.2182C66.1781 16.1622 66.1835 16.1059 66.1901 16.05L66.1904 16.049L66.1882 16.0061C66.1862 15.9409 66.2381 15.909 66.2937 15.9062L66.3178 15.8367C66.4376 15.5138 66.5648 15.195 66.7041 14.8796C66.8167 14.6243 67.2416 14.8404 67.143 15.091Z" fill="#383838"/>
</svg>
