<svg width="21" height="138" viewBox="0 0 21 138" fill="none" xmlns="http://www.w3.org/2000/svg">
<path d="M20.128 128.869C20.128 129.509 20.096 130.245 20.032 131.077C20.0107 131.397 19.9893 131.792 19.968 132.261C19.9467 132.731 19.936 133.253 19.936 133.829L19.968 136.069C19.9893 136.475 20 137.029 20 137.733C20 137.776 19.936 137.797 19.808 137.797C19.68 137.797 19.616 137.776 19.616 137.733C19.616 136.965 19.5627 136.4 19.456 136.037C19.3493 135.675 19.1467 135.429 18.848 135.301C18.528 135.173 18.048 135.109 17.408 135.109H2.592C1.952 135.109 1.48267 135.173 1.184 135.301C0.885332 135.429 0.682665 135.675 0.575998 136.037C0.447999 136.379 0.383999 136.923 0.383999 137.669C0.383999 137.733 0.319999 137.765 0.191999 137.765C0.0639998 137.765 0 137.733 0 137.669L0.0319996 136.069C0.0746657 135.131 0.0959988 134.384 0.0959988 133.829C0.0959988 133.019 0.0639992 132.197 0 131.365C-0.0426674 130.341 -0.0640011 129.659 -0.0640011 129.317C-0.0640011 127.12 0.362666 125.168 1.216 123.461C2.06933 121.755 3.232 120.432 4.704 119.493C6.176 118.555 7.82933 118.085 9.664 118.085C11.7333 118.085 13.568 118.576 15.168 119.557C16.7467 120.517 17.9733 121.819 18.848 123.461C19.7013 125.104 20.128 126.907 20.128 128.869ZM19.552 129.189C19.552 127.589 19.2 126.181 18.496 124.965C17.7707 123.728 16.7253 122.768 15.36 122.085C13.9733 121.381 12.3093 121.029 10.368 121.029C8.512 121.029 6.83733 121.36 5.344 122.021C3.82933 122.661 2.64533 123.589 1.792 124.805C0.917333 126 0.48 127.397 0.48 128.997C0.48 129.915 0.533333 130.619 0.639999 131.109C0.746666 131.6 0.959999 131.963 1.28 132.197C1.57867 132.432 2.03733 132.549 2.656 132.549H17.056C17.9733 132.549 18.624 132.325 19.008 131.877C19.3707 131.408 19.552 130.512 19.552 129.189ZM15.136 98.5241C15.0933 98.5241 15.072 98.4815 15.072 98.3961C15.072 98.3321 15.0933 98.2788 15.136 98.2361C15.1573 98.1721 15.1787 98.1401 15.2 98.1401C16.736 98.3535 18.176 98.4601 19.52 98.4601C19.6907 98.4601 19.8187 98.4921 19.904 98.5561C19.968 98.6201 20 98.7481 20 98.9401V112.572C20 112.636 19.936 112.668 19.808 112.668C19.68 112.668 19.616 112.636 19.616 112.572C19.616 111.804 19.5627 111.249 19.456 110.908C19.3493 110.567 19.1467 110.332 18.848 110.204C18.528 110.076 18.048 110.012 17.408 110.012H2.592C1.952 110.012 1.48267 110.076 1.184 110.204C0.885332 110.332 0.682665 110.577 0.575998 110.94C0.447999 111.281 0.383999 111.825 0.383999 112.572C0.383999 112.636 0.319999 112.668 0.191999 112.668C0.0639998 112.668 0 112.636 0 112.572L0 99.5161C0 99.3028 0.0959994 99.1961 0.287998 99.1961L4.32 99.1321C4.384 99.1321 4.42667 99.1961 4.448 99.3241C4.448 99.4308 4.416 99.4948 4.352 99.5161C3.17867 99.6655 2.29333 100.081 1.696 100.764C1.07733 101.447 0.768 102.343 0.768 103.452L0.768 105.084C0.768 106.023 0.906666 106.652 1.184 106.972C1.44 107.292 1.952 107.452 2.72 107.452H9.216V103.932C9.216 102.844 9.03467 102.044 8.672 101.532C8.288 101.02 7.70133 100.764 6.912 100.764C6.86933 100.764 6.848 100.711 6.848 100.604C6.848 100.476 6.86933 100.412 6.912 100.412L9.6 100.444L11.04 100.412C11.7227 100.369 12.256 100.348 12.64 100.348C12.6827 100.348 12.704 100.412 12.704 100.54C12.704 100.668 12.6827 100.732 12.64 100.732C11.7227 100.732 11.0507 100.999 10.624 101.532C10.176 102.044 9.952 102.876 9.952 104.028V107.452H17.28C18.048 107.452 18.5707 107.313 18.848 107.036C19.1253 106.737 19.264 106.151 19.264 105.276V103.196C19.264 101.98 18.912 100.977 18.208 100.188C17.4827 99.3775 16.4587 98.8228 15.136 98.5241ZM0.639999 87.6764C0.639999 88.999 1.01333 90.0337 1.76 90.7804C2.48533 91.527 3.65867 92.0817 5.28 92.4444C5.32267 92.4657 5.344 92.5404 5.344 92.6684C5.344 92.775 5.32267 92.8284 5.28 92.8284C4.66133 92.743 3.68 92.647 2.336 92.5404C0.991999 92.4337 -0.0213337 92.3804 -0.704 92.3804C-0.810667 92.3804 -0.864 92.3164 -0.864 92.1884C-0.864 92.0604 -0.810667 91.9964 -0.704 91.9964C-0.234667 91.9964 0 91.4097 0 90.2364C0.0639992 88.423 0.0959988 86.279 0.0959988 83.8044C0.0959988 82.5457 0.0746657 81.2124 0.0319996 79.8044L0 77.6284C0 76.839 -0.0533339 76.263 -0.160002 75.9004C-0.266668 75.5377 -0.480001 75.303 -0.800001 75.1964C-0.885335 75.175 -0.928001 75.111 -0.928001 75.0044C-0.928001 74.8764 -0.885335 74.8124 -0.800001 74.8124C-0.202668 74.8764 0.757332 74.951 2.08 75.0364C3.40267 75.1004 4.46933 75.1324 5.28 75.1324C5.32267 75.1324 5.344 75.1964 5.344 75.3244C5.344 75.431 5.32267 75.4844 5.28 75.4844C3.63733 75.6337 2.45333 76.0604 1.728 76.7644C1.00267 77.4684 0.639999 78.5137 0.639999 79.9004C0.639999 80.6897 0.693333 81.255 0.799999 81.5964C0.885333 81.9377 1.06667 82.1724 1.344 82.3004C1.6 82.4284 2.03733 82.4924 2.656 82.4924H17.408C18.0693 82.4924 18.5493 82.4284 18.848 82.3004C19.1467 82.151 19.3493 81.8737 19.456 81.4684C19.5627 81.063 19.616 80.4124 19.616 79.5164C19.616 79.4737 19.68 79.4524 19.808 79.4524C19.936 79.4524 20 79.4737 20 79.5164C20 80.263 19.9893 80.8497 19.968 81.2764L19.936 83.8044L19.968 86.2684C19.9893 86.695 20 87.2924 20 88.0604C20 88.1244 19.936 88.1564 19.808 88.1564C19.68 88.1564 19.616 88.1244 19.616 88.0604C19.616 87.1857 19.5627 86.5457 19.456 86.1404C19.3493 85.735 19.1467 85.4577 18.848 85.3084C18.528 85.159 18.048 85.0844 17.408 85.0844H2.592C1.99467 85.0844 1.568 85.1484 1.312 85.2764C1.03467 85.4044 0.853333 85.639 0.768 85.9804C0.682666 86.3217 0.639999 86.887 0.639999 87.6764ZM19.616 50.7994C19.616 50.714 19.68 50.6714 19.808 50.6714C19.936 50.6714 20 50.714 20 50.7994C20 51.2047 19.9787 51.8554 19.936 52.7514C19.8933 53.6047 19.872 54.234 19.872 54.6394C19.872 55.13 19.8933 55.738 19.936 56.4634C19.9787 57.1887 20 57.7327 20 58.0954C20 58.1807 19.936 58.2234 19.808 58.2234C19.68 58.2234 19.616 58.1807 19.616 58.0954C19.616 57.37 19.552 56.8474 19.424 56.5274C19.2747 56.2074 19.0187 56.0474 18.656 56.0474C18.2933 56.0474 17.792 56.2074 17.152 56.5274L9.728 60.1114V65.9994L15.776 68.6234C16.48 68.922 17.0667 69.0714 17.536 69.0714C18.9227 69.0714 19.616 68.0367 19.616 65.9674C19.616 65.8607 19.68 65.8074 19.808 65.8074C19.936 65.8074 20 65.8607 20 65.9674C20 66.3514 19.9787 66.906 19.936 67.6314C19.8933 68.442 19.872 69.146 19.872 69.7434C19.872 70.298 19.8933 70.9594 19.936 71.7274C19.9787 72.41 20 72.9647 20 73.3914C20 73.4767 19.936 73.5194 19.808 73.5194C19.68 73.5194 19.616 73.4767 19.616 73.3914C19.616 72.794 19.4987 72.2927 19.264 71.8874C19.0293 71.4607 18.624 71.0554 18.048 70.6714C17.472 70.2874 16.6187 69.85 15.488 69.3594L-0.224001 62.5434C-0.288001 62.522 -0.320002 62.4474 -0.320002 62.3194C-0.341335 62.1914 -0.309334 62.1167 -0.224001 62.0954L15.616 54.3834C17.1733 53.658 18.2293 53.0394 18.784 52.5274C19.3387 52.0154 19.616 51.4394 19.616 50.7994ZM8.992 65.7114V60.4634L3.232 63.2154L8.992 65.7114ZM17.408 41.5496C18.048 41.5496 18.528 41.4856 18.848 41.3576C19.1467 41.2296 19.3493 40.995 19.456 40.6536C19.5627 40.291 19.616 39.7256 19.616 38.9576C19.616 38.915 19.68 38.8936 19.808 38.8936C19.936 38.8936 20 38.915 20 38.9576C20 39.6403 19.9893 40.1736 19.968 40.5576L19.936 42.8616L19.968 45.1016C19.9893 45.507 20 46.0616 20 46.7656C20 46.8083 19.936 46.8296 19.808 46.8296C19.68 46.8296 19.616 46.8083 19.616 46.7656C19.616 45.9976 19.5627 45.4323 19.456 45.0696C19.3493 44.707 19.1467 44.4616 18.848 44.3336C18.528 44.2056 18.048 44.1416 17.408 44.1416H2.592C1.952 44.1416 1.48267 44.2056 1.184 44.3336C0.885332 44.4616 0.682665 44.707 0.575998 45.0696C0.447999 45.4323 0.383999 45.9976 0.383999 46.7656C0.383999 46.8083 0.319999 46.8296 0.191999 46.8296C0.0639998 46.8296 0 46.8083 0 46.7656L0.0319996 45.1016C0.0746657 44.163 0.0959988 43.4163 0.0959988 42.8616C0.0959988 42.243 0.0746657 41.4643 0.0319996 40.5256L0 38.9576C0 38.915 0.0639998 38.8936 0.191999 38.8936C0.319999 38.8936 0.383999 38.915 0.383999 38.9576C0.383999 39.7043 0.447999 40.259 0.575998 40.6216C0.703999 40.9843 0.927999 41.2296 1.248 41.3576C1.54667 41.4856 2.016 41.5496 2.656 41.5496H17.408ZM17.28 28.7189C17.8773 28.7189 18.3147 28.6655 18.592 28.5589C18.848 28.4309 19.0293 28.2069 19.136 27.8869C19.2213 27.5669 19.264 27.0655 19.264 26.3829V23.6629C19.264 22.3189 18.8693 21.2095 18.08 20.3349C17.2693 19.4389 16.1813 18.8415 14.816 18.5429C14.752 18.5429 14.7307 18.4895 14.752 18.3829C14.752 18.2549 14.784 18.1909 14.848 18.1909C16.7253 18.3829 18.2827 18.4789 19.52 18.4789C19.6907 18.4789 19.8187 18.5215 19.904 18.6069C19.968 18.6709 20 18.7882 20 18.9589V33.8709C20 33.9135 19.936 33.9349 19.808 33.9349C19.68 33.9349 19.616 33.9135 19.616 33.8709C19.616 33.1029 19.5627 32.5482 19.456 32.2069C19.3493 31.8442 19.1467 31.5989 18.848 31.4709C18.528 31.3429 18.048 31.2789 17.408 31.2789H2.592C1.952 31.2789 1.48267 31.3429 1.184 31.4709C0.885332 31.5989 0.682665 31.8442 0.575998 32.2069C0.447999 32.5482 0.383999 33.1029 0.383999 33.8709C0.383999 33.9135 0.319999 33.9349 0.191999 33.9349C0.0639998 33.9349 0 33.9135 0 33.8709L0.0319996 32.2709C0.0746657 31.3322 0.0959988 30.5749 0.0959988 29.9989C0.0959988 29.4229 0.0746657 28.6655 0.0319996 27.7269L0 26.1269C0 26.0842 0.0639998 26.0629 0.191999 26.0629C0.319999 26.0629 0.383999 26.0842 0.383999 26.1269C0.383999 26.8735 0.447999 27.4282 0.575998 27.7909C0.682665 28.1535 0.895999 28.3989 1.216 28.5269C1.51467 28.6549 1.984 28.7189 2.624 28.7189H17.28ZM3.584 10.2514C4.39467 10.2514 5.10933 10.0487 5.728 9.64338C6.32533 9.23805 6.848 8.74738 7.296 8.17138C7.72267 7.59538 8.24533 6.79538 8.864 5.77138C9.52533 4.70472 10.1013 3.86205 10.592 3.24338C11.0613 2.60338 11.648 2.05938 12.352 1.61138C13.056 1.16338 13.888 0.939382 14.848 0.939382C15.8933 0.939382 16.8427 1.21671 17.696 1.77138C18.528 2.30471 19.1893 3.08338 19.68 4.10738C20.1493 5.11005 20.384 6.28338 20.384 7.62738C20.384 8.48072 20.2773 9.32338 20.064 10.1554C19.872 10.9874 19.584 11.7127 19.2 12.3314C19.136 12.438 19.0613 12.5127 18.976 12.5554C18.8907 12.598 18.7627 12.6194 18.592 12.6194L14.016 12.9394C13.9307 12.9607 13.8773 12.918 13.856 12.8114C13.8347 12.6834 13.8667 12.6087 13.952 12.5874C15.5733 12.0754 16.9493 11.3607 18.08 10.4434C19.2107 9.52605 19.776 8.33138 19.776 6.85938C19.776 5.85672 19.5093 5.02472 18.976 4.36338C18.4213 3.68072 17.5253 3.33938 16.288 3.33938C15.3493 3.33938 14.528 3.55272 13.824 3.97938C13.12 4.40605 12.5333 4.92872 12.064 5.54738C11.5733 6.14472 11.0187 6.95538 10.4 7.97938C9.76 8.98205 9.216 9.78205 8.768 10.3794C8.29867 10.9554 7.73333 11.446 7.072 11.8514C6.38933 12.2567 5.6 12.4594 4.704 12.4594C3.616 12.4594 2.688 12.1714 1.92 11.5954C1.152 10.998 0.586666 10.23 0.223999 9.29138C-0.160001 8.33138 -0.352001 7.32872 -0.352001 6.28338C-0.352001 4.85405 -0.106668 3.56338 0.383999 2.41138C0.511998 2.09138 0.703999 1.93138 0.959999 1.93138L4.96 1.77138C5.04533 1.77138 5.09867 1.82471 5.12 1.93138C5.14133 2.03805 5.10933 2.10205 5.024 2.12338C3.872 2.35805 2.784 2.85938 1.76 3.62738C0.714666 4.39538 0.191999 5.48338 0.191999 6.89138C0.191999 7.95805 0.511999 8.79005 1.152 9.38738C1.792 9.96338 2.60267 10.2514 3.584 10.2514Z" fill="#FBFFF3"/>
</svg>
