<svg width="32" height="325" viewBox="0 0 32 325" fill="none" xmlns="http://www.w3.org/2000/svg">
<path d="M32.2 310.105C32.2 311.105 32.15 312.255 32.05 313.555C32.0167 314.055 31.9833 314.672 31.95 315.405C31.9167 316.139 31.9 316.955 31.9 317.855L31.95 321.355C31.9833 321.989 32 322.855 32 323.955C32 324.022 31.9 324.055 31.7 324.055C31.5 324.055 31.4 324.022 31.4 323.955C31.4 322.755 31.3167 321.872 31.15 321.305C30.9833 320.739 30.6667 320.355 30.2 320.155C29.7 319.955 28.95 319.855 27.95 319.855H4.8C3.8 319.855 3.06667 319.955 2.6 320.155C2.13333 320.355 1.81666 320.739 1.65 321.305C1.45 321.839 1.35 322.689 1.35 323.855C1.35 323.955 1.25 324.005 1.05 324.005C0.85 324.005 0.75 323.955 0.75 323.855L0.799999 321.355C0.866665 319.889 0.899998 318.722 0.899998 317.855C0.899998 316.589 0.849999 315.305 0.75 314.005C0.683332 312.405 0.649998 311.339 0.649998 310.805C0.649998 307.372 1.31667 304.322 2.65 301.655C3.98333 298.989 5.8 296.922 8.1 295.455C10.4 293.989 12.9833 293.255 15.85 293.255C19.0833 293.255 21.95 294.022 24.45 295.555C26.9167 297.055 28.8333 299.089 30.2 301.655C31.5333 304.222 32.2 307.039 32.2 310.105ZM31.3 310.605C31.3 308.105 30.75 305.905 29.65 304.005C28.5167 302.072 26.8833 300.572 24.75 299.505C22.5833 298.405 19.9833 297.855 16.95 297.855C14.05 297.855 11.4333 298.372 9.1 299.405C6.73333 300.405 4.88333 301.855 3.55 303.755C2.18333 305.622 1.5 307.805 1.5 310.305C1.5 311.739 1.58333 312.839 1.75 313.605C1.91667 314.372 2.25 314.939 2.75 315.305C3.21666 315.672 3.93333 315.855 4.9 315.855H27.4C28.8333 315.855 29.85 315.505 30.45 314.805C31.0167 314.072 31.3 312.672 31.3 310.605ZM31.4 252.241C31.4 252.174 31.5 252.141 31.7 252.141C31.9 252.141 32 252.174 32 252.241V259.491C32 260.291 30.5833 261.808 27.75 264.041C24.8833 266.241 20.9667 268.874 16 271.941C16.1667 272.708 16.25 273.441 16.25 274.141C16.25 274.774 16.2167 275.591 16.15 276.591H27.95C28.95 276.591 29.7 276.491 30.2 276.291C30.6667 276.091 30.9833 275.724 31.15 275.191C31.3167 274.624 31.4 273.741 31.4 272.541C31.4 272.441 31.5 272.391 31.7 272.391C31.9 272.391 32 272.441 32 272.541C32 273.574 31.9833 274.391 31.95 274.991L31.9 278.591L31.95 282.091C31.9833 282.724 32 283.574 32 284.641C32 284.741 31.9 284.791 31.7 284.791C31.5 284.791 31.4 284.741 31.4 284.641C31.4 283.441 31.3167 282.558 31.15 281.991C30.9833 281.424 30.6667 281.041 30.2 280.841C29.7 280.641 28.95 280.541 27.95 280.541H4.8C3.8 280.541 3.06667 280.641 2.6 280.841C2.13333 281.041 1.81666 281.424 1.65 281.991C1.45 282.524 1.35 283.391 1.35 284.591C1.35 284.658 1.25 284.691 1.05 284.691C0.85 284.691 0.75 284.658 0.75 284.591L0.799999 282.091C0.866665 280.624 0.899998 279.458 0.899998 278.591C0.899998 277.991 0.883332 277.424 0.849999 276.891C0.816666 276.358 0.783333 275.891 0.75 275.491C0.649999 274.391 0.599999 273.358 0.599999 272.391C0.599999 269.558 1.16667 267.374 2.3 265.841C3.4 264.308 4.93333 263.541 6.9 263.541C8.46667 263.541 9.95 264.008 11.35 264.941C12.75 265.874 13.8833 267.091 14.75 268.591C18.9833 265.791 22.3 263.458 24.7 261.591C27.0667 259.691 28.7833 258.008 29.85 256.541C30.8833 255.074 31.4 253.641 31.4 252.241ZM14.85 276.591C14.9833 275.324 15.05 274.341 15.05 273.641C15.05 271.508 14.5833 269.991 13.65 269.091C12.6833 268.158 11.0333 267.691 8.7 267.691C6.06667 267.691 4.2 268.191 3.1 269.191C2 270.191 1.45 271.574 1.45 273.341C1.45 274.208 1.53333 274.874 1.7 275.341C1.86667 275.774 2.2 276.091 2.7 276.291C3.16667 276.491 3.9 276.591 4.9 276.591H14.85ZM24.4 224.658C24.3333 224.658 24.3 224.591 24.3 224.458C24.3 224.358 24.3333 224.274 24.4 224.208C24.4333 224.108 24.4667 224.058 24.5 224.058C26.9 224.391 29.15 224.558 31.25 224.558C31.5167 224.558 31.7167 224.608 31.85 224.708C31.95 224.808 32 225.008 32 225.308V246.608C32 246.708 31.9 246.758 31.7 246.758C31.5 246.758 31.4 246.708 31.4 246.608C31.4 245.408 31.3167 244.541 31.15 244.008C30.9833 243.474 30.6667 243.108 30.2 242.908C29.7 242.708 28.95 242.608 27.95 242.608H4.8C3.8 242.608 3.06667 242.708 2.6 242.908C2.13333 243.108 1.81666 243.491 1.65 244.058C1.45 244.591 1.35 245.441 1.35 246.608C1.35 246.708 1.25 246.758 1.05 246.758C0.85 246.758 0.75 246.708 0.75 246.608L0.75 226.208C0.75 225.874 0.899999 225.708 1.2 225.708L7.5 225.608C7.6 225.608 7.66667 225.708 7.7 225.908C7.7 226.074 7.65 226.174 7.55 226.208C5.71667 226.441 4.33333 227.091 3.4 228.158C2.43333 229.224 1.95 230.624 1.95 232.358L1.95 234.908C1.95 236.374 2.16667 237.358 2.6 237.858C3 238.358 3.8 238.608 5 238.608H15.15V233.108C15.15 231.408 14.8667 230.158 14.3 229.358C13.7 228.558 12.7833 228.158 11.55 228.158C11.4833 228.158 11.45 228.074 11.45 227.908C11.45 227.708 11.4833 227.608 11.55 227.608L15.75 227.658L18 227.608C19.0667 227.541 19.9 227.508 20.5 227.508C20.5667 227.508 20.6 227.608 20.6 227.808C20.6 228.008 20.5667 228.108 20.5 228.108C19.0667 228.108 18.0167 228.524 17.35 229.358C16.65 230.158 16.3 231.458 16.3 233.258V238.608H27.75C28.95 238.608 29.7667 238.391 30.2 237.958C30.6333 237.491 30.85 236.574 30.85 235.208V231.958C30.85 230.058 30.3 228.491 29.2 227.258C28.0667 225.991 26.4667 225.124 24.4 224.658ZM6.35 209.958C7.61667 209.958 8.73333 209.642 9.7 209.008C10.6333 208.375 11.45 207.608 12.15 206.708C12.8167 205.808 13.6333 204.558 14.6 202.958C15.6333 201.292 16.5333 199.975 17.3 199.008C18.0333 198.008 18.95 197.158 20.05 196.458C21.15 195.758 22.45 195.408 23.95 195.408C25.5833 195.408 27.0667 195.842 28.4 196.708C29.7 197.542 30.7333 198.758 31.5 200.358C32.2333 201.925 32.6 203.758 32.6 205.858C32.6 207.192 32.4333 208.508 32.1 209.808C31.8 211.108 31.35 212.242 30.75 213.208C30.65 213.375 30.5333 213.492 30.4 213.558C30.2667 213.625 30.0667 213.658 29.8 213.658L22.65 214.158C22.5167 214.192 22.4333 214.125 22.4 213.958C22.3667 213.758 22.4167 213.642 22.55 213.608C25.0833 212.808 27.2333 211.692 29 210.258C30.7667 208.825 31.65 206.958 31.65 204.658C31.65 203.092 31.2333 201.792 30.4 200.758C29.5333 199.692 28.1333 199.158 26.2 199.158C24.7333 199.158 23.45 199.492 22.35 200.158C21.25 200.825 20.3333 201.642 19.6 202.608C18.8333 203.542 17.9667 204.808 17 206.408C16 207.975 15.15 209.225 14.45 210.158C13.7167 211.058 12.8333 211.825 11.8 212.458C10.7333 213.092 9.5 213.408 8.1 213.408C6.4 213.408 4.95 212.958 3.75 212.058C2.55 211.125 1.66667 209.925 1.1 208.458C0.499998 206.958 0.199998 205.392 0.199998 203.758C0.199998 201.525 0.583332 199.508 1.35 197.708C1.55 197.208 1.85 196.958 2.25 196.958L8.5 196.708C8.63333 196.708 8.71667 196.792 8.75 196.958C8.78333 197.125 8.73333 197.225 8.6 197.258C6.8 197.625 5.1 198.408 3.5 199.608C1.86667 200.808 1.05 202.508 1.05 204.708C1.05 206.375 1.55 207.675 2.55 208.608C3.55 209.508 4.81667 209.958 6.35 209.958ZM6.35 181.007C7.61667 181.007 8.73333 180.69 9.7 180.057C10.6333 179.424 11.45 178.657 12.15 177.757C12.8167 176.857 13.6333 175.607 14.6 174.007C15.6333 172.34 16.5333 171.024 17.3 170.057C18.0333 169.057 18.95 168.207 20.05 167.507C21.15 166.807 22.45 166.457 23.95 166.457C25.5833 166.457 27.0667 166.89 28.4 167.757C29.7 168.59 30.7333 169.807 31.5 171.407C32.2333 172.974 32.6 174.807 32.6 176.907C32.6 178.24 32.4333 179.557 32.1 180.857C31.8 182.157 31.35 183.29 30.75 184.257C30.65 184.424 30.5333 184.54 30.4 184.607C30.2667 184.674 30.0667 184.707 29.8 184.707L22.65 185.207C22.5167 185.24 22.4333 185.174 22.4 185.007C22.3667 184.807 22.4167 184.69 22.55 184.657C25.0833 183.857 27.2333 182.74 29 181.307C30.7667 179.874 31.65 178.007 31.65 175.707C31.65 174.14 31.2333 172.84 30.4 171.807C29.5333 170.74 28.1333 170.207 26.2 170.207C24.7333 170.207 23.45 170.54 22.35 171.207C21.25 171.874 20.3333 172.69 19.6 173.657C18.8333 174.59 17.9667 175.857 17 177.457C16 179.024 15.15 180.274 14.45 181.207C13.7167 182.107 12.8333 182.874 11.8 183.507C10.7333 184.14 9.5 184.457 8.1 184.457C6.4 184.457 4.95 184.007 3.75 183.107C2.55 182.174 1.66667 180.974 1.1 179.507C0.499998 178.007 0.199998 176.44 0.199998 174.807C0.199998 172.574 0.583332 170.557 1.35 168.757C1.55 168.257 1.85 168.007 2.25 168.007L8.5 167.757C8.63333 167.757 8.71667 167.84 8.75 168.007C8.78333 168.174 8.73333 168.274 8.6 168.307C6.8 168.674 5.1 169.457 3.5 170.657C1.86667 171.857 1.05 173.557 1.05 175.757C1.05 177.424 1.55 178.724 2.55 179.657C3.55 180.557 4.81667 181.007 6.35 181.007ZM0.199998 123.187C0.199998 121.654 0.349998 120.07 0.649998 118.437C0.916666 116.804 1.3 115.504 1.8 114.537C1.93333 114.27 2.08333 114.104 2.25 114.037C2.38333 113.937 2.63333 113.854 3 113.787L9.05 113.237C9.15 113.237 9.21667 113.32 9.25 113.487C9.25 113.654 9.2 113.754 9.1 113.787C6.5 114.654 4.56667 116.07 3.3 118.037C2 120.004 1.35 122.37 1.35 125.137C1.35 127.57 1.91666 129.687 3.05 131.487C4.15 133.287 5.71667 134.67 7.75 135.637C9.78333 136.57 12.1333 137.037 14.8 137.037C17.9 137.037 20.75 136.437 23.35 135.237C25.95 134.037 28.0167 132.42 29.55 130.387C31.05 128.32 31.8 126.07 31.8 123.637C31.8 118.837 29.05 115.404 23.55 113.337C23.45 113.337 23.4 113.27 23.4 113.137C23.4 113.037 23.4167 112.954 23.45 112.887C23.4833 112.787 23.5333 112.737 23.6 112.737L29.65 113.437C30.05 113.504 30.3167 113.587 30.45 113.687C30.55 113.754 30.6667 113.937 30.8 114.237C32 117.304 32.6 120.437 32.6 123.637C32.6 127.67 31.8 131.037 30.2 133.737C28.5667 136.437 26.5 138.42 24 139.687C21.5 140.954 18.8833 141.587 16.15 141.587C13.05 141.587 10.3 140.737 7.9 139.037C5.46667 137.304 3.58333 135.037 2.25 132.237C0.883332 129.404 0.199998 126.387 0.199998 123.187ZM32.6 88.2898C32.6 91.3898 31.8833 94.1565 30.45 96.5898C28.9833 98.9898 27.0167 100.857 24.55 102.19C22.05 103.49 19.3333 104.14 16.4 104.14C12.9667 104.14 10.0333 103.273 7.6 101.54C5.13333 99.8065 3.28333 97.5898 2.05 94.8898C0.816665 92.1565 0.199998 89.3732 0.199998 86.5398C0.199998 83.3732 0.949998 80.5898 2.45 78.1898C3.91666 75.7898 5.86666 73.9565 8.3 72.6898C10.7333 71.3898 13.3167 70.7398 16.05 70.7398C19.0833 70.7398 21.8667 71.5398 24.4 73.1398C26.9333 74.7398 28.9333 76.8898 30.4 79.5898C31.8667 82.2565 32.6 85.1565 32.6 88.2898ZM31.5 86.5398C31.5 84.4065 30.95 82.4898 29.85 80.7898C28.75 79.0898 27.15 77.7565 25.05 76.7898C22.9167 75.7898 20.3833 75.2898 17.45 75.2898C14.35 75.2898 11.5833 75.8398 9.15 76.9398C6.71667 78.0065 4.81666 79.5565 3.45 81.5898C2.08333 83.5898 1.4 85.9232 1.4 88.5898C1.4 92.0565 2.58333 94.7565 4.95 96.6898C7.28333 98.6232 10.5167 99.5898 14.65 99.5898C17.8167 99.5898 20.6833 99.0398 23.25 97.9398C25.8167 96.8398 27.8333 95.3065 29.3 93.3398C30.7667 91.3398 31.5 89.0732 31.5 86.5398ZM32.2 48.8086C32.2 49.8086 32.15 50.9586 32.05 52.2586C32.0167 52.7586 31.9833 53.3753 31.95 54.1086C31.9167 54.8419 31.9 55.6586 31.9 56.5586L31.95 60.0586C31.9833 60.6919 32 61.5586 32 62.6586C32 62.7253 31.9 62.7586 31.7 62.7586C31.5 62.7586 31.4 62.7253 31.4 62.6586C31.4 61.4586 31.3167 60.5753 31.15 60.0086C30.9833 59.4419 30.6667 59.0586 30.2 58.8586C29.7 58.6586 28.95 58.5586 27.95 58.5586H4.8C3.8 58.5586 3.06667 58.6586 2.6 58.8586C2.13333 59.0586 1.81666 59.4419 1.65 60.0086C1.45 60.5419 1.35 61.3919 1.35 62.5586C1.35 62.6586 1.25 62.7086 1.05 62.7086C0.85 62.7086 0.75 62.6586 0.75 62.5586L0.799999 60.0586C0.866665 58.5919 0.899998 57.4253 0.899998 56.5586C0.899998 55.2919 0.849999 54.0086 0.75 52.7086C0.683332 51.1086 0.649998 50.0419 0.649998 49.5086C0.649998 46.0753 1.31667 43.0253 2.65 40.3586C3.98333 37.6919 5.8 35.6253 8.1 34.1586C10.4 32.6919 12.9833 31.9586 15.85 31.9586C19.0833 31.9586 21.95 32.7253 24.45 34.2586C26.9167 35.7586 28.8333 37.7919 30.2 40.3586C31.5333 42.9253 32.2 45.7419 32.2 48.8086ZM31.3 49.3086C31.3 46.8086 30.75 44.6086 29.65 42.7086C28.5167 40.7753 26.8833 39.2753 24.75 38.2086C22.5833 37.1086 19.9833 36.5586 16.95 36.5586C14.05 36.5586 11.4333 37.0753 9.1 38.1086C6.73333 39.1086 4.88333 40.5586 3.55 42.4586C2.18333 44.3253 1.5 46.5086 1.5 49.0086C1.5 50.4419 1.58333 51.5419 1.75 52.3086C1.91667 53.0753 2.25 53.6419 2.75 54.0086C3.21666 54.3753 3.93333 54.5586 4.9 54.5586H27.4C28.8333 54.5586 29.85 54.2086 30.45 53.5086C31.0167 52.7753 31.3 51.3753 31.3 49.3086ZM24.4 1.39414C24.3333 1.39414 24.3 1.32747 24.3 1.19414C24.3 1.09414 24.3333 1.01081 24.4 0.944139C24.4333 0.84414 24.4667 0.79414 24.5 0.79414C26.9 1.12747 29.15 1.29414 31.25 1.29414C31.5167 1.29414 31.7167 1.34414 31.85 1.44414C31.95 1.54414 32 1.74414 32 2.04414L32 23.3441C32 23.4441 31.9 23.4941 31.7 23.4941C31.5 23.4941 31.4 23.4441 31.4 23.3441C31.4 22.1441 31.3167 21.2775 31.15 20.7441C30.9833 20.2108 30.6667 19.8441 30.2 19.6441C29.7 19.4441 28.95 19.3441 27.95 19.3441H4.8C3.8 19.3441 3.06667 19.4441 2.6 19.6441C2.13333 19.8441 1.81666 20.2275 1.65 20.7941C1.45 21.3275 1.35 22.1775 1.35 23.3441C1.35 23.4441 1.25 23.4941 1.05 23.4941C0.85 23.4941 0.75 23.4441 0.75 23.3441L0.75 2.94414C0.75 2.61081 0.899999 2.44414 1.2 2.44414L7.5 2.34414C7.6 2.34414 7.66667 2.44414 7.7 2.64414C7.7 2.81081 7.65 2.91081 7.55 2.94414C5.71667 3.17747 4.33333 3.82747 3.4 4.89414C2.43333 5.96081 1.95 7.36081 1.95 9.09414L1.95 11.6441C1.95 13.1108 2.16667 14.0941 2.6 14.5941C3 15.0941 3.8 15.3441 5 15.3441H15.15V9.84414C15.15 8.14414 14.8667 6.89414 14.3 6.09414C13.7 5.29414 12.7833 4.89414 11.55 4.89414C11.4833 4.89414 11.45 4.81081 11.45 4.64414C11.45 4.44414 11.4833 4.34414 11.55 4.34414L15.75 4.39414L18 4.34414C19.0667 4.27747 19.9 4.24414 20.5 4.24414C20.5667 4.24414 20.6 4.34414 20.6 4.54414C20.6 4.74414 20.5667 4.84414 20.5 4.84414C19.0667 4.84414 18.0167 5.26081 17.35 6.09414C16.65 6.89414 16.3 8.19414 16.3 9.99414V15.3441H27.75C28.95 15.3441 29.7667 15.1275 30.2 14.6941C30.6333 14.2275 30.85 13.3108 30.85 11.9441V8.69414C30.85 6.79414 30.3 5.22747 29.2 3.99414C28.0667 2.72747 26.4667 1.86081 24.4 1.39414Z" fill="#DEE5CE"/>
</svg>
