<svg width="177" height="165" viewBox="0 0 177 165" fill="none" xmlns="http://www.w3.org/2000/svg">
<path d="M71.136 5.704H73.824V73H71.136V7.62399L40.896 74.92H40.224L10.368 7.912V73H9.6V5.704H12.384L41.568 71.368L71.136 5.704Z" fill="black"/>
<path d="M83.6 141V73.704H86.288V105H100.88C102.032 83.016 119.504 71.784 135.152 71.784C151.28 71.784 169.52 83.784 169.52 107.4C169.52 130.92 151.28 142.92 135.152 142.92C118.928 142.92 100.784 130.92 100.784 107.4V105.768H86.288V141H83.6ZM135.152 142.152C149.744 142.152 166.256 130.44 166.256 107.4C166.256 84.264 149.744 72.552 135.152 72.552C120.56 72.552 104.048 84.264 104.048 107.4C104.048 130.44 120.56 142.152 135.152 142.152Z" fill="black"/>
<line x1="72" y1="6" x2="72" y2="141" stroke="black" stroke-width="2"/>
<line x1="87" y1="6" x2="87" y2="141" stroke="black" stroke-width="2"/>
<g clip-path="url(#clip0_158_242)">
<rect width="13" height="136" transform="translate(73 5)" fill="white"/>
<path d="M83.808 129.088C83.808 129.056 83.84 129.04 83.904 129.04C83.968 129.04 84 129.056 84 129.088C84 129.419 83.9947 129.68 83.984 129.872L83.968 130.944L83.984 131.936C83.9947 132.096 84 132.32 84 132.608C84 132.629 83.968 132.64 83.904 132.64C83.84 132.64 83.808 132.629 83.808 132.608C83.808 132.235 83.7813 131.963 83.728 131.792C83.664 131.611 83.5573 131.493 83.408 131.44C83.2587 131.376 83.024 131.355 82.704 131.376L75.264 131.648L83.888 135.392C83.9307 135.413 83.952 135.456 83.952 135.52C83.952 135.573 83.9307 135.621 83.888 135.664L75.328 139.568L75.296 139.584L82.336 139.712C82.8907 139.723 83.2747 139.632 83.488 139.44C83.7013 139.248 83.808 138.891 83.808 138.368C83.808 138.347 83.84 138.336 83.904 138.336C83.968 138.336 84 138.347 84 138.368C84 138.667 83.9947 138.896 83.984 139.056L83.968 139.92L83.984 140.704C83.9947 140.843 84 141.051 84 141.328C84 141.349 83.968 141.36 83.904 141.36C83.84 141.36 83.808 141.349 83.808 141.328C83.808 140.88 83.7013 140.565 83.488 140.384C83.264 140.192 82.88 140.091 82.336 140.08L74.752 139.92C74.3787 140.251 74.192 140.683 74.192 141.216C74.192 141.237 74.16 141.248 74.096 141.248C74.032 141.248 74 141.237 74 141.216L74.016 140.672C74.0267 140.565 74.032 140.427 74.032 140.256C74.032 140.085 74.0267 139.941 74.016 139.824C74.0053 139.707 74 139.616 74 139.552C74 139.403 74.0533 139.285 74.16 139.2C74.256 139.115 74.48 138.987 74.832 138.816L82.608 135.216L74.4 131.632C74.2827 131.579 74.1867 131.509 74.112 131.424C74.0373 131.328 74 131.237 74 131.152C74 131.109 74.0053 131.04 74.016 130.944C74.0267 130.848 74.032 130.715 74.032 130.544L74.016 129.824C74.0053 129.717 74 129.552 74 129.328C74 129.307 74.032 129.296 74.096 129.296C74.16 129.296 74.192 129.307 74.192 129.328C74.192 129.883 74.2667 130.277 74.416 130.512C74.5547 130.736 74.8373 130.843 75.264 130.832L82.704 130.528C83.0347 130.517 83.2747 130.48 83.424 130.416C83.5733 130.341 83.6747 130.208 83.728 130.016C83.7813 129.813 83.808 129.504 83.808 129.088ZM83.12 120.175C83.12 120.132 83.1467 120.105 83.2 120.095C83.2427 120.073 83.2747 120.084 83.296 120.127L84.128 121.919L84.144 121.983C84.144 122.079 84.0267 122.18 83.792 122.287C83.5467 122.383 83.2373 122.431 82.864 122.431H82.72C83.2107 122.868 83.568 123.3 83.792 123.727C84.0053 124.153 84.112 124.591 84.112 125.039C84.112 125.561 83.9467 125.972 83.616 126.271C83.2853 126.559 82.8 126.703 82.16 126.703H79.68C79.2427 126.703 78.9333 126.74 78.752 126.815C78.56 126.879 78.464 126.996 78.464 127.167C78.464 127.327 78.5173 127.519 78.624 127.743V127.775C78.624 127.817 78.5973 127.849 78.544 127.871C78.4907 127.881 78.4587 127.865 78.448 127.823L77.696 126.143L77.68 126.079C77.68 126.057 77.6907 126.031 77.712 125.999C77.7333 125.967 77.76 125.951 77.792 125.951H81.68C82.32 125.951 82.7947 125.839 83.104 125.615C83.4133 125.391 83.568 125.055 83.568 124.607C83.568 124.233 83.472 123.855 83.28 123.471C83.0773 123.087 82.8 122.74 82.448 122.431H79.68C79.2427 122.431 78.9333 122.468 78.752 122.543C78.56 122.607 78.464 122.729 78.464 122.911C78.464 123.071 78.5173 123.263 78.624 123.487V123.519C78.624 123.561 78.5973 123.588 78.544 123.599C78.4907 123.609 78.4587 123.593 78.448 123.551L77.696 121.871L77.68 121.823C77.68 121.791 77.6907 121.764 77.712 121.743C77.7333 121.711 77.76 121.695 77.792 121.695H82.32C82.6827 121.695 82.9493 121.652 83.12 121.567C83.28 121.471 83.36 121.316 83.36 121.103C83.36 120.996 83.3387 120.868 83.296 120.719C83.2427 120.559 83.184 120.388 83.12 120.207V120.175ZM83.808 112.475C83.808 112.454 83.84 112.443 83.904 112.443C83.968 112.443 84 112.454 84 112.475L83.984 112.987C83.9733 113.094 83.968 113.254 83.968 113.467L83.984 114.475C83.9947 114.624 84 114.827 84 115.083C84 115.115 83.968 115.131 83.904 115.131C83.84 115.131 83.808 115.115 83.808 115.083C83.808 114.88 83.7973 114.736 83.776 114.651C83.744 114.555 83.6907 114.507 83.616 114.507C83.552 114.507 83.408 114.576 83.184 114.715L81.28 115.979L82.8 117.035C82.928 117.12 83.0507 117.195 83.168 117.259C83.2747 117.312 83.3707 117.339 83.456 117.339C83.6907 117.339 83.808 117.019 83.808 116.379C83.808 116.347 83.84 116.331 83.904 116.331C83.968 116.331 84 116.347 84 116.379C84 116.667 83.9947 116.88 83.984 117.019L83.968 117.979L83.984 118.539C83.9947 118.646 84 118.811 84 119.035C84 119.056 83.968 119.067 83.904 119.067C83.84 119.067 83.808 119.056 83.808 119.035C83.808 118.768 83.7173 118.48 83.536 118.171C83.344 117.851 83.0667 117.563 82.704 117.307L81.056 116.123L79.152 117.387C78.7467 117.654 78.4587 117.931 78.288 118.219C78.1067 118.507 78.016 118.774 78.016 119.019C78.016 119.04 77.984 119.051 77.92 119.051C77.856 119.051 77.824 119.04 77.824 119.019C77.824 118.795 77.8293 118.63 77.84 118.523L77.856 118.027L77.84 117.019C77.8293 116.87 77.824 116.667 77.824 116.411C77.824 116.39 77.856 116.379 77.92 116.379C77.984 116.379 78.016 116.39 78.016 116.411C78.016 116.614 78.032 116.763 78.064 116.859C78.0853 116.944 78.1333 116.987 78.208 116.987C78.272 116.987 78.416 116.918 78.64 116.779L80.384 115.627L79.024 114.715C78.7147 114.491 78.4907 114.379 78.352 114.379C78.2347 114.379 78.1493 114.454 78.096 114.603C78.0427 114.752 78.016 115.008 78.016 115.371C78.016 115.392 77.984 115.403 77.92 115.403C77.856 115.403 77.824 115.392 77.824 115.371C77.824 115.083 77.8293 114.864 77.84 114.715L77.856 113.755L77.84 113.195C77.8293 113.088 77.824 112.923 77.824 112.699C77.824 112.678 77.856 112.667 77.92 112.667C77.984 112.667 78.016 112.678 78.016 112.699C78.016 112.976 78.1067 113.264 78.288 113.563C78.4587 113.862 78.736 114.15 79.12 114.427L80.576 115.499L82.672 114.107C83.0773 113.84 83.3707 113.563 83.552 113.275C83.7227 112.987 83.808 112.72 83.808 112.475ZM83.104 103.716C83.104 103.673 83.1307 103.646 83.184 103.636C83.2267 103.625 83.2533 103.641 83.264 103.684L84.112 105.46L84.128 105.524C84.128 105.62 83.9947 105.721 83.728 105.828C83.4507 105.924 83.12 105.972 82.736 105.972C83.1627 106.356 83.504 106.761 83.76 107.188C84.016 107.604 84.144 108.062 84.144 108.564C84.144 109.214 83.9093 109.758 83.44 110.196C82.96 110.633 82.2933 110.852 81.44 110.852C80.672 110.852 80 110.67 79.424 110.308C78.8373 109.945 78.3893 109.492 78.08 108.948C77.7707 108.393 77.616 107.854 77.616 107.332C77.616 107.044 77.664 106.766 77.76 106.5C77.8453 106.222 77.9627 105.977 78.112 105.764C78.016 105.593 77.8773 105.465 77.696 105.38C77.6853 105.369 77.6853 105.342 77.696 105.3C77.696 105.257 77.7067 105.236 77.728 105.236H82.304C82.6667 105.236 82.9333 105.193 83.104 105.108C83.264 105.012 83.344 104.857 83.344 104.644C83.344 104.537 83.3227 104.409 83.28 104.26C83.2267 104.1 83.168 103.929 83.104 103.748V103.716ZM83.696 108.1C83.696 107.428 83.2907 106.718 82.48 105.972H79.28C78.896 105.972 78.576 106.153 78.32 106.516C78.0533 106.878 77.92 107.284 77.92 107.732C77.92 108.382 78.208 108.916 78.784 109.332C79.3493 109.737 80.0853 109.94 80.992 109.94C81.792 109.94 82.4427 109.774 82.944 109.444C83.4453 109.113 83.696 108.665 83.696 108.1ZM83.12 95.056C83.12 95.0133 83.1467 94.9867 83.2 94.976C83.2427 94.9547 83.2747 94.9653 83.296 95.008L84.128 96.8L84.144 96.864C84.144 96.96 84.0267 97.0613 83.792 97.168C83.5467 97.264 83.2373 97.312 82.864 97.312H82.72C83.2107 97.7493 83.568 98.1813 83.792 98.608C84.0053 99.0347 84.112 99.472 84.112 99.92C84.112 100.443 83.9467 100.853 83.616 101.152C83.2853 101.44 82.8 101.584 82.16 101.584H79.68C79.2427 101.584 78.9333 101.621 78.752 101.696C78.56 101.76 78.464 101.877 78.464 102.048C78.464 102.208 78.5173 102.4 78.624 102.624V102.656C78.624 102.699 78.5973 102.731 78.544 102.752C78.4907 102.763 78.4587 102.747 78.448 102.704L77.696 101.024L77.68 100.96C77.68 100.939 77.6907 100.912 77.712 100.88C77.7333 100.848 77.76 100.832 77.792 100.832H81.68C82.32 100.832 82.7947 100.72 83.104 100.496C83.4133 100.272 83.568 99.936 83.568 99.488C83.568 99.1147 83.472 98.736 83.28 98.352C83.0773 97.968 82.8 97.6213 82.448 97.312H79.68C79.2427 97.312 78.9333 97.3493 78.752 97.424C78.56 97.488 78.464 97.6107 78.464 97.792C78.464 97.952 78.5173 98.144 78.624 98.368V98.4C78.624 98.4427 78.5973 98.4693 78.544 98.48C78.4907 98.4907 78.4587 98.4747 78.448 98.432L77.696 96.752L77.68 96.704C77.68 96.672 77.6907 96.6453 77.712 96.624C77.7333 96.592 77.76 96.576 77.792 96.576H82.32C82.6827 96.576 82.9493 96.5333 83.12 96.448C83.28 96.352 83.36 96.1973 83.36 95.984C83.36 95.8773 83.3387 95.7493 83.296 95.6C83.2427 95.44 83.184 95.2693 83.12 95.088V95.056ZM83.808 86.7687C83.808 86.7154 83.84 86.6887 83.904 86.6887C83.968 86.6887 84 86.7154 84 86.7687C84 86.9287 83.9893 87.1687 83.968 87.4887C83.9467 87.8087 83.936 88.0487 83.936 88.2087C83.936 88.3474 83.9467 88.5554 83.968 88.8327C83.9893 89.1314 84 89.3341 84 89.4407C84 89.4834 83.968 89.5047 83.904 89.5047C83.84 89.5047 83.808 89.4834 83.808 89.4407C83.808 89.2594 83.7653 89.1101 83.68 88.9927C83.584 88.8647 83.44 88.8007 83.248 88.8007C83.0773 88.8007 82.88 88.8541 82.656 88.9607L78.848 90.7527L82.032 92.0967C82.48 92.2887 82.8427 92.3847 83.12 92.3847C83.5787 92.3847 83.808 92.1341 83.808 91.6327C83.808 91.5794 83.84 91.5527 83.904 91.5527C83.968 91.5527 84 91.5794 84 91.6327C84 91.7501 83.9893 91.9047 83.968 92.0967C83.9467 92.3314 83.936 92.5447 83.936 92.7367C83.936 92.9501 83.9467 93.1634 83.968 93.3767C83.9893 93.5687 84 93.7394 84 93.8887C84 93.9314 83.968 93.9527 83.904 93.9527C83.84 93.9527 83.808 93.9314 83.808 93.8887C83.808 93.6967 83.6747 93.4941 83.408 93.2807C83.1413 93.0674 82.6347 92.7954 81.888 92.4647L77.584 90.6247C77.5413 90.6034 77.52 90.5714 77.52 90.5287C77.52 90.4754 77.5413 90.4434 77.584 90.4327L81.808 88.4487C82.4267 88.1607 82.864 87.9421 83.12 87.7927C83.376 87.6434 83.5573 87.4941 83.664 87.3447C83.76 87.1954 83.808 87.0034 83.808 86.7687Z" fill="black"/>
<path d="M73.824 35.12C73.824 34.1493 74.064 33.296 74.544 32.56C75.0133 31.824 75.6373 31.2587 76.416 30.864C77.1947 30.4587 78.0213 30.256 78.896 30.256C79.8667 30.256 80.7573 30.5067 81.568 31.008C82.3787 31.4987 83.0187 32.16 83.488 32.992C83.9573 33.824 84.192 34.7253 84.192 35.696C84.192 36.656 83.9627 37.5093 83.504 38.256C83.0347 38.992 82.4053 39.5627 81.616 39.968C80.816 40.3733 79.9467 40.576 79.008 40.576H78.944V43.136H82.704C83.0347 43.136 83.2747 43.104 83.424 43.04C83.5733 42.9653 83.6747 42.832 83.728 42.64C83.7813 42.448 83.808 42.1387 83.808 41.712C83.808 41.6907 83.84 41.68 83.904 41.68C83.968 41.68 84 41.6907 84 41.712C84 42.032 83.9947 42.288 83.984 42.48L83.968 43.568L83.984 44.624C83.9947 44.816 84 45.0827 84 45.424C84 45.4453 83.968 45.456 83.904 45.456C83.84 45.456 83.808 45.4453 83.808 45.424C83.808 45.008 83.7813 44.704 83.728 44.512C83.6747 44.3093 83.5733 44.1707 83.424 44.096C83.264 44.0213 83.024 43.984 82.704 43.984H75.296C74.976 43.984 74.7413 44.0213 74.592 44.096C74.4427 44.16 74.3413 44.2933 74.288 44.496C74.224 44.688 74.192 44.992 74.192 45.408C74.192 45.4293 74.16 45.44 74.096 45.44C74.032 45.44 74 45.4293 74 45.408L74.016 44.624C74.0373 44.176 74.048 43.824 74.048 43.568C74.048 43.28 74.0373 42.912 74.016 42.464L74 41.712C74 41.6907 74.032 41.68 74.096 41.68C74.16 41.68 74.192 41.6907 74.192 41.712C74.192 42.128 74.224 42.4373 74.288 42.64C74.352 42.832 74.464 42.9653 74.624 43.04C74.7733 43.104 75.008 43.136 75.328 43.136H78.64V40.56C77.616 40.496 76.7413 40.192 76.016 39.648C75.2907 39.104 74.7467 38.4267 74.384 37.616C74.0107 36.7947 73.824 35.9627 73.824 35.12ZM83.872 35.104C83.872 34.3893 83.696 33.744 83.344 33.168C82.992 32.592 82.4747 32.1387 81.792 31.808C81.1093 31.4667 80.2933 31.296 79.344 31.296C78.3413 31.296 77.4507 31.4827 76.672 31.856C75.8827 32.2293 75.2693 32.7573 74.832 33.44C74.3947 34.1227 74.176 34.912 74.176 35.808C74.176 36.9813 74.56 37.8987 75.328 38.56C76.0853 39.2107 77.1307 39.536 78.464 39.536C79.456 39.536 80.368 39.3493 81.2 38.976C82.0213 38.6027 82.672 38.08 83.152 37.408C83.632 36.736 83.872 35.968 83.872 35.104ZM83.808 22.2188C83.808 22.1654 83.84 22.1388 83.904 22.1388C83.968 22.1388 84 22.1654 84 22.2188C84 22.3788 83.9893 22.6188 83.968 22.9388C83.9467 23.2588 83.936 23.4988 83.936 23.6588C83.936 23.7974 83.9467 24.0054 83.968 24.2828C83.9893 24.5814 84 24.7841 84 24.8908C84 24.9334 83.968 24.9548 83.904 24.9548C83.84 24.9548 83.808 24.9334 83.808 24.8908C83.808 24.7094 83.7653 24.5601 83.68 24.4428C83.584 24.3148 83.44 24.2508 83.248 24.2508C83.0773 24.2508 82.88 24.3041 82.656 24.4108L78.848 26.2028L82.032 27.5468C82.48 27.7388 82.8427 27.8348 83.12 27.8348C83.5787 27.8348 83.808 27.5841 83.808 27.0828C83.808 27.0294 83.84 27.0028 83.904 27.0028C83.968 27.0028 84 27.0294 84 27.0828C84 27.2001 83.9893 27.3548 83.968 27.5468C83.9467 27.7814 83.936 27.9948 83.936 28.1868C83.936 28.4001 83.9467 28.6134 83.968 28.8268C83.9893 29.0188 84 29.1894 84 29.3388C84 29.3814 83.968 29.4028 83.904 29.4028C83.84 29.4028 83.808 29.3814 83.808 29.3388C83.808 29.1468 83.6747 28.9441 83.408 28.7308C83.1413 28.5174 82.6347 28.2454 81.888 27.9148L77.584 26.0748C77.5413 26.0534 77.52 26.0214 77.52 25.9788C77.52 25.9254 77.5413 25.8934 77.584 25.8828L81.808 23.8988C82.4267 23.6108 82.864 23.3921 83.12 23.2428C83.376 23.0934 83.5573 22.9441 83.664 22.7948C83.76 22.6454 83.808 22.4534 83.808 22.2188ZM83.12 13.5935C83.12 13.5508 83.1467 13.5242 83.2 13.5135C83.2427 13.4922 83.2747 13.5028 83.296 13.5455L84.128 15.3375L84.144 15.4015C84.144 15.4975 84.0267 15.5988 83.792 15.7055C83.5467 15.8015 83.2373 15.8495 82.864 15.8495H82.72C83.2107 16.2868 83.568 16.7188 83.792 17.1455C84.0053 17.5722 84.112 18.0095 84.112 18.4575C84.112 18.9802 83.9467 19.3908 83.616 19.6895C83.2853 19.9775 82.8 20.1215 82.16 20.1215H79.68C79.2427 20.1215 78.9333 20.1588 78.752 20.2335C78.56 20.2975 78.464 20.4148 78.464 20.5855C78.464 20.7455 78.5173 20.9375 78.624 21.1615V21.1935C78.624 21.2362 78.5973 21.2682 78.544 21.2895C78.4907 21.3002 78.4587 21.2842 78.448 21.2415L77.696 19.5615L77.68 19.4975C77.68 19.4762 77.6907 19.4495 77.712 19.4175C77.7333 19.3855 77.76 19.3695 77.792 19.3695H81.68C82.32 19.3695 82.7947 19.2575 83.104 19.0335C83.4133 18.8095 83.568 18.4735 83.568 18.0255C83.568 17.6522 83.472 17.2735 83.28 16.8895C83.0773 16.5055 82.8 16.1588 82.448 15.8495H79.68C79.2427 15.8495 78.9333 15.8868 78.752 15.9615C78.56 16.0255 78.464 16.1482 78.464 16.3295C78.464 16.4895 78.5173 16.6815 78.624 16.9055V16.9375C78.624 16.9802 78.5973 17.0068 78.544 17.0175C78.4907 17.0282 78.4587 17.0122 78.448 16.9695L77.696 15.2895L77.68 15.2415C77.68 15.2095 77.6907 15.1828 77.712 15.1615C77.7333 15.1295 77.76 15.1135 77.792 15.1135H82.32C82.6827 15.1135 82.9493 15.0708 83.12 14.9855C83.28 14.8895 83.36 14.7348 83.36 14.5215C83.36 14.4148 83.3387 14.2868 83.296 14.1375C83.2427 13.9775 83.184 13.8068 83.12 13.6255V13.5935ZM83.808 6.51775C83.808 6.49641 83.84 6.48575 83.904 6.48575C83.968 6.48575 84 6.49641 84 6.51775C84 6.76308 83.9947 6.95508 83.984 7.09375L83.968 7.90975L83.984 8.75775C83.9947 8.90708 84 9.11508 84 9.38175C84 9.40308 83.968 9.41375 83.904 9.41375C83.84 9.41375 83.808 9.40308 83.808 9.38175C83.808 9.06175 83.7813 8.83241 83.728 8.69375C83.6747 8.54442 83.5733 8.44842 83.424 8.40575C83.264 8.35242 83.024 8.32575 82.704 8.32575H80.944C80.9653 8.75242 81.0987 9.12041 81.344 9.42975C81.5893 9.73908 82.0427 10.0804 82.704 10.4537C83.28 10.7844 83.6427 11.0031 83.792 11.1097C83.9307 11.2057 84 11.3017 84 11.3977V12.6617C84 12.6831 83.968 12.6937 83.904 12.6937C83.84 12.6937 83.808 12.6831 83.808 12.6617C83.808 12.3311 83.7067 12.0697 83.504 11.8777C83.2907 11.6751 83.0667 11.5097 82.832 11.3817C82.5973 11.2537 82.448 11.1684 82.384 11.1257C82.032 10.9231 81.728 10.6777 81.472 10.3897C81.216 10.1017 81.0507 9.79775 80.976 9.47775C80.88 10.7257 80.368 11.3497 79.44 11.3497C78.928 11.3497 78.5227 11.1737 78.224 10.8217C77.9253 10.4591 77.776 9.97908 77.776 9.38175C77.776 9.26441 77.7867 9.03508 77.808 8.69375C77.84 8.40575 77.856 8.14441 77.856 7.90975L77.84 7.10975C77.8293 6.97108 77.824 6.77908 77.824 6.53375C77.824 6.51241 77.856 6.50175 77.92 6.50175C77.984 6.50175 78.016 6.51241 78.016 6.53375C78.016 6.83241 78.048 7.05641 78.112 7.20575C78.1653 7.34441 78.2667 7.44575 78.416 7.50975C78.5653 7.56308 78.8 7.58975 79.12 7.58975H82.704C83.024 7.58975 83.2587 7.56308 83.408 7.50975C83.5573 7.44575 83.664 7.33908 83.728 7.18975C83.7813 7.04041 83.808 6.81641 83.808 6.51775ZM79.072 10.5337C79.584 10.5337 79.9947 10.4057 80.304 10.1497C80.6133 9.89375 80.768 9.52041 80.768 9.02975C80.768 8.85908 80.7467 8.62442 80.704 8.32575H79.152C78.8107 8.32575 78.56 8.35775 78.4 8.42175C78.24 8.47508 78.128 8.57641 78.064 8.72575C78 8.87508 77.968 9.09908 77.968 9.39775C77.968 10.1551 78.336 10.5337 79.072 10.5337Z" fill="black"/>
<path d="M83.808 60.96C83.8187 60.9173 83.856 60.9013 83.92 60.912C83.9733 60.912 84 60.928 84 60.96V62.464C84 62.9973 83.584 63.7867 82.752 64.832C83.712 65.696 84.192 66.784 84.192 68.096C84.192 68.736 84.08 69.2747 83.856 69.712C83.632 70.1387 83.3387 70.4587 82.976 70.672C82.6027 70.8747 82.2027 70.976 81.776 70.976C81.1467 70.976 80.5973 70.784 80.128 70.4C79.6587 70.016 79.168 69.4667 78.656 68.752C78.3573 68.944 78.0853 69.0987 77.84 69.216C77.1573 69.5147 76.576 69.664 76.096 69.664C75.6693 69.664 75.2693 69.5573 74.896 69.344C74.5227 69.12 74.224 68.816 74 68.432C73.776 68.048 73.664 67.6107 73.664 67.12C73.664 66.64 73.7813 66.2187 74.016 65.856C74.2507 65.4933 74.6613 65.312 75.248 65.312C75.664 65.312 76.0427 65.4187 76.384 65.632C76.7147 65.8347 77.0027 66.0907 77.248 66.4C77.4933 66.6987 77.7973 67.1147 78.16 67.648L78.384 67.984C79.6213 67.1947 80.816 66.0427 81.968 64.528C81.2213 64.0693 80.432 63.84 79.6 63.84C79.2693 63.84 79.024 63.9147 78.864 64.064C78.6933 64.2027 78.608 64.496 78.608 64.944C78.608 64.976 78.576 64.9973 78.512 65.008C78.448 65.008 78.416 64.9867 78.416 64.944L78.4 61.712C78.4 61.6693 78.432 61.648 78.496 61.648C78.56 61.648 78.592 61.6693 78.592 61.712C78.592 62.0853 78.624 62.368 78.688 62.56C78.752 62.7413 78.8427 62.8693 78.96 62.944C79.0773 63.0187 79.248 63.088 79.472 63.152C80.496 63.44 81.376 63.8293 82.112 64.32C82.5707 63.6907 82.9493 63.0827 83.248 62.496C83.536 61.9093 83.7227 61.3973 83.808 60.96ZM75.6 68.896C76.4 68.896 77.264 68.6293 78.192 68.096C77.7333 67.4453 77.3013 66.9493 76.896 66.608C76.4907 66.256 76.0213 66.08 75.488 66.08C75.008 66.08 74.6347 66.208 74.368 66.464C74.1013 66.72 73.968 67.072 73.968 67.52C73.968 67.9573 74.1013 68.2987 74.368 68.544C74.6347 68.7787 75.0453 68.896 75.6 68.896ZM83.792 67.504C83.792 67.024 83.6907 66.5707 83.488 66.144C83.2747 65.7173 82.9813 65.3387 82.608 65.008L82.464 65.184C81.9413 65.8453 81.3653 66.48 80.736 67.088C80.1067 67.6853 79.4773 68.1973 78.848 68.624C79.2 69.0933 79.5733 69.4613 79.968 69.728C80.352 69.984 80.8 70.112 81.312 70.112C81.7707 70.112 82.192 70 82.576 69.776C82.9493 69.5413 83.248 69.2267 83.472 68.832C83.6853 68.4373 83.792 67.9947 83.792 67.504Z" fill="black"/>
</g>
<line x1="67" y1="140.5" x2="73" y2="140.5" stroke="black"/>
<line x1="86" y1="6.5" x2="92" y2="6.5" stroke="black"/>
<defs>
<clipPath id="clip0_158_242">
<rect width="13" height="136" fill="white" transform="translate(73 5)"/>
</clipPath>
</defs>
</svg>
