<svg width="382" height="43" viewBox="0 0 382 43" fill="none" xmlns="http://www.w3.org/2000/svg">
<path d="M57.2409 41.888C57.3369 41.856 57.4009 41.92 57.4329 42.08C57.4969 42.24 57.4969 42.336 57.4329 42.368C55.5769 42.784 53.6249 42.992 51.5769 42.992C46.2009 42.992 40.6809 42.016 35.0169 40.064C29.3529 38.112 24.0409 35.52 19.0809 32.288C18.0249 32.48 16.9529 32.576 15.8649 32.576C12.8889 32.576 10.2329 31.888 7.89688 30.512C5.59288 29.104 3.80088 27.216 2.52088 24.848C1.27288 22.448 0.648875 19.84 0.648875 17.024C0.648875 13.728 1.48088 10.912 3.14488 8.576C4.80888 6.208 6.93688 4.432 9.52888 3.248C12.1529 2.064 14.8249 1.472 17.5449 1.472C20.5849 1.472 23.2569 2.192 25.5609 3.632C27.8649 5.04 29.6249 6.912 30.8409 9.248C32.0889 11.584 32.7129 14.064 32.7129 16.688C32.7129 19.728 31.8809 22.512 30.2169 25.04C28.5529 27.536 26.3609 29.44 23.6409 30.752C27.4489 33.376 32.0569 35.92 37.4649 38.384C42.8729 40.88 48.5369 42.128 54.4569 42.128C55.5129 42.128 56.4409 42.048 57.2409 41.888ZM5.01688 15.344C5.01688 18.384 5.54488 21.136 6.60088 23.6C7.65688 26.064 9.12888 28 11.0169 29.408C12.9369 30.816 15.1129 31.52 17.5449 31.52C19.5929 31.52 21.4329 30.992 23.0649 29.936C24.6969 28.88 25.9769 27.344 26.9049 25.328C27.8649 23.28 28.3449 20.848 28.3449 18.032C28.3449 15.056 27.8169 12.4 26.7609 10.064C25.7369 7.728 24.2489 5.904 22.2969 4.592C20.3769 3.28 18.1369 2.624 15.5769 2.624C12.2489 2.624 9.65688 3.76 7.80088 6.032C5.94488 8.272 5.01688 11.376 5.01688 15.344ZM69.8949 31.424C69.9909 31.424 70.0389 31.52 70.0389 31.712C70.0389 31.904 69.9909 32 69.8949 32L65.9589 31.952L63.1749 32C62.7909 32 62.5349 31.952 62.4069 31.856C62.3109 31.76 62.2629 31.504 62.2629 31.088V27.536C60.3749 29.296 58.5189 30.576 56.6949 31.376C54.9029 32.176 52.9509 32.576 50.8389 32.576C48.7909 32.576 46.9509 32.192 45.3189 31.424C43.6869 30.656 42.3909 29.552 41.4309 28.112C40.5029 26.672 40.0389 24.992 40.0389 23.072V5.888C40.0389 4.928 39.9429 4.224 39.7509 3.776C39.5589 3.328 39.1909 3.024 38.6469 2.864C38.1349 2.672 37.3029 2.576 36.1509 2.576C36.0549 2.576 36.0069 2.48 36.0069 2.288C36.0069 2.096 36.0549 2 36.1509 2L38.5509 2.048C39.9589 2.112 41.0789 2.144 41.9109 2.144C42.8389 2.144 44.0069 2.112 45.4149 2.048L47.7189 2C47.8149 2 47.8629 2.096 47.8629 2.288C47.8629 2.48 47.8149 2.576 47.7189 2.576C46.5989 2.576 45.7669 2.672 45.2229 2.864C44.6789 3.056 44.3109 3.392 44.1189 3.872C43.9269 4.32 43.8309 5.024 43.8309 5.984V21.392C43.8309 24.528 44.5989 26.928 46.1349 28.592C47.6709 30.224 49.7509 31.04 52.3749 31.04C54.1029 31.04 55.7349 30.688 57.2709 29.984C58.8389 29.248 60.5029 28.064 62.2629 26.432V5.984C62.2629 5.024 62.1669 4.32 61.9749 3.872C61.7829 3.392 61.4149 3.056 60.8709 2.864C60.3589 2.672 59.5269 2.576 58.3749 2.576C58.3109 2.576 58.2789 2.48 58.2789 2.288C58.2789 2.096 58.3109 2 58.3749 2L60.7749 2.048C62.1829 2.112 63.3029 2.144 64.1349 2.144C64.9989 2.144 66.1029 2.112 67.4469 2.048L69.8949 2C69.9909 2 70.0389 2.096 70.0389 2.288C70.0389 2.48 69.9909 2.576 69.8949 2.576C68.7429 2.576 67.8949 2.672 67.3509 2.864C66.8069 3.024 66.4389 3.328 66.2469 3.776C66.0549 4.224 65.9589 4.928 65.9589 5.888V28.112C65.9589 29.072 66.0549 29.792 66.2469 30.272C66.4389 30.72 66.8069 31.024 67.3509 31.184C67.8949 31.344 68.7429 31.424 69.8949 31.424ZM94.6985 24.704C94.6985 24.64 94.7625 24.608 94.8905 24.608C94.9865 24.608 95.0665 24.64 95.1305 24.704C95.2265 24.736 95.2745 24.768 95.2745 24.8C94.9545 27.104 94.7945 29.264 94.7945 31.28C94.7945 31.536 94.7465 31.728 94.6505 31.856C94.5545 31.952 94.3625 32 94.0745 32H73.6265C73.5305 32 73.4825 31.904 73.4825 31.712C73.4825 31.52 73.5305 31.424 73.6265 31.424C74.7785 31.424 75.6105 31.344 76.1225 31.184C76.6345 31.024 76.9865 30.72 77.1785 30.272C77.3705 29.792 77.4665 29.072 77.4665 28.112V5.888C77.4665 4.928 77.3705 4.224 77.1785 3.776C76.9865 3.328 76.6185 3.024 76.0745 2.864C75.5625 2.672 74.7465 2.576 73.6265 2.576C73.5305 2.576 73.4825 2.48 73.4825 2.288C73.4825 2.096 73.5305 2 73.6265 2L93.2105 2C93.5305 2 93.6905 2.144 93.6905 2.432L93.7865 8.48C93.7865 8.576 93.6905 8.64 93.4985 8.672C93.3385 8.672 93.2425 8.624 93.2105 8.528C92.9865 6.768 92.3625 5.44 91.3385 4.544C90.3145 3.616 88.9705 3.152 87.3065 3.152H84.8585C83.4505 3.152 82.5065 3.36 82.0265 3.776C81.5465 4.16 81.3065 4.928 81.3065 6.08V15.824H86.5865C88.2185 15.824 89.4185 15.552 90.1865 15.008C90.9545 14.432 91.3385 13.552 91.3385 12.368C91.3385 12.304 91.4185 12.272 91.5785 12.272C91.7705 12.272 91.8665 12.304 91.8665 12.368L91.8185 16.4L91.8665 18.56C91.9305 19.584 91.9625 20.384 91.9625 20.96C91.9625 21.024 91.8665 21.056 91.6745 21.056C91.4825 21.056 91.3865 21.024 91.3865 20.96C91.3865 19.584 90.9865 18.576 90.1865 17.936C89.4185 17.264 88.1705 16.928 86.4425 16.928H81.3065V27.92C81.3065 29.072 81.5145 29.856 81.9305 30.272C82.3785 30.688 83.2585 30.896 84.5705 30.896H87.6905C89.5145 30.896 91.0185 30.368 92.2025 29.312C93.4185 28.224 94.2505 26.688 94.6985 24.704ZM104.97 7.376C104.97 8.592 105.274 9.664 105.882 10.592C106.49 11.488 107.226 12.272 108.09 12.944C108.954 13.584 110.154 14.368 111.69 15.296C113.29 16.288 114.554 17.152 115.482 17.888C116.442 18.592 117.258 19.472 117.93 20.528C118.602 21.584 118.938 22.832 118.938 24.272C118.938 25.84 118.522 27.264 117.69 28.544C116.89 29.792 115.722 30.784 114.186 31.52C112.682 32.224 110.922 32.576 108.906 32.576C107.626 32.576 106.362 32.416 105.114 32.096C103.866 31.808 102.778 31.376 101.85 30.8C101.69 30.704 101.578 30.592 101.514 30.464C101.45 30.336 101.418 30.144 101.418 29.888L100.938 23.024C100.906 22.896 100.97 22.816 101.13 22.784C101.322 22.752 101.434 22.8 101.466 22.928C102.234 25.36 103.306 27.424 104.682 29.12C106.058 30.816 107.85 31.664 110.058 31.664C111.562 31.664 112.81 31.264 113.802 30.464C114.826 29.632 115.338 28.288 115.338 26.432C115.338 25.024 115.018 23.792 114.378 22.736C113.738 21.68 112.954 20.8 112.026 20.096C111.13 19.36 109.914 18.528 108.378 17.6C106.874 16.64 105.674 15.824 104.778 15.152C103.914 14.448 103.178 13.6 102.57 12.608C101.962 11.584 101.658 10.4 101.658 9.056C101.658 7.424 102.09 6.032 102.954 4.88C103.85 3.728 105.002 2.88 106.41 2.336C107.85 1.76 109.354 1.472 110.922 1.472C113.066 1.472 115.002 1.84 116.73 2.576C117.21 2.768 117.45 3.056 117.45 3.44L117.69 9.44C117.69 9.568 117.61 9.648 117.45 9.68C117.29 9.712 117.194 9.664 117.162 9.536C116.81 7.808 116.058 6.176 114.906 4.64C113.754 3.072 112.122 2.288 110.01 2.288C108.41 2.288 107.162 2.768 106.266 3.728C105.402 4.688 104.97 5.904 104.97 7.376ZM131.083 2.96C129.099 2.96 127.547 3.52 126.427 4.64C125.307 5.728 124.475 7.488 123.931 9.92C123.899 9.984 123.787 10.016 123.595 10.016C123.435 10.016 123.355 9.984 123.355 9.92C123.483 8.992 123.627 7.52 123.787 5.504C123.947 3.488 124.027 1.968 124.027 0.943999C124.027 0.783999 124.123 0.704 124.315 0.704C124.507 0.704 124.603 0.783999 124.603 0.943999C124.603 1.648 125.483 2 127.243 2C129.963 2.096 133.179 2.144 136.891 2.144C138.779 2.144 140.779 2.112 142.891 2.048L146.155 2C147.339 2 148.203 1.92 148.747 1.76C149.291 1.6 149.643 1.28 149.803 0.799998C149.835 0.671998 149.931 0.607998 150.091 0.607998C150.283 0.607998 150.379 0.671998 150.379 0.799998C150.283 1.696 150.171 3.136 150.043 5.12C149.947 7.104 149.899 8.704 149.899 9.92C149.899 9.984 149.803 10.016 149.611 10.016C149.451 10.016 149.371 9.984 149.371 9.92C149.147 7.456 148.507 5.68 147.451 4.592C146.395 3.504 144.827 2.96 142.747 2.96C141.563 2.96 140.715 3.04 140.203 3.2C139.691 3.328 139.339 3.6 139.147 4.016C138.955 4.4 138.859 5.056 138.859 5.984V28.112C138.859 29.104 138.955 29.824 139.147 30.272C139.371 30.72 139.787 31.024 140.395 31.184C141.003 31.344 141.979 31.424 143.323 31.424C143.387 31.424 143.419 31.52 143.419 31.712C143.419 31.904 143.387 32 143.323 32C142.203 32 141.323 31.984 140.683 31.952L136.891 31.904L133.195 31.952C132.555 31.984 131.659 32 130.507 32C130.411 32 130.363 31.904 130.363 31.712C130.363 31.52 130.411 31.424 130.507 31.424C131.819 31.424 132.779 31.344 133.387 31.184C133.995 31.024 134.411 30.72 134.635 30.272C134.859 29.792 134.971 29.072 134.971 28.112V5.888C134.971 4.992 134.875 4.352 134.683 3.968C134.491 3.552 134.139 3.28 133.627 3.152C133.115 3.024 132.267 2.96 131.083 2.96ZM162.078 28.112C162.078 29.072 162.174 29.792 162.366 30.272C162.558 30.72 162.91 31.024 163.422 31.184C163.966 31.344 164.814 31.424 165.966 31.424C166.03 31.424 166.062 31.52 166.062 31.712C166.062 31.904 166.03 32 165.966 32C164.942 32 164.142 31.984 163.566 31.952L160.11 31.904L156.75 31.952C156.142 31.984 155.31 32 154.254 32C154.19 32 154.158 31.904 154.158 31.712C154.158 31.52 154.19 31.424 154.254 31.424C155.406 31.424 156.254 31.344 156.798 31.184C157.342 31.024 157.71 30.72 157.902 30.272C158.094 29.792 158.19 29.072 158.19 28.112V5.888C158.19 4.928 158.094 4.224 157.902 3.776C157.71 3.328 157.342 3.024 156.798 2.864C156.254 2.672 155.406 2.576 154.254 2.576C154.19 2.576 154.158 2.48 154.158 2.288C154.158 2.096 154.19 2 154.254 2L156.75 2.048C158.158 2.112 159.278 2.144 160.11 2.144C161.038 2.144 162.206 2.112 163.614 2.048L165.966 2C166.03 2 166.062 2.096 166.062 2.288C166.062 2.48 166.03 2.576 165.966 2.576C164.846 2.576 164.014 2.672 163.47 2.864C162.926 3.056 162.558 3.392 162.366 3.872C162.174 4.32 162.078 5.024 162.078 5.984V28.112ZM185.74 32.576C182.764 32.576 180.108 31.888 177.772 30.512C175.468 29.104 173.676 27.216 172.396 24.848C171.148 22.448 170.524 19.84 170.524 17.024C170.524 13.728 171.356 10.912 173.02 8.576C174.684 6.208 176.812 4.432 179.404 3.248C182.028 2.064 184.7 1.472 187.42 1.472C190.46 1.472 193.132 2.192 195.436 3.632C197.74 5.04 199.5 6.912 200.716 9.248C201.964 11.584 202.588 14.064 202.588 16.688C202.588 19.6 201.82 22.272 200.284 24.704C198.748 27.136 196.684 29.056 194.092 30.464C191.532 31.872 188.748 32.576 185.74 32.576ZM187.42 31.52C189.468 31.52 191.308 30.992 192.94 29.936C194.572 28.88 195.852 27.344 196.78 25.328C197.74 23.28 198.22 20.848 198.22 18.032C198.22 15.056 197.692 12.4 196.636 10.064C195.612 7.728 194.124 5.904 192.172 4.592C190.252 3.28 188.012 2.624 185.452 2.624C182.124 2.624 179.532 3.76 177.676 6.032C175.82 8.272 174.892 11.376 174.892 15.344C174.892 18.384 175.42 21.136 176.476 23.6C177.532 26.064 179.004 28 180.892 29.408C182.812 30.816 184.988 31.52 187.42 31.52ZM239.002 2C239.098 2 239.146 2.096 239.146 2.288C239.146 2.48 239.098 2.576 239.002 2.576C236.378 2.576 235.066 4.24 235.066 7.568V32.624C235.066 32.688 234.986 32.736 234.826 32.768C234.698 32.8 234.602 32.784 234.538 32.72L212.026 6.032V26.48C212.026 28.176 212.33 29.424 212.938 30.224C213.578 31.024 214.538 31.424 215.818 31.424C215.914 31.424 215.962 31.52 215.962 31.712C215.962 31.904 215.914 32 215.818 32C214.986 32 214.346 31.984 213.898 31.952L211.45 31.904L208.858 31.952C208.378 31.984 207.674 32 206.746 32C206.682 32 206.65 31.904 206.65 31.712C206.65 31.52 206.682 31.424 206.746 31.424C208.122 31.424 209.13 31.024 209.77 30.224C210.442 29.424 210.778 28.176 210.778 26.48V4.688C209.37 3.28 207.978 2.576 206.602 2.576C206.506 2.576 206.458 2.48 206.458 2.288C206.458 2.096 206.506 2 206.602 2L208.474 2.048C208.858 2.08 209.402 2.096 210.106 2.096L212.602 2.048C212.89 2.016 213.258 2 213.706 2C213.962 2 214.138 2.064 214.234 2.192C214.362 2.288 214.554 2.528 214.81 2.912C215.098 3.36 215.498 3.888 216.01 4.496L233.866 26.048V7.568C233.866 5.872 233.562 4.624 232.954 3.824C232.346 2.992 231.402 2.576 230.122 2.576C230.058 2.576 230.026 2.48 230.026 2.288C230.026 2.096 230.058 2 230.122 2L232.042 2.048C233.002 2.112 233.818 2.144 234.49 2.144C235.066 2.144 235.898 2.112 236.986 2.048L239.002 2ZM274.064 2C274.16 2 274.208 2.096 274.208 2.288C274.208 2.48 274.16 2.576 274.064 2.576C271.44 2.576 270.128 4.24 270.128 7.568V32.624C270.128 32.688 270.048 32.736 269.888 32.768C269.76 32.8 269.664 32.784 269.6 32.72L247.088 6.032V26.48C247.088 28.176 247.392 29.424 248 30.224C248.64 31.024 249.6 31.424 250.88 31.424C250.976 31.424 251.024 31.52 251.024 31.712C251.024 31.904 250.976 32 250.88 32C250.048 32 249.408 31.984 248.96 31.952L246.512 31.904L243.92 31.952C243.44 31.984 242.736 32 241.808 32C241.744 32 241.712 31.904 241.712 31.712C241.712 31.52 241.744 31.424 241.808 31.424C243.184 31.424 244.192 31.024 244.832 30.224C245.504 29.424 245.84 28.176 245.84 26.48V4.688C244.432 3.28 243.04 2.576 241.664 2.576C241.568 2.576 241.52 2.48 241.52 2.288C241.52 2.096 241.568 2 241.664 2L243.536 2.048C243.92 2.08 244.464 2.096 245.168 2.096L247.664 2.048C247.952 2.016 248.32 2 248.768 2C249.024 2 249.2 2.064 249.296 2.192C249.424 2.288 249.616 2.528 249.872 2.912C250.16 3.36 250.56 3.888 251.072 4.496L268.928 26.048V7.568C268.928 5.872 268.624 4.624 268.016 3.824C267.408 2.992 266.464 2.576 265.184 2.576C265.12 2.576 265.088 2.48 265.088 2.288C265.088 2.096 265.12 2 265.184 2L267.104 2.048C268.064 2.112 268.88 2.144 269.552 2.144C270.128 2.144 270.96 2.112 272.048 2.048L274.064 2ZM308.887 31.424C309.015 31.424 309.079 31.52 309.079 31.712C309.079 31.904 309.015 32 308.887 32C308.279 32 307.303 31.968 305.959 31.904C304.679 31.84 303.735 31.808 303.127 31.808C302.391 31.808 301.479 31.84 300.391 31.904C299.303 31.968 298.487 32 297.943 32C297.815 32 297.751 31.904 297.751 31.712C297.751 31.52 297.815 31.424 297.943 31.424C299.031 31.424 299.815 31.328 300.295 31.136C300.775 30.912 301.015 30.528 301.015 29.984C301.015 29.44 300.775 28.688 300.295 27.728L294.919 16.592H286.087L282.151 25.664C281.703 26.72 281.479 27.6 281.479 28.304C281.479 30.384 283.031 31.424 286.135 31.424C286.295 31.424 286.375 31.52 286.375 31.712C286.375 31.904 286.295 32 286.135 32C285.559 32 284.727 31.968 283.639 31.904C282.423 31.84 281.367 31.808 280.471 31.808C279.639 31.808 278.647 31.84 277.495 31.904C276.471 31.968 275.639 32 274.999 32C274.871 32 274.807 31.904 274.807 31.712C274.807 31.52 274.871 31.424 274.999 31.424C275.895 31.424 276.647 31.248 277.255 30.896C277.895 30.544 278.503 29.936 279.079 29.072C279.655 28.208 280.311 26.928 281.047 25.232L291.271 1.664C291.303 1.568 291.415 1.52 291.607 1.52C291.799 1.488 291.911 1.536 291.943 1.664L303.511 25.424C304.599 27.76 305.527 29.344 306.295 30.176C307.063 31.008 307.927 31.424 308.887 31.424ZM286.519 15.488H294.391L290.263 6.848L286.519 15.488ZM318.922 28.112C318.922 29.072 319.018 29.792 319.21 30.272C319.402 30.72 319.754 31.024 320.266 31.184C320.81 31.344 321.658 31.424 322.81 31.424C322.874 31.424 322.906 31.52 322.906 31.712C322.906 31.904 322.874 32 322.81 32C321.786 32 320.986 31.984 320.41 31.952L316.954 31.904L313.594 31.952C312.986 31.984 312.154 32 311.098 32C311.034 32 311.002 31.904 311.002 31.712C311.002 31.52 311.034 31.424 311.098 31.424C312.25 31.424 313.098 31.344 313.642 31.184C314.186 31.024 314.554 30.72 314.746 30.272C314.938 29.792 315.034 29.072 315.034 28.112V5.888C315.034 4.928 314.938 4.224 314.746 3.776C314.554 3.328 314.186 3.024 313.642 2.864C313.098 2.672 312.25 2.576 311.098 2.576C311.034 2.576 311.002 2.48 311.002 2.288C311.002 2.096 311.034 2 311.098 2L313.594 2.048C315.002 2.112 316.122 2.144 316.954 2.144C317.882 2.144 319.05 2.112 320.458 2.048L322.81 2C322.874 2 322.906 2.096 322.906 2.288C322.906 2.48 322.874 2.576 322.81 2.576C321.69 2.576 320.858 2.672 320.314 2.864C319.77 3.056 319.402 3.392 319.21 3.872C319.018 4.32 318.922 5.024 318.922 5.984V28.112ZM358.184 31.424C358.248 31.424 358.28 31.52 358.28 31.712C358.28 31.904 358.248 32 358.184 32H351.224C350.456 32 349 30.64 346.856 27.92C344.744 25.168 342.216 21.408 339.272 16.64C338.536 16.8 337.832 16.88 337.16 16.88C336.552 16.88 335.768 16.848 334.808 16.784V28.112C334.808 29.072 334.904 29.792 335.096 30.272C335.288 30.72 335.64 31.024 336.152 31.184C336.696 31.344 337.544 31.424 338.696 31.424C338.792 31.424 338.84 31.52 338.84 31.712C338.84 31.904 338.792 32 338.696 32C337.704 32 336.92 31.984 336.344 31.952L332.888 31.904L329.528 31.952C328.92 31.984 328.104 32 327.08 32C326.984 32 326.936 31.904 326.936 31.712C326.936 31.52 326.984 31.424 327.08 31.424C328.232 31.424 329.08 31.344 329.624 31.184C330.168 31.024 330.536 30.72 330.728 30.272C330.92 29.792 331.016 29.072 331.016 28.112V5.888C331.016 4.928 330.92 4.224 330.728 3.776C330.536 3.328 330.168 3.024 329.624 2.864C329.112 2.672 328.28 2.576 327.128 2.576C327.064 2.576 327.032 2.48 327.032 2.288C327.032 2.096 327.064 2 327.128 2L329.528 2.048C330.936 2.112 332.056 2.144 332.888 2.144C333.464 2.144 334.008 2.128 334.52 2.096C335.032 2.064 335.48 2.032 335.864 2C336.92 1.904 337.912 1.856 338.84 1.856C341.56 1.856 343.656 2.4 345.128 3.488C346.6 4.544 347.336 6.016 347.336 7.904C347.336 9.408 346.888 10.832 345.992 12.176C345.096 13.52 343.928 14.608 342.488 15.44C345.176 19.504 347.416 22.688 349.208 24.992C351.032 27.264 352.648 28.912 354.056 29.936C355.464 30.928 356.84 31.424 358.184 31.424ZM334.808 15.536C336.024 15.664 336.968 15.728 337.64 15.728C339.688 15.728 341.144 15.28 342.008 14.384C342.904 13.456 343.352 11.872 343.352 9.632C343.352 7.104 342.872 5.312 341.912 4.256C340.952 3.2 339.624 2.672 337.928 2.672C337.096 2.672 336.456 2.752 336.008 2.912C335.592 3.072 335.288 3.392 335.096 3.872C334.904 4.32 334.808 5.024 334.808 5.984V15.536ZM380.824 24.704C380.824 24.64 380.888 24.608 381.016 24.608C381.112 24.608 381.192 24.64 381.256 24.704C381.352 24.736 381.4 24.768 381.4 24.8C381.08 27.104 380.92 29.264 380.92 31.28C380.92 31.536 380.872 31.728 380.776 31.856C380.68 31.952 380.488 32 380.2 32H359.752C359.656 32 359.608 31.904 359.608 31.712C359.608 31.52 359.656 31.424 359.752 31.424C360.904 31.424 361.736 31.344 362.248 31.184C362.76 31.024 363.112 30.72 363.304 30.272C363.496 29.792 363.592 29.072 363.592 28.112V5.888C363.592 4.928 363.496 4.224 363.304 3.776C363.112 3.328 362.744 3.024 362.2 2.864C361.688 2.672 360.872 2.576 359.752 2.576C359.656 2.576 359.608 2.48 359.608 2.288C359.608 2.096 359.656 2 359.752 2L379.336 2C379.656 2 379.816 2.144 379.816 2.432L379.912 8.48C379.912 8.576 379.816 8.64 379.624 8.672C379.464 8.672 379.368 8.624 379.336 8.528C379.112 6.768 378.488 5.44 377.464 4.544C376.44 3.616 375.096 3.152 373.432 3.152H370.984C369.576 3.152 368.632 3.36 368.152 3.776C367.672 4.16 367.432 4.928 367.432 6.08V15.824H372.712C374.344 15.824 375.544 15.552 376.312 15.008C377.08 14.432 377.464 13.552 377.464 12.368C377.464 12.304 377.544 12.272 377.704 12.272C377.896 12.272 377.992 12.304 377.992 12.368L377.944 16.4L377.992 18.56C378.056 19.584 378.088 20.384 378.088 20.96C378.088 21.024 377.992 21.056 377.8 21.056C377.608 21.056 377.512 21.024 377.512 20.96C377.512 19.584 377.112 18.576 376.312 17.936C375.544 17.264 374.296 16.928 372.568 16.928H367.432V27.92C367.432 29.072 367.64 29.856 368.056 30.272C368.504 30.688 369.384 30.896 370.696 30.896H373.816C375.64 30.896 377.144 30.368 378.328 29.312C379.544 28.224 380.376 26.688 380.824 24.704Z" fill="#DEE5CE"/>
</svg>
