<svg width="390" height="74" viewBox="0 0 390 74" fill="none" xmlns="http://www.w3.org/2000/svg">
<path d="M100.4 44.712C100.448 44.712 100.472 44.76 100.472 44.856C100.472 44.952 100.448 45 100.4 45C99.888 45 99.48 44.992 99.176 44.976L97.448 44.952L95.552 44.976C95.28 44.992 94.904 45 94.424 45C94.376 45 94.352 44.952 94.352 44.856C94.352 44.76 94.376 44.712 94.424 44.712C95.032 44.712 95.48 44.672 95.768 44.592C96.056 44.512 96.248 44.36 96.344 44.136C96.44 43.896 96.488 43.536 96.488 43.056V37.464H87.752V43.056C87.752 43.536 87.8 43.896 87.896 44.136C87.992 44.36 88.184 44.512 88.472 44.592C88.76 44.672 89.208 44.712 89.816 44.712C89.848 44.712 89.864 44.76 89.864 44.856C89.864 44.952 89.848 45 89.816 45C89.304 45 88.896 44.992 88.592 44.976L86.744 44.952L85.04 44.976C84.736 44.992 84.32 45 83.792 45C83.76 45 83.744 44.952 83.744 44.856C83.744 44.76 83.76 44.712 83.792 44.712C84.384 44.712 84.816 44.672 85.088 44.592C85.376 44.512 85.568 44.36 85.664 44.136C85.776 43.896 85.832 43.536 85.832 43.056V31.944C85.832 31.464 85.784 31.112 85.688 30.888C85.592 30.664 85.408 30.512 85.136 30.432C84.864 30.336 84.432 30.288 83.84 30.288C83.792 30.288 83.768 30.24 83.768 30.144C83.768 30.048 83.792 30 83.84 30L85.064 30.024C85.736 30.056 86.296 30.072 86.744 30.072C87.256 30.072 87.88 30.056 88.616 30.024L89.816 30C89.848 30 89.864 30.048 89.864 30.144C89.864 30.24 89.848 30.288 89.816 30.288C89.224 30.288 88.784 30.336 88.496 30.432C88.208 30.528 88.008 30.696 87.896 30.936C87.8 31.16 87.752 31.512 87.752 31.992V36.912H96.488V31.992C96.488 31.512 96.432 31.16 96.32 30.936C96.224 30.696 96.032 30.528 95.744 30.432C95.472 30.336 95.032 30.288 94.424 30.288C94.376 30.288 94.352 30.24 94.352 30.144C94.352 30.048 94.376 30 94.424 30L95.552 30.024C96.288 30.056 96.92 30.072 97.448 30.072C97.896 30.072 98.472 30.056 99.176 30.024L100.4 30C100.448 30 100.472 30.048 100.472 30.144C100.472 30.24 100.448 30.288 100.4 30.288C99.808 30.288 99.376 30.336 99.104 30.432C98.832 30.512 98.64 30.664 98.528 30.888C98.432 31.112 98.384 31.464 98.384 31.944V43.056C98.384 43.536 98.432 43.896 98.528 44.136C98.64 44.36 98.832 44.512 99.104 44.592C99.376 44.672 99.808 44.712 100.4 44.712ZM118.178 44.712C118.242 44.712 118.274 44.76 118.274 44.856C118.274 44.952 118.242 45 118.178 45C117.874 45 117.386 44.984 116.714 44.952C116.074 44.92 115.602 44.904 115.298 44.904C114.93 44.904 114.474 44.92 113.93 44.952C113.386 44.984 112.978 45 112.706 45C112.642 45 112.61 44.952 112.61 44.856C112.61 44.76 112.642 44.712 112.706 44.712C113.25 44.712 113.642 44.664 113.882 44.568C114.122 44.456 114.242 44.264 114.242 43.992C114.242 43.72 114.122 43.344 113.882 42.864L111.194 37.296H106.778L104.81 41.832C104.586 42.36 104.474 42.8 104.474 43.152C104.474 44.192 105.25 44.712 106.802 44.712C106.882 44.712 106.922 44.76 106.922 44.856C106.922 44.952 106.882 45 106.802 45C106.514 45 106.098 44.984 105.554 44.952C104.946 44.92 104.418 44.904 103.97 44.904C103.554 44.904 103.058 44.92 102.482 44.952C101.97 44.984 101.554 45 101.234 45C101.17 45 101.138 44.952 101.138 44.856C101.138 44.76 101.17 44.712 101.234 44.712C101.682 44.712 102.058 44.624 102.362 44.448C102.682 44.272 102.986 43.968 103.274 43.536C103.562 43.104 103.89 42.464 104.258 41.616L109.37 29.832C109.386 29.784 109.442 29.76 109.538 29.76C109.634 29.744 109.69 29.768 109.706 29.832L115.49 41.712C116.034 42.88 116.498 43.672 116.882 44.088C117.266 44.504 117.698 44.712 118.178 44.712ZM106.994 36.744H110.93L108.866 32.424L106.994 36.744ZM118.995 45C118.963 45 118.947 44.952 118.947 44.856C118.947 44.76 118.963 44.712 118.995 44.712C119.587 44.712 120.019 44.672 120.291 44.592C120.579 44.512 120.771 44.36 120.867 44.136C120.979 43.896 121.035 43.536 121.035 43.056V31.944C121.035 31.464 120.979 31.112 120.867 30.888C120.771 30.664 120.579 30.512 120.291 30.432C120.019 30.336 119.587 30.288 118.995 30.288C118.963 30.288 118.947 30.24 118.947 30.144C118.947 30.048 118.963 30 118.995 30L120.243 30.024C120.947 30.056 121.507 30.072 121.923 30.072C122.387 30.072 122.955 30.056 123.627 30.024L124.803 30C124.851 30 124.875 30.048 124.875 30.144C124.875 30.24 124.851 30.288 124.803 30.288C124.259 30.288 123.859 30.336 123.603 30.432C123.347 30.512 123.171 30.664 123.075 30.888C122.995 31.112 122.955 31.464 122.955 31.944V43.008C122.955 43.552 122.979 43.912 123.027 44.088C123.091 44.264 123.219 44.376 123.411 44.424C123.603 44.472 124.003 44.496 124.611 44.496H127.947C128.571 44.496 128.995 44.472 129.219 44.424C129.443 44.36 129.579 44.24 129.627 44.064C129.691 43.872 129.723 43.52 129.723 43.008V31.944C129.723 31.464 129.675 31.112 129.579 30.888C129.499 30.664 129.331 30.512 129.075 30.432C128.819 30.336 128.419 30.288 127.875 30.288C127.827 30.288 127.803 30.24 127.803 30.144C127.803 30.048 127.827 30 127.875 30C129.363 30.048 130.307 30.072 130.707 30.072C131.107 30.072 131.643 30.056 132.315 30.024L133.515 30C133.563 30 133.587 30.048 133.587 30.144C133.587 30.24 133.563 30.288 133.515 30.288C132.971 30.288 132.563 30.336 132.291 30.432C132.035 30.512 131.859 30.664 131.763 30.888C131.683 31.112 131.643 31.464 131.643 31.944V43.032C131.643 43.512 131.691 43.856 131.787 44.064C131.883 44.256 132.043 44.376 132.267 44.424C132.507 44.472 132.923 44.496 133.515 44.496H136.659C137.299 44.496 137.723 44.472 137.931 44.424C138.155 44.376 138.291 44.264 138.339 44.088C138.403 43.896 138.435 43.536 138.435 43.008V31.944C138.435 31.464 138.387 31.112 138.291 30.888C138.211 30.664 138.035 30.512 137.763 30.432C137.507 30.336 137.107 30.288 136.563 30.288C136.531 30.288 136.515 30.24 136.515 30.144C136.515 30.048 136.531 30 136.563 30L137.739 30.024C138.443 30.056 139.019 30.072 139.467 30.072C139.899 30.072 140.451 30.056 141.123 30.024L142.347 30C142.395 30 142.419 30.048 142.419 30.144C142.419 30.24 142.395 30.288 142.347 30.288C141.755 30.288 141.315 30.336 141.027 30.432C140.755 30.512 140.571 30.664 140.475 30.888C140.379 31.112 140.331 31.464 140.331 31.944V43.056C140.331 43.536 140.379 43.888 140.475 44.112C140.587 44.336 140.779 44.496 141.051 44.592C141.339 44.672 141.771 44.712 142.347 44.712C142.395 44.712 142.419 44.76 142.419 44.856C142.419 44.952 142.395 45 142.347 45H118.995ZM160.108 44.712C160.172 44.712 160.204 44.76 160.204 44.856C160.204 44.952 160.172 45 160.108 45C159.804 45 159.316 44.984 158.644 44.952C158.004 44.92 157.532 44.904 157.228 44.904C156.86 44.904 156.404 44.92 155.859 44.952C155.316 44.984 154.908 45 154.636 45C154.572 45 154.54 44.952 154.54 44.856C154.54 44.76 154.572 44.712 154.636 44.712C155.18 44.712 155.572 44.664 155.812 44.568C156.052 44.456 156.172 44.264 156.172 43.992C156.172 43.72 156.052 43.344 155.812 42.864L153.124 37.296H148.708L146.74 41.832C146.516 42.36 146.404 42.8 146.404 43.152C146.404 44.192 147.18 44.712 148.732 44.712C148.812 44.712 148.852 44.76 148.852 44.856C148.852 44.952 148.812 45 148.732 45C148.444 45 148.028 44.984 147.484 44.952C146.876 44.92 146.348 44.904 145.9 44.904C145.484 44.904 144.988 44.92 144.412 44.952C143.9 44.984 143.484 45 143.163 45C143.099 45 143.067 44.952 143.067 44.856C143.067 44.76 143.099 44.712 143.163 44.712C143.612 44.712 143.988 44.624 144.292 44.448C144.612 44.272 144.916 43.968 145.204 43.536C145.492 43.104 145.82 42.464 146.188 41.616L151.3 29.832C151.316 29.784 151.372 29.76 151.468 29.76C151.564 29.744 151.62 29.768 151.636 29.832L157.42 41.712C157.964 42.88 158.428 43.672 158.812 44.088C159.196 44.504 159.628 44.712 160.108 44.712ZM148.924 36.744H152.86L150.796 32.424L148.924 36.744ZM170.414 42.96C170.414 43.408 170.454 43.736 170.534 43.944C170.63 44.136 170.798 44.272 171.038 44.352C171.278 44.416 171.654 44.448 172.166 44.448H174.206C175.214 44.448 176.046 44.152 176.702 43.56C177.374 42.952 177.822 42.136 178.046 41.112C178.046 41.064 178.086 41.048 178.166 41.064C178.262 41.064 178.31 41.088 178.31 41.136C178.166 42.544 178.094 43.712 178.094 44.64C178.094 44.768 178.062 44.864 177.998 44.928C177.95 44.976 177.862 45 177.734 45H166.55C166.518 45 166.502 44.952 166.502 44.856C166.502 44.76 166.518 44.712 166.55 44.712C167.126 44.712 167.542 44.672 167.798 44.592C168.07 44.512 168.254 44.36 168.35 44.136C168.446 43.896 168.494 43.536 168.494 43.056V31.944C168.494 31.464 168.446 31.112 168.35 30.888C168.254 30.664 168.07 30.512 167.798 30.432C167.542 30.336 167.126 30.288 166.55 30.288C166.518 30.288 166.502 30.24 166.502 30.144C166.502 30.048 166.518 30 166.55 30L167.75 30.024C168.454 30.056 169.022 30.072 169.454 30.072C169.886 30.072 170.454 30.056 171.158 30.024L172.358 30C172.39 30 172.406 30.048 172.406 30.144C172.406 30.24 172.39 30.288 172.358 30.288C171.798 30.288 171.382 30.336 171.11 30.432C170.838 30.512 170.654 30.672 170.558 30.912C170.462 31.136 170.414 31.488 170.414 31.968V42.96ZM187.432 45.288C185.944 45.288 184.616 44.944 183.448 44.256C182.296 43.552 181.4 42.608 180.76 41.424C180.136 40.224 179.824 38.92 179.824 37.512C179.824 35.864 180.24 34.456 181.072 33.288C181.904 32.104 182.968 31.216 184.264 30.624C185.576 30.032 186.912 29.736 188.272 29.736C189.792 29.736 191.128 30.096 192.28 30.816C193.432 31.52 194.312 32.456 194.92 33.624C195.544 34.792 195.856 36.032 195.856 37.344C195.856 38.8 195.472 40.136 194.704 41.352C193.936 42.568 192.904 43.528 191.608 44.232C190.328 44.936 188.936 45.288 187.432 45.288ZM188.272 44.76C189.296 44.76 190.216 44.496 191.032 43.968C191.848 43.44 192.488 42.672 192.952 41.664C193.432 40.64 193.672 39.424 193.672 38.016C193.672 36.528 193.408 35.2 192.88 34.032C192.368 32.864 191.624 31.952 190.648 31.296C189.688 30.64 188.568 30.312 187.288 30.312C185.624 30.312 184.328 30.88 183.4 32.016C182.472 33.136 182.008 34.688 182.008 36.672C182.008 38.192 182.272 39.568 182.8 40.8C183.328 42.032 184.064 43 185.008 43.704C185.968 44.408 187.056 44.76 188.272 44.76ZM212.493 30C212.541 30 212.565 30.048 212.565 30.144C212.565 30.24 212.541 30.288 212.493 30.288C211.341 30.288 210.477 31.016 209.901 32.472L205.005 44.976C204.989 45.04 204.901 45.072 204.741 45.072C204.581 45.072 204.493 45.04 204.477 44.976L198.453 31.992C198.165 31.384 197.869 30.952 197.565 30.696C197.277 30.424 196.917 30.288 196.485 30.288C196.437 30.288 196.413 30.24 196.413 30.144C196.413 30.048 196.437 30 196.485 30L197.229 30.024C197.645 30.056 198.037 30.072 198.405 30.072C199.285 30.072 200.125 30.056 200.925 30.024C201.181 30.008 201.509 30 201.909 30C201.957 30 201.981 30.048 201.981 30.144C201.981 30.24 201.957 30.288 201.909 30.288C200.917 30.288 200.421 30.6 200.421 31.224C200.421 31.448 200.493 31.728 200.637 32.064L205.389 42.384L209.325 32.376C209.453 32.024 209.517 31.72 209.517 31.464C209.517 30.68 208.909 30.288 207.693 30.288C207.645 30.288 207.621 30.24 207.621 30.144C207.621 30.048 207.645 30 207.693 30L208.773 30.024C209.349 30.056 209.877 30.072 210.357 30.072C210.693 30.072 211.069 30.056 211.485 30.024L212.493 30ZM223.966 41.352C223.966 41.32 223.998 41.304 224.062 41.304C224.11 41.304 224.15 41.32 224.182 41.352C224.23 41.368 224.254 41.384 224.254 41.4C224.094 42.552 224.014 43.632 224.014 44.64C224.014 44.768 223.99 44.864 223.942 44.928C223.894 44.976 223.798 45 223.654 45H213.43C213.382 45 213.358 44.952 213.358 44.856C213.358 44.76 213.382 44.712 213.43 44.712C214.006 44.712 214.422 44.672 214.678 44.592C214.934 44.512 215.11 44.36 215.206 44.136C215.302 43.896 215.35 43.536 215.35 43.056V31.944C215.35 31.464 215.302 31.112 215.206 30.888C215.11 30.664 214.926 30.512 214.654 30.432C214.398 30.336 213.99 30.288 213.43 30.288C213.382 30.288 213.358 30.24 213.358 30.144C213.358 30.048 213.382 30 213.43 30H223.222C223.382 30 223.462 30.072 223.462 30.216L223.51 33.24C223.51 33.288 223.462 33.32 223.366 33.336C223.286 33.336 223.238 33.312 223.222 33.264C223.11 32.384 222.798 31.72 222.286 31.272C221.774 30.808 221.102 30.576 220.27 30.576H219.046C218.342 30.576 217.87 30.68 217.63 30.888C217.39 31.08 217.27 31.464 217.27 32.04V36.912H219.91C220.726 36.912 221.326 36.776 221.71 36.504C222.094 36.216 222.286 35.776 222.286 35.184C222.286 35.152 222.326 35.136 222.406 35.136C222.502 35.136 222.55 35.152 222.55 35.184L222.526 37.2L222.55 38.28C222.582 38.792 222.598 39.192 222.598 39.48C222.598 39.512 222.55 39.528 222.454 39.528C222.358 39.528 222.31 39.512 222.31 39.48C222.31 38.792 222.11 38.288 221.71 37.968C221.326 37.632 220.702 37.464 219.838 37.464H217.27V42.96C217.27 43.536 217.374 43.928 217.582 44.136C217.806 44.344 218.246 44.448 218.902 44.448H220.462C221.374 44.448 222.126 44.184 222.718 43.656C223.326 43.112 223.742 42.344 223.966 41.352ZM234.727 32.688C234.727 33.296 234.879 33.832 235.183 34.296C235.487 34.744 235.855 35.136 236.287 35.472C236.719 35.792 237.319 36.184 238.087 36.648C238.887 37.144 239.519 37.576 239.983 37.944C240.463 38.296 240.871 38.736 241.207 39.264C241.543 39.792 241.711 40.416 241.711 41.136C241.711 41.92 241.503 42.632 241.087 43.272C240.687 43.896 240.103 44.392 239.335 44.76C238.583 45.112 237.703 45.288 236.695 45.288C236.055 45.288 235.423 45.208 234.799 45.048C234.175 44.904 233.631 44.688 233.167 44.4C233.087 44.352 233.031 44.296 232.999 44.232C232.967 44.168 232.951 44.072 232.951 43.944L232.711 40.512C232.695 40.448 232.727 40.408 232.807 40.392C232.903 40.376 232.959 40.4 232.975 40.464C233.359 41.68 233.895 42.712 234.583 43.56C235.271 44.408 236.167 44.832 237.271 44.832C238.023 44.832 238.647 44.632 239.143 44.232C239.655 43.816 239.911 43.144 239.911 42.216C239.911 41.512 239.751 40.896 239.431 40.368C239.111 39.84 238.719 39.4 238.255 39.048C237.807 38.68 237.199 38.264 236.431 37.8C235.679 37.32 235.079 36.912 234.631 36.576C234.199 36.224 233.831 35.8 233.527 35.304C233.223 34.792 233.071 34.2 233.071 33.528C233.071 32.712 233.287 32.016 233.719 31.44C234.167 30.864 234.743 30.44 235.447 30.168C236.167 29.88 236.919 29.736 237.703 29.736C238.775 29.736 239.743 29.92 240.607 30.288C240.847 30.384 240.967 30.528 240.967 30.72L241.087 33.72C241.087 33.784 241.047 33.824 240.967 33.84C240.887 33.856 240.839 33.832 240.823 33.768C240.647 32.904 240.271 32.088 239.695 31.32C239.119 30.536 238.303 30.144 237.247 30.144C236.447 30.144 235.823 30.384 235.375 30.864C234.943 31.344 234.727 31.952 234.727 32.688ZM247.784 30.48C246.792 30.48 246.016 30.76 245.456 31.32C244.896 31.864 244.48 32.744 244.208 33.96C244.192 33.992 244.136 34.008 244.04 34.008C243.96 34.008 243.92 33.992 243.92 33.96C243.984 33.496 244.056 32.76 244.136 31.752C244.216 30.744 244.256 29.984 244.256 29.472C244.256 29.392 244.304 29.352 244.4 29.352C244.496 29.352 244.544 29.392 244.544 29.472C244.544 29.824 244.984 30 245.864 30C247.224 30.048 248.832 30.072 250.688 30.072C251.632 30.072 252.632 30.056 253.688 30.024L255.32 30C255.912 30 256.344 29.96 256.616 29.88C256.888 29.8 257.064 29.64 257.144 29.4C257.16 29.336 257.208 29.304 257.288 29.304C257.384 29.304 257.432 29.336 257.432 29.4C257.384 29.848 257.328 30.568 257.264 31.56C257.216 32.552 257.192 33.352 257.192 33.96C257.192 33.992 257.144 34.008 257.048 34.008C256.968 34.008 256.928 33.992 256.928 33.96C256.816 32.728 256.496 31.84 255.968 31.296C255.44 30.752 254.656 30.48 253.616 30.48C253.024 30.48 252.6 30.52 252.344 30.6C252.088 30.664 251.912 30.8 251.816 31.008C251.72 31.2 251.672 31.528 251.672 31.992V43.056C251.672 43.552 251.72 43.912 251.816 44.136C251.928 44.36 252.136 44.512 252.44 44.592C252.744 44.672 253.232 44.712 253.904 44.712C253.936 44.712 253.952 44.76 253.952 44.856C253.952 44.952 253.936 45 253.904 45C253.344 45 252.904 44.992 252.584 44.976L250.688 44.952L248.84 44.976C248.52 44.992 248.072 45 247.496 45C247.448 45 247.424 44.952 247.424 44.856C247.424 44.76 247.448 44.712 247.496 44.712C248.152 44.712 248.632 44.672 248.936 44.592C249.24 44.512 249.448 44.36 249.56 44.136C249.672 43.896 249.728 43.536 249.728 43.056V31.944C249.728 31.496 249.68 31.176 249.584 30.984C249.488 30.776 249.312 30.64 249.056 30.576C248.8 30.512 248.376 30.48 247.784 30.48ZM266.745 45.288C265.257 45.288 263.929 44.944 262.761 44.256C261.609 43.552 260.713 42.608 260.073 41.424C259.449 40.224 259.137 38.92 259.137 37.512C259.137 35.864 259.553 34.456 260.385 33.288C261.217 32.104 262.281 31.216 263.577 30.624C264.889 30.032 266.225 29.736 267.585 29.736C269.105 29.736 270.441 30.096 271.593 30.816C272.745 31.52 273.625 32.456 274.233 33.624C274.857 34.792 275.169 36.032 275.169 37.344C275.169 38.8 274.785 40.136 274.017 41.352C273.249 42.568 272.217 43.528 270.921 44.232C269.641 44.936 268.249 45.288 266.745 45.288ZM267.585 44.76C268.609 44.76 269.529 44.496 270.345 43.968C271.161 43.44 271.801 42.672 272.265 41.664C272.745 40.64 272.985 39.424 272.985 38.016C272.985 36.528 272.721 35.2 272.193 34.032C271.681 32.864 270.937 31.952 269.961 31.296C269.001 30.64 267.881 30.312 266.601 30.312C264.937 30.312 263.641 30.88 262.713 32.016C261.785 33.136 261.321 34.688 261.321 36.672C261.321 38.192 261.585 39.568 262.113 40.8C262.641 42.032 263.377 43 264.321 43.704C265.281 44.408 266.369 44.76 267.585 44.76ZM292.92 44.712C292.952 44.712 292.968 44.76 292.968 44.856C292.968 44.952 292.952 45 292.92 45H289.44C289.056 45 288.328 44.32 287.256 42.96C286.2 41.584 284.936 39.704 283.464 37.32C283.096 37.4 282.744 37.44 282.408 37.44C282.104 37.44 281.712 37.424 281.232 37.392V43.056C281.232 43.536 281.28 43.896 281.376 44.136C281.472 44.36 281.648 44.512 281.904 44.592C282.176 44.672 282.6 44.712 283.176 44.712C283.224 44.712 283.248 44.76 283.248 44.856C283.248 44.952 283.224 45 283.176 45C282.68 45 282.288 44.992 282 44.976L280.272 44.952L278.592 44.976C278.288 44.992 277.88 45 277.368 45C277.32 45 277.296 44.952 277.296 44.856C277.296 44.76 277.32 44.712 277.368 44.712C277.944 44.712 278.368 44.672 278.64 44.592C278.912 44.512 279.096 44.36 279.192 44.136C279.288 43.896 279.336 43.536 279.336 43.056V31.944C279.336 31.464 279.288 31.112 279.192 30.888C279.096 30.664 278.912 30.512 278.64 30.432C278.384 30.336 277.968 30.288 277.392 30.288C277.36 30.288 277.344 30.24 277.344 30.144C277.344 30.048 277.36 30 277.392 30L278.592 30.024C279.296 30.056 279.856 30.072 280.272 30.072C280.56 30.072 280.832 30.064 281.088 30.048C281.344 30.032 281.568 30.016 281.76 30C282.288 29.952 282.784 29.928 283.248 29.928C284.608 29.928 285.656 30.2 286.392 30.744C287.128 31.272 287.496 32.008 287.496 32.952C287.496 33.704 287.272 34.416 286.824 35.088C286.376 35.76 285.792 36.304 285.072 36.72C286.416 38.752 287.536 40.344 288.432 41.496C289.344 42.632 290.152 43.456 290.856 43.968C291.56 44.464 292.248 44.712 292.92 44.712ZM281.232 36.768C281.84 36.832 282.312 36.864 282.648 36.864C283.672 36.864 284.4 36.64 284.832 36.192C285.28 35.728 285.504 34.936 285.504 33.816C285.504 32.552 285.264 31.656 284.784 31.128C284.304 30.6 283.64 30.336 282.792 30.336C282.376 30.336 282.056 30.376 281.832 30.456C281.624 30.536 281.472 30.696 281.376 30.936C281.28 31.16 281.232 31.512 281.232 31.992V36.768ZM306.097 30C306.129 30 306.145 30.048 306.145 30.144C306.145 30.24 306.129 30.288 306.097 30.288C305.553 30.288 304.961 30.536 304.321 31.032C303.697 31.512 303.137 32.152 302.641 32.952L299.665 37.632V43.056C299.665 43.552 299.705 43.912 299.785 44.136C299.881 44.36 300.057 44.512 300.313 44.592C300.585 44.672 301.009 44.712 301.585 44.712C301.633 44.712 301.657 44.76 301.657 44.856C301.657 44.952 301.633 45 301.585 45C301.089 45 300.697 44.992 300.409 44.976L298.681 44.952L297.001 44.976C296.713 44.992 296.305 45 295.777 45C295.729 45 295.705 44.952 295.705 44.856C295.705 44.76 295.729 44.712 295.777 44.712C296.353 44.712 296.777 44.672 297.049 44.592C297.321 44.512 297.505 44.36 297.601 44.136C297.697 43.896 297.745 43.536 297.745 43.056V38.04L293.929 32.352C293.417 31.584 292.961 31.048 292.561 30.744C292.177 30.44 291.761 30.288 291.313 30.288C291.265 30.288 291.241 30.24 291.241 30.144C291.241 30.048 291.265 30 291.313 30C291.489 30 291.769 30.016 292.153 30.048L292.945 30.072C293.473 30.072 294.201 30.056 295.129 30.024L296.521 30C296.553 30 296.569 30.048 296.569 30.144C296.569 30.24 296.553 30.288 296.521 30.288C295.769 30.288 295.393 30.48 295.393 30.864C295.393 31.04 295.481 31.264 295.657 31.536L299.353 37.056L302.041 32.808C302.425 32.184 302.617 31.672 302.617 31.272C302.617 30.952 302.505 30.712 302.281 30.552C302.057 30.376 301.729 30.288 301.297 30.288C301.249 30.288 301.225 30.24 301.225 30.144C301.225 30.048 301.249 30 301.297 30L302.473 30.024C303.113 30.056 303.697 30.072 304.225 30.072C304.497 30.072 304.825 30.056 305.209 30.024L306.097 30Z" fill="black"/>
<path d="M318.333 30C318.333 31.4728 319.527 32.6667 321 32.6667C322.473 32.6667 323.667 31.4728 323.667 30C323.667 28.5272 322.473 27.3333 321 27.3333C319.527 27.3333 318.333 28.5272 318.333 30ZM0 1C3.87189e-08 1.5 0.00104608 1.5 0.00313422 1.5C0.00522235 1.5 0.00835256 1.5 0.0125209 1.5C0.0208415 1.5 0.0333628 1.5 0.0499568 1.5C0.0831735 1.5 0.132883 1.5 0.198813 1.5C0.330683 1.5 0.527462 1.5 0.787142 1.5C1.3065 1.5 2.07742 1.5 3.08368 1.5C5.09621 1.5 8.05013 1.5 11.8157 1.5C19.3467 1.5 30.1242 1.5 43.11 1.5C69.0816 1.49999 103.886 1.49999 139.219 1.49999C209.885 1.49998 282.662 1.49997 291.109 1.49997L291.109 0.49997C282.662 0.49997 209.885 0.499978 139.219 0.499985C103.886 0.499989 69.0816 0.499993 43.11 0.499996C30.1242 0.499997 19.3467 0.499999 11.8157 0.499999C8.05013 0.5 5.09622 0.5 3.08368 0.5C2.07742 0.5 1.3065 0.500001 0.787142 0.500001C0.527464 0.500001 0.33068 0.500001 0.198813 0.500001C0.13288 0.500001 0.0831764 0.500001 0.0499567 0.500001C0.0333447 0.500001 0.0208595 0.500001 0.0125208 0.500001C0.00835249 0.500001 0.00522227 0.500001 0.00313414 0.500001C0.00104601 0.500001 -3.87188e-08 0.500001 0 1ZM291.109 1.49997C307.698 1.49997 319.22 14.6917 320.502 30.0416L321.498 29.9584C320.181 14.1864 308.31 0.499969 291.109 0.49997L291.109 1.49997Z" fill="#AEB88D"/>
<path d="M71.6667 43C71.6667 41.5272 70.4728 40.3333 69 40.3333C67.5273 40.3333 66.3333 41.5272 66.3333 43C66.3333 44.4728 67.5273 45.6667 69 45.6667C70.4728 45.6667 71.6667 44.4728 71.6667 43ZM391 73C391 72.5 390.999 72.5 390.997 72.5C390.995 72.5 390.992 72.5 390.987 72.5C390.979 72.5 390.967 72.5 390.95 72.5C390.917 72.5 390.867 72.5 390.801 72.5C390.668 72.5 390.471 72.5 390.21 72.5C389.689 72.5 388.916 72.5 387.907 72.5C385.888 72.5 382.925 72.5 379.148 72.5C371.593 72.5 360.782 72.5 347.756 72.5C321.703 72.5 286.79 72.5 251.347 72.5C180.462 72.5 107.457 72.5 98.9838 72.5L98.9838 73.5C107.457 73.5 180.462 73.5 251.347 73.5C286.79 73.5 321.703 73.5 347.756 73.5C360.782 73.5 371.593 73.5 379.148 73.5C382.925 73.5 385.888 73.5 387.907 73.5C388.916 73.5 389.689 73.5 390.21 73.5C390.471 73.5 390.668 73.5 390.801 73.5C390.867 73.5 390.917 73.5 390.95 73.5C390.967 73.5 390.979 73.5 390.987 73.5C390.992 73.5 390.995 73.5 390.997 73.5C390.999 73.5 391 73.5 391 73ZM98.9838 72.5C82.3546 72.5 70.786 58.8592 69.4984 42.9596L68.5016 43.0404C69.8213 59.3359 81.7183 73.5 98.9838 73.5L98.9838 72.5Z" fill="#AEB88D"/>
</svg>
