<svg width="320" height="57" viewBox="0 0 320 57" fill="none" xmlns="http://www.w3.org/2000/svg">
<path d="M8.93748 4.18C5.46548 4.18 2.74948 5.16 0.789482 7.12C-1.17052 9.024 -2.62652 12.104 -3.57852 16.36C-3.63452 16.472 -3.83052 16.528 -4.16652 16.528C-4.44652 16.528 -4.58652 16.472 -4.58652 16.36C-4.36252 14.736 -4.11052 12.16 -3.83052 8.632C-3.55052 5.104 -3.41052 2.444 -3.41052 0.651999C-3.41052 0.371999 -3.24252 0.231999 -2.90652 0.231999C-2.57052 0.231999 -2.40252 0.371999 -2.40252 0.651999C-2.40252 1.884 -0.862518 2.5 2.21748 2.5C6.97748 2.668 12.6055 2.752 19.1015 2.752C22.4055 2.752 25.9055 2.696 29.6015 2.584L35.3135 2.5C37.3855 2.5 38.8975 2.36 39.8495 2.08C40.8015 1.8 41.4175 1.24 41.6975 0.399997C41.7535 0.175997 41.9215 0.0639963 42.2015 0.0639963C42.5375 0.0639963 42.7055 0.175997 42.7055 0.399997C42.5375 1.968 42.3415 4.488 42.1175 7.96C41.9495 11.432 41.8655 14.232 41.8655 16.36C41.8655 16.472 41.6975 16.528 41.3615 16.528C41.0815 16.528 40.9415 16.472 40.9415 16.36C40.5495 12.048 39.4295 8.94 37.5815 7.036C35.7335 5.132 32.9895 4.18 29.3495 4.18C27.2775 4.18 25.7935 4.32 24.8975 4.6C24.0015 4.824 23.3855 5.3 23.0495 6.028C22.7135 6.7 22.5455 7.848 22.5455 9.472V48.196C22.5455 49.932 22.7135 51.192 23.0495 51.976C23.4415 52.76 24.1695 53.292 25.2335 53.572C26.2975 53.852 28.0055 53.992 30.3575 53.992C30.4695 53.992 30.5255 54.16 30.5255 54.496C30.5255 54.832 30.4695 55 30.3575 55C28.3975 55 26.8575 54.972 25.7375 54.916L19.1015 54.832L12.6335 54.916C11.5135 54.972 9.94548 55 7.92948 55C7.76148 55 7.67748 54.832 7.67748 54.496C7.67748 54.16 7.76148 53.992 7.92948 53.992C10.2255 53.992 11.9055 53.852 12.9695 53.572C14.0335 53.292 14.7615 52.76 15.1535 51.976C15.5455 51.136 15.7415 49.876 15.7415 48.196V9.304C15.7415 7.736 15.5735 6.616 15.2375 5.944C14.9015 5.216 14.2855 4.74 13.3895 4.516C12.4935 4.292 11.0095 4.18 8.93748 4.18ZM69.8979 48.196C69.8979 49.876 70.0659 51.136 70.4019 51.976C70.7379 52.76 71.3539 53.292 72.2499 53.572C73.2019 53.852 74.6859 53.992 76.7019 53.992C76.8139 53.992 76.8699 54.16 76.8699 54.496C76.8699 54.832 76.8139 55 76.7019 55C74.9099 55 73.5099 54.972 72.5019 54.916L66.4539 54.832L60.5739 54.916C59.5099 54.972 58.0539 55 56.2059 55C56.0939 55 56.0379 54.832 56.0379 54.496C56.0379 54.16 56.0939 53.992 56.2059 53.992C58.2219 53.992 59.7059 53.852 60.6579 53.572C61.6099 53.292 62.2539 52.76 62.5899 51.976C62.9259 51.136 63.0939 49.876 63.0939 48.196V9.304C63.0939 7.624 62.9259 6.392 62.5899 5.608C62.2539 4.824 61.6099 4.292 60.6579 4.012C59.7059 3.676 58.2219 3.508 56.2059 3.508C56.0939 3.508 56.0379 3.34 56.0379 3.004C56.0379 2.668 56.0939 2.5 56.2059 2.5L60.5739 2.584C63.0379 2.696 64.9979 2.752 66.4539 2.752C68.0779 2.752 70.1219 2.696 72.5859 2.584L76.7019 2.5C76.8139 2.5 76.8699 2.668 76.8699 3.004C76.8699 3.34 76.8139 3.508 76.7019 3.508C74.7419 3.508 73.2859 3.676 72.3339 4.012C71.3819 4.348 70.7379 4.936 70.4019 5.776C70.0659 6.56 69.8979 7.792 69.8979 9.472V48.196ZM156.079 53.992C156.191 53.992 156.247 54.16 156.247 54.496C156.247 54.832 156.191 55 156.079 55C154.287 55 152.859 54.972 151.795 54.916L145.831 54.832L140.203 54.916C139.251 54.972 137.935 55 136.255 55C136.087 55 136.003 54.832 136.003 54.496C136.003 54.16 136.087 53.992 136.255 53.992C138.719 53.992 140.371 53.712 141.211 53.152C142.107 52.592 142.555 51.416 142.555 49.624L142.471 48.196L140.875 11.236L122.311 54.412C122.199 54.636 121.975 54.748 121.639 54.748C121.303 54.748 121.079 54.636 120.967 54.412L100.051 11.572L99.3786 45.34C99.3226 48.308 99.8546 50.492 100.975 51.892C102.095 53.292 103.915 53.992 106.435 53.992C106.603 53.992 106.687 54.16 106.687 54.496C106.687 54.832 106.603 55 106.435 55C104.923 55 103.747 54.972 102.907 54.916L98.2866 54.832L93.6666 54.916C92.8826 54.972 91.7346 55 90.2226 55C90.1106 55 90.0546 54.832 90.0546 54.496C90.0546 54.16 90.1106 53.992 90.2226 53.992C94.8706 53.992 97.2226 51.108 97.2786 45.34L98.0346 7.708C96.2426 4.908 93.8346 3.508 90.8106 3.508C90.6986 3.508 90.6426 3.34 90.6426 3.004C90.6426 2.668 90.6986 2.5 90.8106 2.5L94.1706 2.584C94.8426 2.64 95.7106 2.668 96.7746 2.668C98.0066 2.668 99.0146 2.64 99.7986 2.584C100.583 2.528 101.199 2.5 101.647 2.5C102.375 2.5 102.963 2.752 103.411 3.256C103.859 3.76 104.559 4.964 105.511 6.868L124.159 44.752L141.715 4.6C142.275 3.2 143.115 2.5 144.235 2.5C144.571 2.5 145.019 2.528 145.579 2.584C146.139 2.64 146.867 2.668 147.763 2.668L152.047 2.584C152.719 2.528 153.699 2.5 154.987 2.5C155.155 2.5 155.239 2.668 155.239 3.004C155.239 3.34 155.155 3.508 154.987 3.508C152.243 3.508 150.255 3.956 149.023 4.852C147.847 5.748 147.287 7.316 147.343 9.556L149.191 48.196C149.303 49.932 149.527 51.192 149.863 51.976C150.199 52.76 150.815 53.292 151.711 53.572C152.607 53.852 154.063 53.992 156.079 53.992ZM182.186 48.196C182.186 49.876 182.354 51.136 182.69 51.976C183.026 52.76 183.642 53.292 184.538 53.572C185.49 53.852 186.974 53.992 188.99 53.992C189.102 53.992 189.158 54.16 189.158 54.496C189.158 54.832 189.102 55 188.99 55C187.198 55 185.798 54.972 184.79 54.916L178.742 54.832L172.862 54.916C171.798 54.972 170.342 55 168.494 55C168.382 55 168.326 54.832 168.326 54.496C168.326 54.16 168.382 53.992 168.494 53.992C170.51 53.992 171.994 53.852 172.946 53.572C173.898 53.292 174.542 52.76 174.878 51.976C175.214 51.136 175.382 49.876 175.382 48.196V9.304C175.382 7.624 175.214 6.392 174.878 5.608C174.542 4.824 173.898 4.292 172.946 4.012C171.994 3.676 170.51 3.508 168.494 3.508C168.382 3.508 168.326 3.34 168.326 3.004C168.326 2.668 168.382 2.5 168.494 2.5L172.862 2.584C175.326 2.696 177.286 2.752 178.742 2.752C180.366 2.752 182.41 2.696 184.874 2.584L188.99 2.5C189.102 2.5 189.158 2.668 189.158 3.004C189.158 3.34 189.102 3.508 188.99 3.508C187.03 3.508 185.574 3.676 184.622 4.012C183.67 4.348 183.026 4.936 182.69 5.776C182.354 6.56 182.186 7.792 182.186 9.472V48.196ZM259.21 2.5C259.378 2.5 259.462 2.668 259.462 3.004C259.462 3.34 259.378 3.508 259.21 3.508C254.618 3.508 252.322 6.42 252.322 12.244V56.092C252.322 56.204 252.182 56.288 251.902 56.344C251.678 56.4 251.51 56.372 251.398 56.26L212.002 9.556V45.34C212.002 48.308 212.534 50.492 213.598 51.892C214.718 53.292 216.398 53.992 218.638 53.992C218.806 53.992 218.89 54.16 218.89 54.496C218.89 54.832 218.806 55 218.638 55C217.182 55 216.062 54.972 215.278 54.916L210.994 54.832L206.458 54.916C205.618 54.972 204.386 55 202.762 55C202.65 55 202.594 54.832 202.594 54.496C202.594 54.16 202.65 53.992 202.762 53.992C205.17 53.992 206.934 53.292 208.054 51.892C209.23 50.492 209.818 48.308 209.818 45.34V7.204C207.354 4.74 204.918 3.508 202.51 3.508C202.342 3.508 202.258 3.34 202.258 3.004C202.258 2.668 202.342 2.5 202.51 2.5L205.786 2.584C206.458 2.64 207.41 2.668 208.642 2.668L213.01 2.584C213.514 2.528 214.158 2.5 214.942 2.5C215.39 2.5 215.698 2.612 215.866 2.836C216.09 3.004 216.426 3.424 216.874 4.096C217.378 4.88 218.078 5.804 218.974 6.868L250.222 44.584V12.244C250.222 9.276 249.69 7.092 248.626 5.692C247.562 4.236 245.91 3.508 243.67 3.508C243.558 3.508 243.502 3.34 243.502 3.004C243.502 2.668 243.558 2.5 243.67 2.5L247.03 2.584C248.71 2.696 250.138 2.752 251.314 2.752C252.322 2.752 253.778 2.696 255.682 2.584L259.21 2.5ZM301.754 56.008C295.65 56.008 290.33 54.832 285.794 52.48C281.258 50.128 277.786 46.936 275.378 42.904C272.97 38.872 271.766 34.364 271.766 29.38C271.766 23.948 273.138 19.132 275.882 14.932C278.682 10.732 282.49 7.456 287.306 5.104C292.178 2.752 297.638 1.576 303.686 1.576C306.374 1.576 308.978 1.828 311.498 2.332C314.074 2.836 316.174 3.508 317.798 4.348C318.246 4.628 318.526 4.88 318.638 5.104C318.75 5.328 318.834 5.72 318.89 6.28L319.982 16.444C319.982 16.612 319.814 16.724 319.478 16.78C319.198 16.78 319.03 16.696 318.974 16.528C317.518 12.384 315.138 9.192 311.834 6.952C308.53 4.712 304.554 3.592 299.906 3.592C293.298 3.592 288.202 5.608 284.618 9.64C281.034 13.672 279.242 19.216 279.242 26.272C279.242 31.76 280.306 36.66 282.434 40.972C284.562 45.228 287.474 48.56 291.17 50.968C294.922 53.376 299.15 54.58 303.854 54.58C306.542 54.58 308.614 54.328 310.07 53.824C311.526 53.32 312.59 52.34 313.262 50.884C313.934 49.428 314.27 47.272 314.27 44.416C314.27 41.504 314.074 39.488 313.682 38.368C313.346 37.192 312.562 36.408 311.33 36.016C310.154 35.624 308.082 35.428 305.114 35.428C304.778 35.428 304.61 35.204 304.61 34.756C304.61 34.588 304.638 34.448 304.694 34.336C304.806 34.168 304.918 34.084 305.03 34.084C309.51 34.364 313.15 34.504 315.95 34.504C318.582 34.504 321.382 34.42 324.35 34.252C324.462 34.252 324.546 34.336 324.602 34.504C324.714 34.616 324.77 34.728 324.77 34.84C324.77 35.232 324.63 35.428 324.35 35.428C323.118 35.372 322.25 35.568 321.746 36.016C321.242 36.408 320.906 37.248 320.738 38.536C320.626 39.824 320.57 42.064 320.57 45.256C320.57 47.776 320.654 49.568 320.822 50.632C321.046 51.696 321.158 52.368 321.158 52.648C321.158 52.984 321.074 53.208 320.906 53.32C320.794 53.376 320.542 53.488 320.15 53.656C313.262 55.224 307.13 56.008 301.754 56.008Z" fill="#FBFFF3"/>
</svg>
