<svg width="390" height="33" viewBox="0 0 390 33" fill="none" xmlns="http://www.w3.org/2000/svg">
<path d="M318.333 30C318.333 31.4728 319.527 32.6667 321 32.6667C322.473 32.6667 323.667 31.4728 323.667 30C323.667 28.5272 322.473 27.3333 321 27.3333C319.527 27.3333 318.333 28.5272 318.333 30ZM0 1C3.87189e-08 1.5 0.00104608 1.5 0.00313422 1.5C0.00522235 1.5 0.00835256 1.5 0.0125209 1.5C0.0208415 1.5 0.0333628 1.5 0.0499568 1.5C0.0831735 1.5 0.132883 1.5 0.198813 1.5C0.330683 1.5 0.527462 1.5 0.787142 1.5C1.3065 1.5 2.07742 1.5 3.08368 1.5C5.09621 1.5 8.05013 1.5 11.8157 1.5C19.3467 1.5 30.1242 1.5 43.11 1.5C69.0816 1.49999 103.886 1.49999 139.219 1.49999C209.885 1.49998 282.662 1.49997 291.109 1.49997L291.109 0.49997C282.662 0.49997 209.885 0.499978 139.219 0.499985C103.886 0.499989 69.0816 0.499993 43.11 0.499996C30.1242 0.499997 19.3467 0.499999 11.8157 0.499999C8.05013 0.5 5.09622 0.5 3.08368 0.5C2.07742 0.5 1.3065 0.500001 0.787142 0.500001C0.527464 0.500001 0.33068 0.500001 0.198813 0.500001C0.13288 0.500001 0.0831764 0.500001 0.0499567 0.500001C0.0333447 0.500001 0.0208595 0.500001 0.0125208 0.500001C0.00835249 0.500001 0.00522227 0.500001 0.00313414 0.500001C0.00104601 0.500001 -3.87188e-08 0.500001 0 1ZM291.109 1.49997C307.698 1.49997 319.22 14.6917 320.502 30.0416L321.498 29.9584C320.181 14.1864 308.31 0.499969 291.109 0.49997L291.109 1.49997Z" fill="#AEB88D"/>
</svg>
