<svg width="31" height="329" viewBox="0 0 31 329" fill="none" xmlns="http://www.w3.org/2000/svg">
<path d="M1 283.818C1 283.722 1.096 283.674 1.288 283.674C1.48 283.674 1.576 283.722 1.576 283.818C1.576 284.97 1.944 286.026 2.68 286.986C3.384 287.914 4.472 288.586 5.944 289.002L30.952 296.202C31.08 296.202 31.144 296.378 31.144 296.73C31.144 297.05 31.08 297.226 30.952 297.258L7 306.474L30.952 313.77C31.08 313.77 31.144 313.946 31.144 314.298C31.144 314.586 31.08 314.778 30.952 314.874L4.984 323.946C3.672 324.394 2.776 324.922 2.296 325.53C1.816 326.106 1.576 326.89 1.576 327.882C1.576 327.978 1.48 328.026 1.288 328.026C1.096 328.026 1 327.978 1 327.882L1.048 326.394C1.112 325.562 1.144 324.778 1.144 324.042C1.144 322.218 1.112 320.442 1.048 318.714C1.016 318.202 1 317.562 1 316.794C1 316.698 1.096 316.65 1.288 316.65C1.48 316.65 1.576 316.698 1.576 316.794C1.576 319.002 2.28 320.106 3.688 320.106C4.072 320.106 4.552 320.01 5.128 319.818L24.52 313.05L1 305.85C0.903999 305.786 0.855999 305.594 0.855999 305.274C0.855999 304.954 0.903999 304.778 1 304.746L24.76 295.626L5.944 290.25C5.304 290.09 4.792 290.01 4.408 290.01C2.52 290.01 1.576 291.434 1.576 294.282C1.576 294.346 1.48 294.378 1.288 294.378C1.096 294.378 1 294.346 1 294.282L1.048 291.738C1.112 290.33 1.144 289.098 1.144 288.042C1.144 287.434 1.112 286.682 1.048 285.786L1 283.818ZM23.704 260.872C23.64 260.872 23.608 260.808 23.608 260.68C23.608 260.584 23.64 260.504 23.704 260.44C23.736 260.344 23.768 260.296 23.8 260.296C26.104 260.616 28.264 260.776 30.28 260.776C30.536 260.776 30.728 260.824 30.856 260.92C30.952 261.016 31 261.208 31 261.496V281.944C31 282.04 30.904 282.088 30.712 282.088C30.52 282.088 30.424 282.04 30.424 281.944C30.424 280.792 30.344 279.96 30.184 279.448C30.024 278.936 29.72 278.584 29.272 278.392C28.792 278.2 28.072 278.104 27.112 278.104H4.888C3.928 278.104 3.224 278.2 2.776 278.392C2.328 278.584 2.024 278.952 1.864 279.496C1.672 280.008 1.576 280.824 1.576 281.944C1.576 282.04 1.48 282.088 1.288 282.088C1.096 282.088 1 282.04 1 281.944L1 262.36C1 262.04 1.144 261.88 1.432 261.88L7.48 261.784C7.576 261.784 7.64 261.88 7.672 262.072C7.672 262.232 7.624 262.328 7.528 262.36C5.768 262.584 4.44 263.208 3.544 264.232C2.616 265.256 2.152 266.6 2.152 268.264V270.712C2.152 272.12 2.36 273.064 2.776 273.544C3.16 274.024 3.928 274.264 5.08 274.264H14.824V268.984C14.824 267.352 14.552 266.152 14.008 265.384C13.432 264.616 12.552 264.232 11.368 264.232C11.304 264.232 11.272 264.152 11.272 263.992C11.272 263.8 11.304 263.704 11.368 263.704L15.4 263.752L17.56 263.704C18.584 263.64 19.384 263.608 19.96 263.608C20.024 263.608 20.056 263.704 20.056 263.896C20.056 264.088 20.024 264.184 19.96 264.184C18.584 264.184 17.576 264.584 16.936 265.384C16.264 266.152 15.928 267.4 15.928 269.128V274.264H26.92C28.072 274.264 28.856 274.056 29.272 273.64C29.688 273.192 29.896 272.312 29.896 271V267.88C29.896 266.056 29.368 264.552 28.312 263.368C27.224 262.152 25.688 261.32 23.704 260.872ZM31.192 243.112C31.192 244.072 31.144 245.176 31.048 246.424C31.016 246.904 30.984 247.496 30.952 248.2C30.92 248.904 30.904 249.688 30.904 250.552L30.952 253.912C30.984 254.52 31 255.352 31 256.408C31 256.472 30.904 256.504 30.712 256.504C30.52 256.504 30.424 256.472 30.424 256.408C30.424 255.256 30.344 254.408 30.184 253.864C30.024 253.32 29.72 252.952 29.272 252.76C28.792 252.568 28.072 252.472 27.112 252.472H4.888C3.928 252.472 3.224 252.568 2.776 252.76C2.328 252.952 2.024 253.32 1.864 253.864C1.672 254.376 1.576 255.192 1.576 256.312C1.576 256.408 1.48 256.456 1.288 256.456C1.096 256.456 1 256.408 1 256.312L1.048 253.912C1.112 252.504 1.144 251.384 1.144 250.552C1.144 249.336 1.096 248.104 1 246.856C0.935999 245.32 0.903998 244.296 0.903998 243.784C0.903998 240.488 1.544 237.56 2.824 235C4.104 232.44 5.848 230.456 8.056 229.048C10.264 227.64 12.744 226.936 15.496 226.936C18.6 226.936 21.352 227.672 23.752 229.144C26.12 230.584 27.96 232.536 29.272 235C30.552 237.464 31.192 240.168 31.192 243.112ZM30.328 243.592C30.328 241.192 29.8 239.08 28.744 237.256C27.656 235.4 26.088 233.96 24.04 232.936C21.96 231.88 19.464 231.352 16.552 231.352C13.768 231.352 11.256 231.848 9.016 232.84C6.744 233.8 4.968 235.192 3.688 237.016C2.376 238.808 1.72 240.904 1.72 243.304C1.72 244.68 1.8 245.736 1.96 246.472C2.12 247.208 2.44 247.752 2.92 248.104C3.368 248.456 4.056 248.632 4.984 248.632H26.584C27.96 248.632 28.936 248.296 29.512 247.624C30.056 246.92 30.328 245.576 30.328 243.592ZM31.192 209.69C31.192 210.65 31.144 211.754 31.048 213.002C31.016 213.482 30.984 214.074 30.952 214.778C30.92 215.482 30.904 216.266 30.904 217.13L30.952 220.49C30.984 221.098 31 221.93 31 222.986C31 223.05 30.904 223.082 30.712 223.082C30.52 223.082 30.424 223.05 30.424 222.986C30.424 221.834 30.344 220.986 30.184 220.442C30.024 219.898 29.72 219.53 29.272 219.338C28.792 219.146 28.072 219.05 27.112 219.05H4.888C3.928 219.05 3.224 219.146 2.776 219.338C2.328 219.53 2.024 219.898 1.864 220.442C1.672 220.954 1.576 221.77 1.576 222.89C1.576 222.986 1.48 223.034 1.288 223.034C1.096 223.034 1 222.986 1 222.89L1.048 220.49C1.112 219.082 1.144 217.962 1.144 217.13C1.144 215.914 1.096 214.682 1 213.434C0.935999 211.898 0.903998 210.874 0.903998 210.362C0.903998 207.066 1.544 204.138 2.824 201.578C4.104 199.018 5.848 197.034 8.056 195.626C10.264 194.218 12.744 193.514 15.496 193.514C18.6 193.514 21.352 194.25 23.752 195.722C26.12 197.162 27.96 199.114 29.272 201.578C30.552 204.042 31.192 206.746 31.192 209.69ZM30.328 210.17C30.328 207.77 29.8 205.658 28.744 203.834C27.656 201.978 26.088 200.538 24.04 199.514C21.96 198.458 19.464 197.93 16.552 197.93C13.768 197.93 11.256 198.426 9.016 199.418C6.744 200.378 4.968 201.77 3.688 203.594C2.376 205.386 1.72 207.482 1.72 209.882C1.72 211.258 1.8 212.314 1.96 213.05C2.12 213.786 2.44 214.33 2.92 214.682C3.368 215.034 4.056 215.21 4.984 215.21H26.584C27.96 215.21 28.936 214.874 29.512 214.202C30.056 213.498 30.328 212.154 30.328 210.17ZM27.112 181.164C28.072 181.164 28.792 181.068 29.272 180.876C29.72 180.684 30.024 180.332 30.184 179.82C30.344 179.276 30.424 178.428 30.424 177.276C30.424 177.212 30.52 177.18 30.712 177.18C30.904 177.18 31 177.212 31 177.276C31 178.3 30.984 179.1 30.952 179.676L30.904 183.132L30.952 186.492C30.984 187.1 31 187.932 31 188.988C31 189.052 30.904 189.084 30.712 189.084C30.52 189.084 30.424 189.052 30.424 188.988C30.424 187.836 30.344 186.988 30.184 186.444C30.024 185.9 29.72 185.532 29.272 185.34C28.792 185.148 28.072 185.052 27.112 185.052H4.888C3.928 185.052 3.224 185.148 2.776 185.34C2.328 185.532 2.024 185.9 1.864 186.444C1.672 186.988 1.576 187.836 1.576 188.988C1.576 189.052 1.48 189.084 1.288 189.084C1.096 189.084 1 189.052 1 188.988L1.048 186.492C1.112 185.084 1.144 183.964 1.144 183.132C1.144 182.204 1.112 181.036 1.048 179.628L1 177.276C1 177.212 1.096 177.18 1.288 177.18C1.48 177.18 1.576 177.212 1.576 177.276C1.576 178.396 1.672 179.228 1.864 179.772C2.056 180.316 2.392 180.684 2.872 180.876C3.32 181.068 4.024 181.164 4.984 181.164H27.112ZM1 140.99C1 140.894 1.096 140.846 1.288 140.846C1.48 140.846 1.576 140.894 1.576 140.99C1.576 143.614 3.24 144.926 6.568 144.926H31.624C31.688 144.926 31.736 145.006 31.768 145.166C31.8 145.294 31.784 145.39 31.72 145.454L5.032 167.966H25.48C27.176 167.966 28.424 167.662 29.224 167.054C30.024 166.414 30.424 165.454 30.424 164.174C30.424 164.078 30.52 164.03 30.712 164.03C30.904 164.03 31 164.078 31 164.174C31 165.006 30.984 165.646 30.952 166.094L30.904 168.542L30.952 171.134C30.984 171.614 31 172.318 31 173.246C31 173.31 30.904 173.342 30.712 173.342C30.52 173.342 30.424 173.31 30.424 173.246C30.424 171.87 30.024 170.862 29.224 170.222C28.424 169.55 27.176 169.214 25.48 169.214H3.688C2.28 170.622 1.576 172.014 1.576 173.39C1.576 173.486 1.48 173.534 1.288 173.534C1.096 173.534 1 173.486 1 173.39L1.048 171.518C1.08 171.134 1.096 170.59 1.096 169.886L1.048 167.39C1.016 167.102 1 166.734 1 166.286C1 166.03 1.064 165.854 1.192 165.758C1.288 165.63 1.528 165.438 1.912 165.182C2.36 164.894 2.888 164.494 3.496 163.982L25.048 146.126H6.568C4.872 146.126 3.624 146.43 2.824 147.038C1.992 147.646 1.576 148.59 1.576 149.87C1.576 149.934 1.48 149.966 1.288 149.966C1.096 149.966 1 149.934 1 149.87L1.048 147.95C1.112 146.99 1.144 146.174 1.144 145.502C1.144 144.926 1.112 144.094 1.048 143.006L1 140.99ZM31.576 120.52C31.576 124.008 30.904 127.048 29.56 129.64C28.216 132.232 26.392 134.216 24.088 135.592C21.784 136.968 19.208 137.656 16.36 137.656C13.256 137.656 10.504 136.872 8.104 135.304C5.704 133.704 3.832 131.528 2.488 128.776C1.144 125.992 0.471998 122.872 0.471998 119.416C0.471998 117.88 0.615998 116.392 0.903998 114.952C1.192 113.48 1.576 112.28 2.056 111.352C2.216 111.096 2.36 110.936 2.488 110.872C2.616 110.808 2.84 110.76 3.16 110.728L8.968 110.104C9.064 110.104 9.128 110.2 9.16 110.392C9.16 110.552 9.112 110.648 9.016 110.68C6.648 111.512 4.824 112.872 3.544 114.76C2.264 116.648 1.624 118.92 1.624 121.576C1.624 125.352 2.776 128.264 5.08 130.312C7.384 132.36 10.552 133.384 14.584 133.384C17.72 133.384 20.52 132.776 22.984 131.56C25.416 130.344 27.32 128.68 28.696 126.568C30.072 124.424 30.76 122.008 30.76 119.32C30.76 117.784 30.616 116.6 30.328 115.768C30.04 114.936 29.48 114.328 28.648 113.944C27.816 113.56 26.584 113.368 24.952 113.368C23.288 113.368 22.136 113.48 21.496 113.704C20.824 113.896 20.376 114.344 20.152 115.048C19.928 115.72 19.816 116.904 19.816 118.6C19.816 118.792 19.688 118.888 19.432 118.888C19.336 118.888 19.256 118.872 19.192 118.84C19.096 118.776 19.048 118.712 19.048 118.648C19.208 116.088 19.288 114.008 19.288 112.408C19.288 110.904 19.24 109.304 19.144 107.608C19.144 107.544 19.192 107.496 19.288 107.464C19.352 107.4 19.416 107.368 19.48 107.368C19.704 107.368 19.816 107.448 19.816 107.608C19.784 108.312 19.896 108.808 20.152 109.096C20.376 109.384 20.856 109.576 21.592 109.672C22.328 109.736 23.608 109.768 25.432 109.768C26.872 109.768 27.896 109.72 28.504 109.624C29.112 109.496 29.496 109.432 29.656 109.432C29.848 109.432 29.976 109.48 30.04 109.576C30.072 109.64 30.136 109.784 30.232 110.008C31.128 113.944 31.576 117.448 31.576 120.52ZM31.192 79.5184C31.192 80.4784 31.144 81.5824 31.048 82.8304C31.016 83.3104 30.984 83.9024 30.952 84.6064C30.92 85.3104 30.904 86.0944 30.904 86.9584L30.952 90.3184C30.984 90.9264 31 91.7584 31 92.8144C31 92.8784 30.904 92.9104 30.712 92.9104C30.52 92.9104 30.424 92.8784 30.424 92.8144C30.424 91.6624 30.344 90.8144 30.184 90.2704C30.024 89.7264 29.72 89.3584 29.272 89.1664C28.792 88.9744 28.072 88.8784 27.112 88.8784H4.888C3.928 88.8784 3.224 88.9744 2.776 89.1664C2.328 89.3584 2.024 89.7264 1.864 90.2704C1.672 90.7824 1.576 91.5984 1.576 92.7184C1.576 92.8144 1.48 92.8624 1.288 92.8624C1.096 92.8624 1 92.8144 1 92.7184L1.048 90.3184C1.112 88.9104 1.144 87.7904 1.144 86.9584C1.144 85.7424 1.096 84.5104 1 83.2624C0.935999 81.7264 0.903998 80.7024 0.903998 80.1904C0.903998 76.8944 1.544 73.9664 2.824 71.4064C4.104 68.8464 5.848 66.8624 8.056 65.4544C10.264 64.0464 12.744 63.3424 15.496 63.3424C18.6 63.3424 21.352 64.0784 23.752 65.5504C26.12 66.9904 27.96 68.9424 29.272 71.4064C30.552 73.8704 31.192 76.5744 31.192 79.5184ZM30.328 79.9984C30.328 77.5984 29.8 75.4864 28.744 73.6624C27.656 71.8064 26.088 70.3664 24.04 69.3424C21.96 68.2864 19.464 67.7584 16.552 67.7584C13.768 67.7584 11.256 68.2544 9.016 69.2464C6.744 70.2064 4.968 71.5984 3.688 73.4224C2.376 75.2144 1.72 77.3104 1.72 79.7104C1.72 81.0864 1.8 82.1424 1.96 82.8784C2.12 83.6144 2.44 84.1584 2.92 84.5104C3.368 84.8624 4.056 85.0384 4.984 85.0384H26.584C27.96 85.0384 28.936 84.7024 29.512 84.0304C30.056 83.3264 30.328 81.9824 30.328 79.9984ZM30.424 27.6991C30.424 27.5711 30.52 27.5071 30.712 27.5071C30.904 27.5071 31 27.5711 31 27.6991C31 28.3071 30.968 29.2831 30.904 30.6271C30.84 31.9071 30.808 32.8511 30.808 33.4591C30.808 34.1951 30.84 35.1071 30.904 36.1951C30.968 37.2831 31 38.0991 31 38.6431C31 38.7711 30.904 38.8351 30.712 38.8351C30.52 38.8351 30.424 38.7711 30.424 38.6431C30.424 37.5551 30.328 36.7711 30.136 36.2911C29.912 35.8111 29.528 35.5711 28.984 35.5711C28.44 35.5711 27.688 35.8111 26.728 36.2911L15.592 41.6671V50.4991L24.664 54.4351C25.72 54.8831 26.6 55.1071 27.304 55.1071C29.384 55.1071 30.424 53.5551 30.424 50.4511C30.424 50.2911 30.52 50.2111 30.712 50.2111C30.904 50.2111 31 50.2911 31 50.4511C31 51.0271 30.968 51.8591 30.904 52.9471C30.84 54.1631 30.808 55.2191 30.808 56.1151C30.808 56.9471 30.84 57.9391 30.904 59.0911C30.968 60.1151 31 60.9471 31 61.5871C31 61.7151 30.904 61.7791 30.712 61.7791C30.52 61.7791 30.424 61.7151 30.424 61.5871C30.424 60.6911 30.248 59.9391 29.896 59.3311C29.544 58.6911 28.936 58.0831 28.072 57.5071C27.208 56.9311 25.928 56.2751 24.232 55.5391L0.663999 45.3151C0.567998 45.2831 0.519998 45.1711 0.519998 44.9791C0.487998 44.7871 0.535998 44.6751 0.663999 44.6431L24.424 33.0751C26.76 31.9871 28.344 31.0591 29.176 30.2911C30.008 29.5231 30.424 28.6591 30.424 27.6991ZM14.488 50.0671V42.1951L5.848 46.3231L14.488 50.0671ZM1 0.844935C1 0.780936 1.096 0.748937 1.288 0.748937C1.48 0.748937 1.576 0.780936 1.576 0.844935C1.576 1.93294 2.072 3.11694 3.064 4.39694C4.024 5.64494 5.304 6.76494 6.904 7.75694L16.264 13.7089H27.112C28.104 13.7089 28.824 13.6289 29.272 13.4689C29.72 13.2769 30.024 12.9249 30.184 12.4129C30.344 11.8689 30.424 11.0209 30.424 9.86894C30.424 9.77294 30.52 9.72494 30.712 9.72494C30.904 9.72494 31 9.77294 31 9.86894C31 10.8609 30.984 11.6449 30.952 12.2209L30.904 15.6769L30.952 19.0369C30.984 19.6129 31 20.4289 31 21.4849C31 21.5809 30.904 21.6289 30.712 21.6289C30.52 21.6289 30.424 21.5809 30.424 21.4849C30.424 20.3329 30.344 19.4849 30.184 18.9409C30.024 18.3969 29.72 18.0289 29.272 17.8369C28.792 17.6449 28.072 17.5489 27.112 17.5489H17.08L5.704 25.1809C4.168 26.2049 3.096 27.1169 2.488 27.9169C1.88 28.6849 1.576 29.5169 1.576 30.4129C1.576 30.5089 1.48 30.5569 1.288 30.5569C1.096 30.5569 1 30.5089 1 30.4129C1 30.0609 1.032 29.5009 1.096 28.7329L1.144 27.1489C1.144 26.0929 1.112 24.6369 1.048 22.7809L1 19.9969C1 19.9329 1.096 19.9009 1.288 19.9009C1.48 19.9009 1.576 19.9329 1.576 19.9969C1.576 21.5009 1.96 22.2529 2.728 22.2529C3.08 22.2529 3.528 22.0769 4.072 21.7249L15.112 14.3329L6.616 8.95694C5.368 8.18894 4.344 7.80494 3.544 7.80494C2.904 7.80494 2.424 8.02894 2.104 8.47694C1.752 8.92494 1.576 9.58094 1.576 10.4449C1.576 10.5409 1.48 10.5889 1.288 10.5889C1.096 10.5889 1 10.5409 1 10.4449L1.048 8.09294C1.112 6.81294 1.144 5.64494 1.144 4.58894C1.144 4.04494 1.112 3.38894 1.048 2.62094L1 0.844935Z" fill="#AEB88D"/>
</svg>
